<svg xmlns="http://www.w3.org/2000/svg" width="912.473" height="132.782" viewBox="0 0 241.425 35.132"><path d="M66.53 59.367q-.43-.105-.872-.19-.442-.094-.442-.304 0-.221.137-.379.147-.168.43-.263.285-.105.569-.168.294-.063.736-.084.62-.042 1.503-.042h1.83q3.428 0 5.037.378 1.683.379 2.45 1.115.947.904.947 2.335 0 2.113-1.273 3.154-.883.715-1.756.957-.873.232-1.461.337-.59.094-1.378.157-1.22.085-2.976.085h-.662v4.437q0 .2.43.337.442.126.874.252.441.116.441.273 0 .347-.168.558-.168.2-.62.284-.558.094-2.125.094-1.556 0-1.892-.042-1.063-.137-1.073-.788 0-.484.873-.516.883-.031.883-.452V59.725q0-.253-.442-.358zm9.948 3.039q0-3.218-4.942-3.218h-.452q-.978 0-1.241.19-.284.2-.326.315l-.095.263q-.073.231-.073.725v4.522q.378.032 1.25.032.884 0 1.589-.042.715-.053 1.398-.169.694-.115 1.2-.326.504-.21.903-.515.79-.61.79-1.777zm4.27 3.628q-.39 0-.884-.305-.483-.316-.483-.81 0-.504.283-.946.284-.442.737-.715.452-.284 1.051-.473 1.094-.347 2.356-.347 2.124 0 3.08.946.968.936.968 3.102l-.01 3.102q0 1.125.284 1.41.073.073.462.189 1.073.336 1.073.515 0 1.104-2.261 1.104-.852 0-1.115-.379-.252-.378-.273-1.377-.473.852-1.44 1.377-.968.526-2.072.526t-1.872-.284q-.768-.284-1.251-.915-.474-.641-.474-1.377t.169-1.178q.168-.452.42-.757.253-.305.684-.547.441-.242.82-.378.379-.148.978-.263.883-.169 1.483-.232.599-.073.62-.084.063-.01.715-.073.663-.074 1.041-.284 0-1.998-.536-2.608-.473-.526-1.556-.526-1.084 0-1.63.557-.537.547-.537 1.746l.01.231q-.44.053-.84.053zm5.09 1.493q-.716.263-1.62.368-.894.095-1.41.232-.515.136-.862.336-.799.463-.799 1.588 0 1.809 2.103 1.809 1.82 0 2.303-1.736.284-.988.284-2.597zm7.97 5.174-.904.01q-1.378 0-1.704-.42-.147-.19-.147-.452 0-.274.21-.38.21-.104.463-.115.263-.01.473-.157.21-.158.21-.495v-5.194q0-.936-.231-1.157-.22-.22-.379-.284-.147-.063-.473-.158-.326-.094-.536-.189-.2-.095-.2-.284 0-.841 2.261-.841.957 0 1.21.336.262.326.262 1.525.358-.904 1.178-1.42.83-.515 1.693-.515.873 0 1.43.379.568.368.568.946 0 .568-.368.915-.368.337-.905.337-.536 0-.925-.284-.378-.284-.494-.737-.274-.042-.452-.042-1.64 0-1.64 3.776v2.891q0 .61.672.652.684.032.684.537 0 .578-.631.715-.484.105-1.325.105zm7.15-8.707-.641.01q-.389 0-.568-.073-.179-.074-.179-.305 0-.242.2-.431.21-.2.473-.305.726-.295.863-.494.147-.21.43-.905.705-1.735 1.179-1.735.241 0 .273.526.042.515.042.789.01.273 0 .82-.01.536-.01.746l2.502.01q.368 0 .62.19.253.179.253.484t-.252.473q-.242.168-.61.168h-2.513l-.01 5.374q0 2.282 1.145 2.282.316 0 .936-.19.62-.2.81-.2.431 0 .431.495 0 .389-1.02.778-1.01.39-2.082.39-1.062 0-1.672-.832-.6-.83-.6-2.187zm9.948 8.707-.904.01q-1.378 0-1.704-.42-.147-.19-.147-.452 0-.274.21-.38.21-.104.463-.115.263-.01.473-.157.21-.158.21-.495v-6.004q0-.61-.756-.736-.526-.084-.642-.179-.105-.105-.105-.357 0-.263.368-.474.62-.378 1.556-.378.947 0 1.21.273.273.263.273 1.188 1.44-1.63 3.964-1.63 2.05 0 2.903 1.126.862 1.114.862 3.386v3.785q0 .61.673.652.683.032.683.537 0 .567-.652.715-.483.105-1.335.105l-.904.01q-1.378 0-1.704-.42-.147-.19-.147-.453 0-.273.21-.378.21-.105.463-.116.263-.01.473-.157.21-.158.21-.495v-3.06q0-1.956-.452-2.86-.504-1.02-2.03-1.02-1.84 0-2.502.978-.62.925-.62 2.955v3.007q0 .61.673.652.683.032.683.537 0 .578-.641.715-.463.105-1.315.105zm11.999-1.146q-1.452-1.43-1.452-3.797 0-2.366 1.462-3.838 1.472-1.482 3.744-1.482 1.798 0 3.028 1.167 1.24 1.157 1.24 2.913 0 .851-1.345.851h-6.089q.021 1.704 1.105 2.871 1.083 1.167 2.734 1.167 1.093 0 2.124-.641.547-.337.694-.337.157 0 .347.158.2.147.2.368 0 .579-.747 1.073-.736.484-1.63.715-.894.242-1.567.242-2.387 0-3.848-1.43zm6.088-5.29q-.021-1.209-.63-1.966-.61-.757-1.789-.757-1.167 0-2.05.841-.873.841-.925 1.924h2.46q1.64 0 2.934-.042zm6.246 6.436-.904.01q-1.378 0-1.704-.42-.147-.19-.147-.452 0-.274.21-.38.21-.104.463-.115.263-.01.473-.157.21-.158.21-.495v-5.194q0-.936-.23-1.157-.221-.22-.38-.284-.146-.063-.472-.158-.326-.094-.537-.189-.2-.095-.2-.284 0-.841 2.261-.841.957 0 1.21.336.263.326.263 1.525.357-.904 1.177-1.42.831-.515 1.693-.515.873 0 1.43.379.568.368.568.946 0 .568-.368.915-.368.337-.904.337t-.926-.284q-.378-.284-.494-.737-.273-.042-.452-.042-1.64 0-1.64 3.776v2.891q0 .61.673.652.683.032.683.537 0 .578-.63.715-.484.105-1.326.105zm7.603-13.197q0-.463.442-.863.452-.41.978-.41.536 0 1.03.326.505.326.505.863 0 .536-.42.904-.421.357-1.031.357-.61 0-1.062-.336-.442-.337-.442-.841zM145.04 72.7l-.905.01q-1.377 0-1.703-.42-.147-.19-.147-.452 0-.274.21-.38.21-.104.463-.115.263-.01.473-.157.21-.158.21-.495v-5.657q0-.957-.746-1.03-.074-.011-.19-.022-.115-.01-.168-.01-.053-.01-.137-.021-.073-.021-.115-.042-.032-.021-.074-.053-.073-.052-.073-.294 0-.253.315-.516.6-.483 1.598-.483.926 0 1.083.073.169.074.284.158.221.147.221.557v7.34q0 .61.673.652.684.032.684.537 0 .578-.631.715-.484.105-1.325.105zm5.436-6.667q-.389 0-.883-.305-.484-.316-.484-.81 0-.504.284-.946.284-.442.736-.715.453-.284 1.052-.473 1.094-.347 2.355-.347 2.125 0 3.081.946.968.936.968 3.102l-.01 3.102q0 1.125.283 1.41.074.073.463.189 1.073.336 1.073.515 0 1.104-2.261 1.104-.852 0-1.115-.379-.252-.378-.273-1.377-.474.852-1.441 1.377-.967.526-2.072.526-1.104 0-1.871-.284-.768-.284-1.252-.915-.473-.641-.473-1.377t.168-1.178q.169-.452.421-.757t.684-.547q.441-.242.82-.378.378-.148.978-.263.883-.169 1.482-.232.6-.073.62-.084.064-.01.716-.073.662-.074 1.04-.284 0-1.998-.535-2.608-.474-.526-1.557-.526t-1.63.557q-.536.547-.536 1.746l.01.231q-.441.053-.84.053zm5.09 1.493q-.715.263-1.62.368-.893.095-1.409.232-.515.136-.862.336-.8.463-.8 1.588 0 1.809 2.104 1.809 1.82 0 2.303-1.736.284-.988.284-2.597zm6.099 4.028q-1.451-1.43-1.451-3.797 0-2.366 1.461-3.838 1.473-1.482 3.744-1.482 1.798 0 3.028 1.167 1.241 1.157 1.241 2.913 0 .851-1.346.851h-6.088q.02 1.704 1.104 2.871 1.083 1.167 2.734 1.167 1.094 0 2.124-.641.547-.337.694-.337.158 0 .347.158.2.147.2.368 0 .579-.747 1.073-.736.484-1.63.715-.893.242-1.566.242-2.387 0-3.85-1.43zm6.088-5.29q-.02-1.209-.63-1.966-.61-.757-1.788-.757-1.167 0-2.05.841-.873.841-.926 1.924h2.46q1.641 0 2.934-.042zm4.038-2.271-.641.01q-.39 0-.568-.073-.179-.074-.179-.305 0-.242.2-.431.21-.2.473-.305.726-.295.863-.494.147-.21.43-.905.705-1.735 1.179-1.735.241 0 .273.526.042.515.042.789.01.273 0 .82-.01.536-.01.746l2.502.01q.368 0 .62.19.253.179.253.484t-.252.473q-.242.168-.61.168h-2.513l-.011 5.374q0 2.282 1.146 2.282.316 0 .936-.19.62-.2.81-.2.43 0 .43.495 0 .389-1.02.778-1.009.39-2.081.39-1.062 0-1.672-.832-.6-.83-.6-2.187zm17.446 8.707-.905.01q-1.377 0-1.703-.42-.147-.19-.147-.452 0-.274.21-.38.21-.104.463-.115.263-.01.473-.157.21-.158.21-.495l.01-3.06q0-1.935-.462-2.85-.505-1.03-2.103-1.03-1.683 0-2.356 1.062-.61.989-.61 2.87v3.008q0 .61.673.652.684.032.684.537 0 .578-.641.715-.463.105-1.315.105l-.904.01q-1.378 0-1.704-.42-.147-.19-.147-.453 0-.273.21-.378.21-.105.463-.116.263-.01.473-.157.21-.158.21-.495V59.241q0-.61-.757-.736-.525-.084-.641-.179-.105-.105-.105-.337 0-.23.22-.42.221-.19.579-.284.63-.168 1.41-.168 1.303 0 1.303.788v6.11q1.43-1.62 3.617-1.62 2.188 0 3.04 1.126.862 1.114.862 3.386l-.01 3.785q0 .61.672.652.684.032.684.537 0 .578-.631.715-.484.105-1.325.105zm22.976-.926q0 1.157-.683 1.157-.526 0-1.283-.82-2.261-2.398-9.948-10.8v9.36q0 .178.442.367.441.18.883.368.442.18.442.358 0 .326-.253.589-.252.252-.641.389-1.577.526-3.565.02-1.083-.273-1.083-1.02 0-.252.452-.378.463-.126.915-.263.452-.147.452-.43V59.724q0-.2-.915-.432-.904-.241-.904-.441t.074-.358q.084-.168.263-.263.178-.105.357-.168.179-.063.484-.084.43-.042 1.104-.042h.137q1.156 0 1.44.252v-.01l9.885 10.715v-1.377l-.01-.074v-7.498q0-.136-.905-.473-.904-.336-.904-.494 0-.41.43-.736.832-.631 2.062-.631 3.028 0 3.028 1.367 0 .137-.872.484-.873.347-.873.483zm4.017-5.741q-.389 0-.883-.305-.484-.316-.484-.81 0-.504.284-.946.284-.442.736-.715.452-.284 1.052-.473 1.093-.347 2.355-.347 2.124 0 3.081.946.968.936.968 3.102l-.01 3.102q0 1.125.283 1.41.074.073.463.189 1.073.336 1.073.515 0 1.104-2.261 1.104-.852 0-1.115-.379-.252-.378-.273-1.377-.474.852-1.441 1.377-.967.526-2.072.526-1.104 0-1.871-.284-.768-.284-1.252-.915-.473-.641-.473-1.377t.168-1.178q.169-.452.421-.757t.683-.547q.442-.242.82-.378.38-.148.979-.263.883-.169 1.482-.232.6-.073.62-.084.064-.01.716-.073.662-.074 1.04-.284 0-1.998-.535-2.608-.474-.526-1.557-.526t-1.63.557q-.536.547-.536 1.746l.01.231q-.441.053-.84.053zm5.09 1.493q-.715.263-1.62.368-.893.095-1.409.232-.515.136-.862.336-.8.463-.8 1.588 0 1.809 2.104 1.809 1.82 0 2.303-1.736.284-.988.284-2.597zm5.762-3.533-.641.01q-.39 0-.568-.073-.179-.074-.179-.305 0-.242.2-.431.21-.2.473-.305.726-.295.863-.494.147-.21.43-.905.705-1.735 1.178-1.735.242 0 .274.526.042.515.042.789.01.273 0 .82-.01.536-.01.746l2.502.01q.368 0 .62.19.253.179.253.484t-.252.473q-.242.168-.61.168h-2.514l-.01 5.374q0 2.282 1.146 2.282.316 0 .936-.19.62-.2.81-.2.43 0 .43.495 0 .389-1.02.778-1.009.39-2.081.39-1.062 0-1.672-.832-.6-.83-.6-2.187zm9.853 4.154q0 1.44.232 2.04.231.588.526.84.61.527 2.03.527 1.43 0 2.092-.726.662-.736.662-2.45v-3.554q0-.779-.767-.831-.61-.032-.673-.126-.064-.105-.064-.232 0-.525.61-.799.62-.273 1.462-.273.852 0 1.146.231.305.231.305 1.094l.01 6.73q0 .715.758.767.536.032.652.116.115.074.115.368 0 .284-.347.526-.62.42-1.619.42-.988 0-1.23-.294-.232-.305-.232-1.388-1.272 1.85-3.89 1.85-2.072 0-2.945-1.114-.862-1.115-.862-3.439v-3.606q0-.779-.747-.831-.62-.032-.683-.126-.063-.105-.063-.232 0-.525.61-.799.61-.273 1.45-.273.853 0 1.157.231.305.231.305 1.094zm13.387 4.553-.905.01q-1.377 0-1.703-.42-.147-.19-.147-.452 0-.274.21-.38.21-.104.463-.115.263-.01.473-.157.21-.158.21-.495v-5.194q0-.936-.231-1.157-.22-.22-.379-.284-.147-.063-.473-.158-.326-.094-.536-.189-.2-.095-.2-.284 0-.841 2.26-.841.958 0 1.21.336.263.326.263 1.525.358-.904 1.178-1.42.83-.515 1.693-.515.873 0 1.43.379.568.368.568.946 0 .568-.368.915-.368.337-.905.337-.536 0-.925-.284-.379-.284-.494-.737-.274-.042-.452-.042-1.64 0-1.64 3.776v2.891q0 .61.672.652.684.032.684.537 0 .578-.631.715-.484.105-1.325.105zm12.387-7.73q0 1.41.515 2.609.516 1.188 1.42 2.008 1.914 1.735 4.91 1.735 2.998 0 5.28-2.282.252-.252.441-.252.2 0 .368.147.18.147.18.358 0 .21-.117.473h.01q-.788 1.388-2.639 2.313-1.84.915-3.775.915-1.934 0-3.522-.494-1.588-.494-2.818-1.41-1.22-.914-1.946-2.334-.725-1.43-.725-3.207 0-1.787.683-3.26.684-1.482 1.882-2.45 2.461-1.998 6.278-1.998 2.03 0 3.838.631.926.326 1.504.936.589.6.589 1.378 0 .778-.484 1.156-.483.379-1.135.379t-.957-.105q-.116-1.64-.947-2.44-.83-.799-2.502-.799-2.85 0-4.596 1.661-1.735 1.651-1.735 4.333zm15.31 6.584q-1.45-1.43-1.45-3.797 0-2.366 1.461-3.838 1.472-1.482 3.744-1.482 1.798 0 3.028 1.167 1.241 1.157 1.241 2.913 0 .851-1.346.851h-6.088q.02 1.704 1.104 2.871 1.083 1.167 2.734 1.167 1.093 0 2.124-.641.547-.337.694-.337.158 0 .347.158.2.147.2.368 0 .579-.747 1.073-.736.484-1.63.715-.894.242-1.567.242-2.387 0-3.848-1.43zm6.09-5.29q-.022-1.209-.632-1.966-.61-.757-1.787-.757-1.168 0-2.05.841-.874.841-.926 1.924h2.46q1.64 0 2.934-.042zm6.246 6.436-.905.01q-1.377 0-1.703-.42-.148-.19-.148-.452 0-.274.21-.38.211-.104.463-.115.263-.01.474-.157.21-.158.21-.495v-5.194q0-.936-.231-1.157-.221-.22-.379-.284-.147-.063-.473-.158-.326-.094-.536-.189-.2-.095-.2-.284 0-.841 2.26-.841.958 0 1.21.336.263.326.263 1.525.357-.904 1.178-1.42.83-.515 1.693-.515.872 0 1.43.379.568.368.568.946 0 .568-.369.915-.368.337-.904.337t-.925-.284q-.379-.284-.494-.737-.274-.042-.453-.042-1.64 0-1.64 3.776v2.891q0 .61.673.652.683.032.683.537 0 .578-.63.715-.484.105-1.325.105zm7.487-1.146q-1.452-1.43-1.452-3.797 0-2.366 1.462-3.838 1.472-1.482 3.744-1.482 1.798 0 3.028 1.167 1.241 1.157 1.241 2.913 0 .851-1.346.851h-6.088q.02 1.704 1.104 2.871 1.083 1.167 2.734 1.167 1.093 0 2.124-.641.547-.337.694-.337.158 0 .347.158.2.147.2.368 0 .579-.747 1.073-.736.484-1.63.715-.894.242-1.567.242-2.387 0-3.848-1.43zm6.088-5.29q-.02-1.209-.63-1.966-.61-.757-1.788-.757-1.168 0-2.051.841-.873.841-.925 1.924h2.46q1.64 0 2.934-.042zm11.126-1.461q-.442-.579-1.273-.915-.82-.347-1.84-.347t-1.735.589q-1.388 1.146-1.388 3.386 0 1.735.936 2.944.946 1.199 2.45 1.199 1.514 0 2.177-.62.673-.632.673-2.083zm-2.903-2.398q.694 0 1.546.231.862.221 1.357.474v-3.523q0-.957-.757-1.03-.074-.011-.19-.022-.115-.01-.168-.01-.053-.01-.137-.021-.073-.021-.115-.042-.032-.021-.063-.053-.074-.063-.074-.305t.326-.505q.589-.483 1.588-.483 1.062 0 1.24.126.358.252.358.662V69.41q0 1.168.252 1.515.263.336.463.41l.358.126q.157.053.22.084.064.021.158.084.169.095.169.295 0 .441-.474.652-.462.2-1.24.2-.768 0-1.115-.295-.347-.294-.61-1.083-.862 1.525-3.596 1.525-2.188 0-3.565-1.452-1.367-1.45-1.367-3.764t1.525-3.807q1.524-1.493 3.911-1.493zm9.044-2.902q0-.463.441-.863.453-.41.978-.41.537 0 1.03.326.506.326.506.863 0 .536-.421.904-.42.357-1.03.357-.61 0-1.063-.336-.441-.337-.441-.841zm2.197 13.197-.904.01q-1.377 0-1.703-.42-.148-.19-.148-.452 0-.274.21-.38.211-.104.463-.115.263-.01.474-.157.21-.158.21-.495v-5.657q0-.957-.747-1.03-.073-.011-.189-.022-.116-.01-.168-.01-.053-.01-.137-.021-.074-.021-.116-.042-.031-.021-.073-.053-.074-.052-.074-.294 0-.253.316-.516.6-.483 1.598-.483.925 0 1.083.073.168.074.284.158.22.147.22.557v7.34q0 .61.674.652.683.032.683.537 0 .578-.63.715-.484.105-1.325.105zm13.271-6.54q0 .956-.725 1.682-1.42 1.42-4.049 1.42-.515 0-1.094-.095-.578-.106-.725-.127v-.01q-.8.673-.8 1.178 0 .462.453.62.641.231 1.788.252 1.146.021 1.787.042.642.011 1.388.064.747.052 1.315.21.568.147 1.062.4 1.01.525 1.01 1.787 0 .946-.495 1.672-.494.726-1.325 1.146-1.65.852-3.933.852-1.977 0-3.48-.547-.81-.294-1.283-.873-.474-.567-.474-1.367 0-1.493 1.504-2.303-.4-.389-.547-.736-.136-.347-.136-.81 0-.462.084-.714.084-.253.263-.463.231-.273.862-.747-.989-.494-1.514-1.104-.516-.62-.516-1.556 0-.947.432-1.64.441-.695 1.156-1.105 1.451-.83 3.24-.83.504 0 1.881.262 1.388.253 1.557.253.936 0 1.093-.936 1.346 0 1.346 1.073 0 .515-.315.82-.305.294-.715.294-.4 0-.862-.042.304.263.536.82.231.558.231 1.157zm-4.71-2.798q-1.137 0-1.936.662-.788.663-.788 1.746t.81 1.777q.82.694 1.997.694 1.178 0 1.904-.641.736-.652.736-1.693t-.8-1.788q-.788-.757-1.924-.757zm.178 12.66q1.62 0 2.46-.346.842-.337 1.168-.789.326-.442.326-1.062 0-1.293-5.027-1.293-1.42 0-1.42-.032-.798.81-.798 1.546 0 1.977 3.29 1.977zm8.107-16.52q0-.462.442-.862.452-.41.978-.41.536 0 1.03.326.505.326.505.863 0 .536-.42.904-.42.357-1.03.357-.61 0-1.063-.336-.442-.337-.442-.841zm2.198 13.198-.904.01q-1.378 0-1.704-.42-.147-.19-.147-.452 0-.274.21-.38.21-.104.463-.115.263-.01.473-.157.21-.158.21-.495v-5.657q0-.957-.746-1.03-.074-.011-.19-.022-.115-.01-.168-.01-.052-.01-.136-.021-.074-.021-.116-.042-.031-.021-.073-.053-.074-.052-.074-.294 0-.253.315-.516.6-.483 1.599-.483.925 0 1.083.073.168.074.284.158.22.147.22.557v7.34q0 .61.674.652.683.032.683.537 0 .578-.63.715-.485.105-1.326.105zm8.56.263q-2.377 0-3.828-1.494-1.45-1.503-1.45-3.806 0-1.535.767-2.734t2.071-1.83q1.315-.641 2.924-.641 2.313 0 3.817 1.44 1.503 1.44 1.503 3.723 0 1.577-.778 2.807-.767 1.22-2.082 1.883-1.314.652-2.944.652zm.431-1.168q1.567 0 2.44-1.062.883-1.062.883-2.828 0-1.767-1.01-3.05-1.009-1.283-2.597-1.283-1.577 0-2.429 1.083-.852 1.083-.852 2.84 0 1.756 1 3.028.998 1.272 2.565 1.272zm9.37.905-.905.01q-1.377 0-1.703-.42-.148-.19-.148-.452 0-.274.21-.38.21-.104.463-.115.263-.01.474-.157.21-.158.21-.495v-6.004q0-.61-.757-.736-.526-.084-.642-.179-.105-.105-.105-.357 0-.263.368-.474.62-.378 1.556-.378.947 0 1.21.273.273.263.273 1.188 1.44-1.63 3.965-1.63 2.05 0 2.902 1.126.862 1.114.862 3.386v3.785q0 .61.673.652.684.032.684.537 0 .567-.652.715-.484.105-1.336.105l-.904.01q-1.378 0-1.704-.42-.147-.19-.147-.453 0-.273.21-.378.21-.105.463-.116.263-.01.473-.157.21-.158.21-.495v-3.06q0-1.956-.452-2.86-.504-1.02-2.03-1.02-1.84 0-2.502.978-.62.925-.62 2.955v3.007q0 .61.673.652.683.032.683.537 0 .578-.641.715-.463.105-1.315.105z" aria-label="Partneriaeth Natur Ceredigion" style="font-size:21.5359px;line-height:1.25;font-family:Corben;-inkscape-font-specification:Corben;fill:#4470a2;stroke-width:.538401" transform="matrix(.57286 0 0 .57286 29.1 -27.377)"/><path d="M67.083 86.343q0 1.394.51 2.58.51 1.176 1.405 1.987 1.893 1.717 4.859 1.717 2.965 0 5.223-2.258.25-.25.437-.25.198 0 .364.146.177.146.177.354t-.114.468h.01q-.78 1.374-2.612 2.29-1.82.905-3.735.905-1.914 0-3.486-.49-1.57-.488-2.788-1.394-1.207-.905-1.925-2.31-.718-1.415-.718-3.173 0-1.769.677-3.226.676-1.467 1.862-2.424 2.435-1.977 6.212-1.977 2.008 0 3.797.625.916.322 1.488.926.583.593.583 1.363t-.479 1.144q-.478.375-1.123.375-.646 0-.947-.104-.115-1.623-.937-2.414-.822-.791-2.476-.791-2.82 0-4.547 1.644-1.717 1.633-1.717 4.287zm15.155 6.513q-1.436-1.415-1.436-3.756 0-2.341 1.446-3.798 1.457-1.467 3.704-1.467 1.78 0 2.997 1.155 1.227 1.145 1.227 2.882 0 .843-1.331.843H82.82q.021 1.686 1.093 2.84 1.071 1.155 2.705 1.155 1.082 0 2.102-.634.54-.333.686-.333.157 0 .344.156.198.146.198.364 0 .572-.74 1.061-.728.479-1.612.708-.884.24-1.55.24-2.362 0-3.808-1.416zm6.024-5.234q-.02-1.196-.624-1.945-.604-.75-1.77-.75-1.154 0-2.028.833-.864.832-.916 1.904h2.435q1.623 0 2.903-.042zm6.18 6.368-.894.01q-1.363 0-1.686-.416-.146-.187-.146-.447 0-.27.208-.375.209-.104.458-.114.26-.01.468-.156.209-.156.209-.49v-5.14q0-.925-.23-1.144-.218-.218-.374-.28-.146-.063-.468-.157-.323-.093-.53-.187-.198-.094-.198-.28 0-.833 2.237-.833.946 0 1.196.333.26.322.26 1.508.354-.894 1.166-1.404.822-.51 1.675-.51.863 0 1.415.375.562.364.562.936 0 .562-.365.905-.364.333-.894.333-.531 0-.916-.28-.375-.282-.489-.73-.27-.04-.447-.04-1.624 0-1.624 3.735v2.86q0 .604.666.646.677.031.677.53 0 .573-.625.708-.478.104-1.31.104zm7.409-1.134q-1.436-1.415-1.436-3.756 0-2.341 1.446-3.798 1.457-1.467 3.704-1.467 1.78 0 2.997 1.155 1.227 1.145 1.227 2.882 0 .843-1.331.843h-6.025q.021 1.686 1.093 2.84 1.071 1.155 2.705 1.155 1.082 0 2.102-.634.54-.333.687-.333.156 0 .343.156.198.146.198.364 0 .572-.74 1.061-.728.479-1.612.708-.884.24-1.55.24-2.362 0-3.808-1.416zm6.024-5.234q-.02-1.196-.624-1.945-.604-.75-1.77-.75-1.154 0-2.028.833-.864.832-.916 1.904h2.435q1.623 0 2.903-.042zm11.008-1.446q-.437-.572-1.259-.905-.811-.343-1.82-.343-1.01 0-1.717.582-1.374 1.134-1.374 3.35 0 1.717.926 2.914.937 1.186 2.425 1.186 1.498 0 2.153-.614.666-.624.666-2.06zm-2.871-2.372q.686 0 1.529.229.853.218 1.342.468v-3.486q0-.946-.749-1.02-.073-.01-.187-.02-.115-.01-.167-.01-.052-.01-.135-.021-.073-.021-.114-.042-.032-.02-.063-.052-.073-.062-.073-.302 0-.239.323-.499.583-.479 1.571-.479 1.051 0 1.228.125.354.25.354.656v11.383q0 1.154.25 1.498.26.333.457.406l.354.124q.156.052.218.084.063.02.156.083.167.094.167.291 0 .437-.468.645-.458.198-1.228.198-.76 0-1.103-.291-.343-.292-.603-1.072-.854 1.509-3.559 1.509-2.164 0-3.527-1.436-1.353-1.436-1.353-3.725 0-2.29 1.509-3.767 1.509-1.477 3.87-1.477zm8.948-2.872q0-.458.437-.853.447-.406.967-.406.53 0 1.02.323.5.322.5.853 0 .53-.417.895-.416.354-1.02.354-.603 0-1.05-.333-.437-.333-.437-.833zm2.174 13.058-.895.01q-1.363 0-1.685-.416-.146-.187-.146-.447 0-.27.208-.375.208-.104.458-.114.26-.01.468-.156.208-.156.208-.49v-5.597q0-.947-.738-1.02-.073-.01-.188-.02-.114-.01-.166-.01-.052-.011-.135-.022-.073-.02-.115-.041l-.073-.052q-.072-.052-.072-.292 0-.25.312-.51.593-.478 1.581-.478.916 0 1.072.073.166.073.28.156.22.146.22.551v7.263q0 .603.665.645.677.031.677.53 0 .573-.625.708-.478.104-1.31.104zm13.131-6.472q0 .947-.718 1.665-1.404 1.405-4.006 1.405-.51 0-1.082-.094-.572-.104-.718-.125v-.01q-.79.666-.79 1.165 0 .458.447.614.635.23 1.769.25 1.134.02 1.769.042.634.01 1.373.062t1.3.208q.562.146 1.051.395 1 .52 1 1.77 0 .936-.49 1.654-.489.718-1.31 1.134-1.634.843-3.892.843-1.956 0-3.444-.542-.801-.29-1.27-.863-.468-.562-.468-1.353 0-1.477 1.488-2.278-.395-.385-.54-.729-.136-.343-.136-.8 0-.459.083-.708.083-.25.26-.458.23-.27.853-.739-.978-.489-1.498-1.092-.51-.614-.51-1.54 0-.937.427-1.624.437-.686 1.144-1.092 1.436-.822 3.205-.822.5 0 1.863.26 1.373.25 1.54.25.925 0 1.082-.926 1.331 0 1.331 1.061 0 .51-.312.812-.302.291-.707.291-.396 0-.854-.042.302.26.531.812.229.551.229 1.144zm-4.661-2.767q-1.124 0-1.915.655-.78.656-.78 1.727 0 1.072.801 1.759.812.687 1.977.687t1.883-.635q.729-.645.729-1.675t-.791-1.77q-.78-.748-1.904-.748zm.177 12.527q1.602 0 2.434-.343.833-.333 1.155-.78.323-.438.323-1.051 0-1.28-4.974-1.28-1.404 0-1.404-.031-.791.8-.791 1.529 0 1.956 3.257 1.956zm8.022-16.346q0-.458.437-.853.447-.406.967-.406.531 0 1.02.323.5.322.5.853 0 .53-.417.895-.416.354-1.02.354-.603 0-1.05-.333-.437-.333-.437-.833zm2.174 13.058-.894.01q-1.364 0-1.686-.416-.146-.187-.146-.447 0-.27.208-.375.208-.104.458-.114.26-.01.468-.156.208-.156.208-.49v-5.597q0-.947-.738-1.02-.073-.01-.188-.02-.114-.01-.166-.01-.052-.011-.135-.022-.073-.02-.115-.041l-.073-.052q-.072-.052-.072-.292 0-.25.312-.51.593-.478 1.581-.478.916 0 1.072.073.166.073.28.156.22.146.22.551v7.263q0 .603.665.645.677.031.677.53 0 .573-.625.708-.478.104-1.31.104zm8.47.26q-2.352 0-3.788-1.477-1.435-1.488-1.435-3.767 0-1.519.76-2.705.759-1.186 2.049-1.81 1.3-.635 2.892-.635 2.29 0 3.777 1.425 1.488 1.426 1.488 3.684 0 1.56-.77 2.778-.76 1.207-2.06 1.862-1.3.645-2.913.645zm.426-1.155q1.55 0 2.414-1.05.874-1.051.874-2.8 0-1.747-.999-3.017-.998-1.27-2.57-1.27-1.56 0-2.403 1.073-.843 1.071-.843 2.809 0 1.737.989 2.996.988 1.26 2.538 1.26zm9.271.895-.895.01q-1.363 0-1.685-.416-.146-.187-.146-.447 0-.27.208-.375.208-.104.458-.114.26-.01.468-.156.208-.156.208-.49v-5.94q0-.604-.749-.729-.52-.083-.635-.176-.104-.104-.104-.354 0-.26.365-.468.613-.375 1.54-.375.936 0 1.196.27.27.26.27 1.176 1.426-1.612 3.923-1.612 2.029 0 2.872 1.113.853 1.103.853 3.35v3.746q0 .603.666.645.676.031.676.53 0 .563-.645.708-.478.104-1.321.104l-.895.01q-1.363 0-1.686-.416-.145-.187-.145-.447 0-.27.208-.375.208-.104.458-.114.26-.01.468-.156.208-.156.208-.49v-3.027q0-1.935-.448-2.83-.499-1.01-2.008-1.01-1.82 0-2.476.968-.614.916-.614 2.924v2.976q0 .603.666.645.676.031.676.53 0 .573-.634.708-.458.104-1.3.104zm30.361-.915q0 1.144-.676 1.144-.52 0-1.27-.811-2.236-2.373-9.842-10.686v9.26q0 .177.437.364.437.177.874.364.437.177.437.354 0 .323-.25.583-.25.25-.635.385-1.56.52-3.527.02-1.072-.27-1.072-1.009 0-.25.448-.374.458-.125.905-.26.447-.146.447-.427V81.151q0-.198-.905-.427-.895-.24-.895-.437 0-.198.073-.354.083-.166.26-.26.177-.104.354-.166.177-.063.479-.083.426-.042 1.092-.042h.135q1.145 0 1.426.25v-.01l9.78 10.602V88.86l-.01-.073v-7.419q0-.135-.895-.468t-.895-.489q0-.406.427-.728.822-.625 2.04-.625 2.996 0 2.996 1.353 0 .135-.864.479-.863.343-.863.478zm3.968-5.681q-.385 0-.874-.302-.478-.312-.478-.801 0-.5.28-.937.282-.437.729-.707.447-.281 1.04-.468 1.083-.344 2.331-.344 2.102 0 3.049.937.957.926.957 3.069l-.01 3.07q0 1.113.28 1.394.073.072.458.187 1.062.333 1.062.51 0 1.092-2.237 1.092-.843 0-1.103-.374-.25-.375-.27-1.363-.47.842-1.426 1.363-.958.52-2.05.52-1.093 0-1.852-.281-.76-.28-1.238-.905-.469-.635-.469-1.363 0-.729.167-1.166.166-.447.416-.749.25-.301.676-.54.437-.24.812-.375.375-.146.968-.26.874-.167 1.467-.23.593-.072.614-.083.062-.01.707-.072.656-.073 1.03-.281 0-1.977-.53-2.58-.469-.521-1.54-.521-1.072 0-1.613.551-.53.542-.53 1.728l.01.229q-.437.052-.833.052zm5.036 1.477q-.707.26-1.602.364-.885.094-1.394.23-.51.134-.854.332-.79.458-.79 1.571 0 1.79 2.08 1.79 1.8 0 2.28-1.717.28-.978.28-2.57zm5.702-3.496-.635.01q-.385 0-.562-.072-.176-.073-.176-.302 0-.24.197-.427.208-.197.468-.301.718-.292.854-.49.145-.208.426-.894.697-1.717 1.166-1.717.239 0 .27.52.042.51.042.78.01.271 0 .812-.01.53-.01.739l2.476.01q.364 0 .614.188.25.176.25.478t-.25.468q-.24.167-.604.167h-2.487l-.01 5.317q0 2.258 1.134 2.258.312 0 .926-.188.614-.197.801-.197.427 0 .427.489 0 .385-1.01.77-.998.385-2.06.385-1.05 0-1.654-.822-.593-.822-.593-2.165zm9.75 4.11q0 1.425.228 2.018.23.583.52.833.604.52 2.009.52 1.415 0 2.07-.718.656-.728.656-2.424v-3.517q0-.77-.76-.822-.603-.031-.666-.125-.062-.104-.062-.229 0-.52.603-.79.614-.271 1.447-.271.842 0 1.134.229.301.229.301 1.082l.01 6.66q0 .707.75.759.53.03.645.114.114.073.114.364 0 .281-.343.52-.614.417-1.602.417-.978 0-1.218-.292-.228-.301-.228-1.373-1.26 1.831-3.85 1.831-2.05 0-2.914-1.103-.853-1.103-.853-3.402v-3.569q0-.77-.739-.822-.613-.031-.676-.125-.062-.104-.062-.229 0-.52.603-.79.604-.271 1.436-.271.843 0 1.145.229.301.229.301 1.082zm13.245 4.505-.895.01q-1.363 0-1.686-.416-.145-.187-.145-.447 0-.27.208-.375.208-.104.457-.114.26-.01.469-.156.208-.156.208-.49v-5.14q0-.925-.23-1.144-.218-.218-.374-.28-.145-.063-.468-.157-.322-.093-.53-.187-.198-.094-.198-.28 0-.833 2.237-.833.947 0 1.196.333.26.322.26 1.508.354-.894 1.166-1.404.822-.51 1.675-.51.864 0 1.415.375.562.364.562.936 0 .562-.364.905-.364.333-.895.333-.53 0-.916-.28-.374-.282-.489-.73-.27-.04-.447-.04-1.623 0-1.623 3.735v2.86q0 .604.666.646.676.031.676.53 0 .573-.624.708-.479.104-1.311.104zm7.408-1.134q-1.436-1.415-1.436-3.756 0-2.341 1.446-3.798 1.457-1.467 3.704-1.467 1.78 0 2.997 1.155 1.228 1.145 1.228 2.882 0 .843-1.332.843h-6.025q.021 1.686 1.093 2.84 1.072 1.155 2.705 1.155 1.082 0 2.102-.634.541-.333.687-.333.156 0 .343.156.198.146.198.364 0 .572-.739 1.061-.728.479-1.613.708-.884.24-1.55.24-2.362 0-3.808-1.416zm6.024-5.234q-.02-1.196-.624-1.945-.604-.75-1.769-.75-1.155 0-2.029.833-.863.832-.915 1.904h2.434q1.623 0 2.903-.042zm8.605-6.825q-.427-.104-.864-.187-.437-.094-.437-.302 0-.219.136-.375.145-.166.426-.26.281-.104.562-.166.291-.063.728-.083.614-.042 1.488-.042h1.81q3.393 0 4.985.374 1.664.375 2.424 1.103.936.895.936 2.31 0 2.092-1.259 3.122-.874.707-1.737.947-.864.228-1.447.332-.582.094-1.363.157-1.207.083-2.944.083h-.656v4.39q0 .198.427.334.437.124.864.25.437.114.437.27 0 .343-.167.551-.166.198-.614.281-.551.094-2.102.094-1.54 0-1.872-.042-1.051-.135-1.062-.78 0-.479.864-.51.874-.031.874-.447V81.15q0-.25-.437-.354zm9.843 3.007q0-3.184-4.89-3.184h-.448q-.967 0-1.228.187-.28.198-.322.313l-.094.26q-.073.229-.073.718v4.474q.375.03 1.239.03.874 0 1.57-.04.708-.053 1.385-.167.686-.115 1.186-.323.5-.208.894-.51.78-.603.78-1.758zm4.214 3.59q-.385 0-.874-.302-.478-.312-.478-.801 0-.5.28-.937.282-.437.729-.707.447-.281 1.04-.468 1.083-.344 2.331-.344 2.102 0 3.049.937.957.926.957 3.069l-.01 3.07q0 1.113.28 1.394.073.072.458.187 1.062.333 1.062.51 0 1.092-2.237 1.092-.843 0-1.103-.374-.25-.375-.27-1.363-.47.842-1.426 1.363-.958.52-2.05.52-1.093 0-1.852-.281-.76-.28-1.238-.905-.468-.635-.468-1.363 0-.729.166-1.166.166-.447.416-.749.25-.301.676-.54.437-.24.812-.375.375-.146.968-.26.874-.167 1.467-.23.593-.072.614-.083.062-.01.707-.072.656-.073 1.03-.281 0-1.977-.53-2.58-.469-.521-1.54-.521-1.072 0-1.613.551-.53.542-.53 1.728l.01.229q-.437.052-.833.052zm5.036 1.477q-.707.26-1.602.364-.885.094-1.394.23-.51.134-.854.332-.79.458-.79 1.571 0 1.79 2.08 1.79 1.8 0 2.28-1.717.28-.978.28-2.57zm7.887 5.12-.895.01q-1.363 0-1.685-.417-.146-.187-.146-.447 0-.27.208-.375.208-.104.458-.114.26-.01.468-.156.208-.156.208-.49v-5.14q0-.925-.229-1.144-.218-.218-.374-.28-.146-.063-.468-.157-.323-.093-.531-.187-.198-.094-.198-.28 0-.833 2.237-.833.947 0 1.197.333.26.322.26 1.508.354-.894 1.165-1.404.822-.51 1.675-.51.864 0 1.415.375.562.364.562.936 0 .562-.364.905-.364.333-.895.333-.53 0-.915-.28-.375-.282-.49-.73-.27-.04-.447-.04-1.623 0-1.623 3.735v2.86q0 .604.666.646.676.031.676.53 0 .573-.624.708-.479.104-1.31.104zm7.075-8.616-.634.01q-.385 0-.562-.072-.177-.073-.177-.302 0-.24.198-.427.208-.197.468-.301.718-.292.853-.49.146-.208.427-.894.697-1.717 1.165-1.717.24 0 .27.52.042.51.042.78.01.271 0 .812-.01.53-.01.739l2.476.01q.364 0 .614.188.25.176.25.478t-.25.468q-.24.167-.604.167h-2.486l-.01 5.317q0 2.258 1.133 2.258.313 0 .926-.188.614-.197.802-.197.426 0 .426.489 0 .385-1.01.77-.998.385-2.06.385-1.05 0-1.654-.822-.593-.822-.593-2.165zm9.843 8.615-.895.01q-1.363 0-1.685-.416-.146-.187-.146-.447 0-.27.208-.375.208-.104.458-.114.26-.01.468-.156.208-.156.208-.49v-5.94q0-.604-.749-.729-.52-.083-.634-.176-.104-.104-.104-.354 0-.26.364-.468.614-.375 1.54-.375.936 0 1.196.27.27.26.27 1.176 1.426-1.612 3.923-1.612 2.03 0 2.872 1.113.853 1.103.853 3.35v3.746q0 .603.666.645.676.031.676.53 0 .563-.645.708-.478.104-1.321.104l-.895.01q-1.363 0-1.685-.416-.146-.187-.146-.447 0-.27.208-.375.208-.104.458-.114.26-.01.468-.156.208-.156.208-.49v-3.027q0-1.935-.447-2.83-.5-1.01-2.008-1.01-1.821 0-2.477.968-.614.916-.614 2.924v2.976q0 .603.666.645.677.031.677.53 0 .573-.635.708-.458.104-1.3.104zm11.872-1.134q-1.436-1.415-1.436-3.756 0-2.341 1.447-3.798 1.456-1.467 3.704-1.467 1.779 0 2.996 1.155 1.228 1.145 1.228 2.882 0 .843-1.332.843h-6.024q.02 1.686 1.092 2.84 1.072 1.155 2.706 1.155 1.082 0 2.101-.634.541-.333.687-.333.156 0 .343.156.198.146.198.364 0 .572-.739 1.061-.728.479-1.612.708-.885.24-1.55.24-2.363 0-3.809-1.416zm6.024-5.234q-.02-1.196-.624-1.945-.603-.75-1.769-.75-1.155 0-2.029.833-.863.832-.915 1.904h2.435q1.623 0 2.902-.042zm6.18 6.368-.894.01q-1.363 0-1.685-.416-.146-.187-.146-.447 0-.27.208-.375.208-.104.458-.114.26-.01.468-.156.208-.156.208-.49v-5.14q0-.925-.229-1.144-.218-.218-.374-.28-.146-.063-.469-.157-.322-.093-.53-.187-.198-.094-.198-.28 0-.833 2.237-.833.947 0 1.197.333.26.322.26 1.508.354-.894 1.165-1.404.822-.51 1.675-.51.864 0 1.415.375.562.364.562.936 0 .562-.364.905-.364.333-.895.333-.53 0-.915-.28-.375-.282-.49-.73-.27-.04-.447-.04-1.623 0-1.623 3.735v2.86q0 .604.666.646.676.031.676.53 0 .573-.624.708-.479.104-1.311.104zm10.905-.947q2.341 0 2.341-1.435 0-1.083-2.112-1.696-.395-.115-.957-.271-1.051-.28-1.415-.427-.916-.353-1.55-1.03-.635-.676-.635-1.602 0-1.197 1.134-1.987 1.144-.791 2.757-.791 1.571 0 2.945.572.676.281 1.092.78.427.5.427 1.041 0 .541-.437.864-.427.322-.895.322-.458 0-.614-.083-.146-.094-.146-.416 0-2.008-2.133-2.008-.884 0-1.54.395-.655.385-.655 1.01 0 .977 2.04 1.55.322.083.78.208.458.114.843.239.384.114.8.28.427.157.895.417.469.26.76.562.676.687.676 1.665 0 .967-.655 1.675-1.3 1.384-3.746 1.384-1.592 0-2.934-.52-.687-.271-1.103-.75-.416-.478-.416-1.02 0-.54.343-.832.344-.301.78-.301.438 0 .74.27.311.27.311.676 0 .396-.072.854 1.103.405 2.351.405zm16.172.947-.895.01q-1.363 0-1.686-.416-.145-.187-.145-.447 0-.27.208-.375.208-.104.457-.114.26-.01.469-.156.208-.156.208-.49l.01-3.027q0-1.914-.458-2.82-.5-1.02-2.08-1.02-1.665 0-2.331 1.052-.604.978-.604 2.84v2.976q0 .603.666.645.676.031.676.53 0 .573-.634.708-.458.104-1.3.104l-.896.01q-1.363 0-1.685-.416-.146-.187-.146-.447 0-.27.208-.375.208-.104.458-.114.26-.01.468-.156.208-.156.208-.49v-11.33q0-.603-.749-.728-.52-.083-.635-.177-.104-.104-.104-.333 0-.229.219-.416.218-.188.572-.281.624-.167 1.394-.167 1.29 0 1.29.78v6.046q1.416-1.602 3.58-1.602t3.007 1.113q.853 1.103.853 3.35l-.01 3.746q0 .603.666.645.676.031.676.53 0 .573-.624.708-.479.104-1.311.104zm4.36-13.058q0-.458.436-.853.448-.406.968-.406.53 0 1.02.323.499.322.499.853 0 .53-.416.895-.416.354-1.02.354-.603 0-1.05-.333-.438-.333-.438-.833zm2.174 13.058-.895.01q-1.363 0-1.686-.416-.145-.187-.145-.447 0-.27.208-.375.208-.104.458-.114.26-.01.468-.156.208-.156.208-.49v-5.597q0-.947-.739-1.02-.073-.01-.187-.02-.115-.01-.167-.01-.052-.011-.135-.022-.073-.02-.114-.041l-.073-.052q-.073-.052-.073-.292 0-.25.312-.51.593-.478 1.582-.478.915 0 1.071.073.167.073.281.156.219.146.219.551v7.263q0 .603.666.645.676.031.676.53 0 .573-.624.708-.479.104-1.311.104zm12.777-4.796q0-2.404-1.394-3.496-.729-.562-1.738-.562-2.986 0-2.986 3.36v3.424q.843 1.092 2.903 1.092 1.498 0 2.351-1.072.864-1.082.864-2.746zm-6.711 9.062-.895.01q-1.363 0-1.686-.416-.145-.187-.145-.457 0-.26.208-.365.208-.104.458-.114.26-.01.468-.167.208-.145.208-.478v-9.385q0-.75-.115-1.03-.104-.292-.489-.437-.041-.021-.416-.104-.78-.188-.78-.52 0-.812 2.091-.812.885 0 1.238.208.354.208.354.895 0 .208-.01.312.801-.78 1.613-1.186.811-.406 2.07-.406 1.26 0 2.352.707 1.102.708 1.664 1.873.562 1.155.562 2.58 0 2.259-1.477 3.726-1.478 1.467-3.756 1.467-1.28 0-2.924-.843v2.955q0 .603.666.635.676.041.676.54 0 .573-.635.708-.457.104-1.3.104z" aria-label="Ceredigion Nature Partnership" style="font-size:21.309px;line-height:1.25;font-family:Corben;-inkscape-font-specification:Corben;letter-spacing:0;fill:#6e9a68;stroke-width:.532733" transform="matrix(.57286 0 0 .57286 29.1 -27.377)"/><g style="display:inline"><path d="M188.943 399.185c22.054 55.655 77.54 84.885 120.804 89.458 45.004 4.757 70.164-11.545 104.822-.348 0 0-5.618-23.94-52.939-28.239.001 0-.328-25.546-45.892-27.593-35.949-1.954-48.686 6.844-80.76.786-24.643-4.655-40.797-21.967-46.035-34.064" clip-path="url(#clipPath6-9)" style="fill:#4470a2;fill-opacity:1;fill-rule:evenodd;stroke:none" transform="matrix(.2578 0 0 -.2578 -46.873 136.613)"/><path d="M188.943 399.185c4.987 12.585 11.685 23.818 19.564 33.72 31.121 8.76 73.439 15.003 103.437 16.927 13.357.856 24.28.858 30.687-.153 6.762-1.067 8.713-3.225 3.652-6.648-3.863-2.614-12.128-6.007-25.92-10.265-1.49-.128-3.026-.232-4.625-.304-35.949-1.953-48.686 6.845-80.76.787-24.643-4.655-40.797-21.967-46.035-34.064zm36.018 51.116a164.79 164.79 0 0 0 2.268 1.987 154.09 154.09 0 0 0 3.458 2.879 147.796 147.796 0 0 0 2.345 1.854 144.079 144.079 0 0 0 3.566 2.683 181.55 181.55 0 0 0 2.41 1.723 162.084 162.084 0 0 0 3.657 2.486 158.211 158.211 0 0 0 6.197 3.882 162.48 162.48 0 0 0 2.51 1.462l1.26.711.119-.011a5384.29 5384.29 0 0 1 13.955 3.303c16.22 3.853 30.762 7.309 39.605 8.847 10.954 1.906 20.922 3.336 26.048 3.323 1.373-.003 2.413-.111 3.04-.342.774-.283 1.017-.733.64-1.372-.289-.489-1.027-1.097-2.274-1.84-7.067-4.205-11.118-7.366-12.605-9.555-.78-1.147-.82-1.996-.198-2.556.678-.61 2.098-.94 4.173-1.004 6.444-.194 18.993 2.237 35.321 6.917l1.822.522c11.832 3.393 21.046 6.035 29.776 8.154 7.244.273 14.633 1.394 22.515 3.94 0 .001-1.681-7.16-10.946-14.353-1.307-.21-2.611-.423-3.916-.639-18.674-3.088-37.188-6.732-58.876-11.57-42.136-9.4-43.643-4.84-45.014-.686-1.398 4.232-2.65 8.021-53.352-6.014a1750.862 1750.862 0 0 0-17.504-4.731" clip-path="url(#clipPath8-2)" style="fill:#4d7eb8;fill-opacity:1;fill-rule:evenodd;stroke:none" transform="matrix(.2578 0 0 -.2578 -46.873 136.613)"/></g><g style="display:inline"><path d="m237.864 477.11-.304.004a1.81 1.81 0 0 1-.578.544l.971-.01a1.78 1.78 0 0 1-.089-.54zM240.738 476.892l-.258.023c.064.227.064.436.016.622l.138-.013.01-.001.195-.019h.013l.191-.018.016-.002.06-.006c-.129-.185-.25-.393-.381-.587z" style="display:inline;fill:#1a1a18;fill-opacity:1;fill-rule:evenodd;stroke:none" transform="matrix(.2578 0 0 -.2578 -46.873 136.613)"/><path d="m359.916 490.562-6.509 1.102-5.055 1.162-8.78.528-.048.003-.196.013-.026.002-.24.018h-.002l-.26.02-.03.003-.249.021-.063.005-.232.02-.101.01-.211.019-.143.014-.185.017-.188.018-.39.038-.122.012-.287.029-.084.009-.34.035-.044.004-.396.042-.408.043-.046.005-.372.04-.095.01-.334.037-.145.017-.293.032-.197.022-.25.028-.252.028-.203.023-.307.035-.155.018-.365.041-.104.012-.422.049-.053.006-.48.056-.484.057-.054.007-.435.051-.109.013-.382.046-.165.02-.329.039-.22.027-.275.032-.277.035-.22.026-.331.04-.166.02-.386.048-.11.014-.44.054-.055.007-.494.061-.49.062-.055.007-.434.054-.107.014-.376.048-.16.02-.319.04-.211.027-.263.034-.26.033-.207.026-.309.04-.153.02-.353.046-.1.013-.396.051-.05.007-.435.058-.428.056-.046.006-.37.05-.091.011-.314.042-.133.02-.26.034-.172.023-.21.029-.208.028-.161.022-.238.033-.117.016-.265.037-.074.011-.29.04-.036.005-.308.045-.293.042-.031.005-.243.036-.06.008-.198.03-.081.012-.157.024-.1.015-.119.019-.112.017-.087.014-.12.02-.057.01-.123.02-.033.006-.12.021-.014.002-.111.022-.042.008c-.328.021-.66.061-.997.131-3.3.309-10.666.225-13.485 1.39-.448.186-2.457.417-4.74.71-.759-.293-1.985.126-2.314.314-.5.073-.991.148-1.464.226-2.69.093-8.366-.194-9.451-.415-2.28-.465-2.958-.398-5.19-.642-2.573-.28-.469-.742-6.86-.416-2.342.12-2.684-.63-3.233-.52-3.242.66-4.029-1.34-6.094.09.299-.205-.765-.212-.767-.193-.306 2.066-5.207.817-5.994 1.283-.602.356-.957.747-1.14 1.132-1.003-.066-1.775-.094-1.902-.041-.267.11-5.584-.673-5.953-.937-.25-.177-5.496-1.035-5.664-.935-.674.4-3.144-1.112-3.918-.96-.26-.17-.45-.173-.567-.327-.382-.497-2.702-.997-3.3-1.457l-.005.01-.007.013-.007.013-.007.013-.101.194-.008.015-.023.044.007.004.007.004.007.005.007.004.007.005.007.004.007.005.007.005.007.005.007.005.007.004.007.005.007.005.006.004v.001l.008.005.004.002.004.002.007.005.006.004.008.005.007.005.003.002.005.003.007.005.006.004h.002l.007.006.003.002.004.003.007.005.006.004.001.001.007.005.007.005.007.005.006.004h.001l.007.006.007.005.007.005h.001l.006.004.009.006.007.005h.003l.005.004.007.004.005.005h.002l.007.006.007.005h.002l.006.004.007.005.004.003.003.002.003.002.005.003.007.005.007.005.009.005.003.003.004.003.008.005.006.006.009.005.008.005.007.005.007.005.008.005.007.005.002.002.005.004.001.001.006.004.009.006.008.006.007.005h.002l.006.005c.011.008 3.353 1.311 3.837 1.598.168.1.338.094.598.265.774-.152 3.416 1.188 4.09.789.168-.1 5.413.757 5.663.935.37.264 5.686 1.046 5.953.936.128-.052.9-.025 1.902.042.183-.385.538-.777 1.14-1.133.788-.466 5.688.784 5.994-1.283.003-.018 1.066-.012.768.195l.096-.065.094-.06.092-.055.091-.05.09-.046.087-.041.087-.038.085-.033.078-.027.006-.002.008-.002.075-.023.082-.022.08-.019.08-.015.077-.011h.003l.04-.006.039-.004h.002l.076-.006.077-.003h.078l.076.002.077.004.076.007.076.009.077.01.076.013.077.014.077.016.038.008.039.009.038.009.039.01.04.01.038.01.079.02.04.011.04.01.04.012.04.011.08.023.042.011.04.011.042.012.042.012.042.011.042.012.043.012.042.012.044.011.043.012.044.012.044.011.045.012.045.011.045.011.046.011.046.011.046.01.047.01.048.011.048.01.048.01.049.01.049.008.05.01.05.008.102.016.105.014.106.013.109.01.11.01.114.007.088.004h.029l.029.001.09.002h.121l.125-.003.127-.006.13-.01.134-.01.137-.016.14-.018.143-.021.146-.026.15-.029.013-.003.013-.002.013-.002H269.187l.01-.002h.068l.01.001c.428.035.851.59 2.408.57.193-.012.416-.027.685-.042l.114-.006.114-.007.11-.006.11-.006.108-.005h.035l.037-.003.035-.002h.006l.045-.002.153-.007h.004l.378-.017h.019l.053-.002.042-.002c1.61-.065 2.56-.053 3.128-.001.266.052.507.116.775.183a.26.26 0 0 1 .084.097l.005.01.004.01.001.002v.002l.002.002v.003l.002.002v.002l.002.003v.002l.001.002.001.002v.002l.002.002v.002l.001.002.001.003.001.002v.002l.002.003v.003l.002.002v.002l.001.002.001.002.002.007.001.002v.002l.002.002v.002l.001.002.001.002.001.002.001.002.001.002v.002h.001l.001.003.001.002.001.002.003.004v.002l.002.002.002.003v.002l.002.002v.002l.003.002.005.006.002.002.002.002.002.002.002.002.002.002.002.002.002.002v.001l.002.001.002.002v.001h.001l.002.003.003.002.002.002.003.002.002.002.002.002.003.002.002.002.002.001.004.003.003.002.003.002h.001l.002.002.003.002.003.002.003.002.004.001.003.002.003.002.003.002.004.001.003.002.004.001.003.001h.001l.004.001.004.002.004.001.002.001.002.001.004.002.005.001.005.001.005.001.005.002.005.001.005.001.004.001h.003l.013.004.022.005h.006l.017.004.024.004h.001l.053.006h.002l.03.003.028.002h.005l.034.003.037.002h.04l.027.001h.153l.05-.001.054-.002h.024l.033-.002.06-.002.063-.003.065-.003.069-.004.071-.005.075-.005.079-.006h.007l.16-.013c1.2.148 1.883.093 2.615.085.225.039.451.086.69.139l.036.008.036.008.037.008.011.003.025.006.037.008.013.003.024.006.037.008.015.003.023.004.037.01.016.003.022.004.039.01.017.003.021.005.04.01.018.004.02.005.04.009.02.005.02.005.04.009.023.005.018.004.04.009.025.006.016.004.042.009.042.01.042.01.028.006.015.003.043.01.044.01.043.01.033.007.012.003.045.01.034.007.01.002.046.01.037.008.009.002.047.01.038.01.008.002.048.01.048.01.048.01.044.01h.005l.05.011.05.01.05.011.05.01.002.001.051.01.052.011c1.086.221 6.762.508 9.452.416.472-.08.964-.154 1.464-.227.329-.188 1.555-.607 2.314-.313 2.283-.294 4.292-.525 4.74-.71l.005-.002.005-.002.005-.002.005-.002.005-.002.005-.002.005-.002.058-.022.005-.002.005-.002.006-.002.005-.002.005-.002.005-.002.005-.002.005-.002.006-.002.005-.002.005-.002.006-.002.005-.002.01-.004.006-.002.005-.002.006-.002.005-.002.005-.002.005-.002.006-.002.006-.002.005-.002.006-.002.005-.002.005-.002.005-.002.006-.002.005-.002.005-.002.006-.002.006-.002.006-.002.005-.002.006-.002.006-.002.006-.002.005-.002.006-.002.005-.002.006-.002.006-.002.006-.002.006-.002.006-.002.035-.012.106-.035.036-.01.037-.012.036-.011.038-.012.037-.01.004-.001.004-.001.004-.001.004-.001.004-.001.004-.001.004-.002.009-.002.004-.001.004-.001.004-.001.004-.001.004-.001.004-.001.004-.001.004-.001.004-.001h.004l.004-.003h.004l.004-.002h.004l.004-.002h.004l.004-.002h.004l.002-.001h.003l.004-.002h.004l.004-.002h.004l.005-.002h.004l.004-.002h.004l.003-.001h.002l.004-.002h.004l.004-.002h.004l.004-.002h.004l.004-.002h.005l.003-.002h.001l.004-.001.004-.001.004-.001h.005l.004-.003h.004l.004-.002.004-.002h.003l.006-.002.005-.002h.004l.005-.001.004-.002.004-.001.005-.001.004-.001h.005l.04-.011.04-.01.008-.002.007-.002.008-.002.008-.002.007-.002.003-.001.005-.001.008-.002.007-.002.008-.002.008-.002.005-.001h.003l.008-.002.007-.002.008-.002.008-.002.008-.002.008-.002.008-.002.008-.002.008-.002.008-.002h.002l.005-.002.008-.002.008-.002.008-.002.008-.002h.005l.002-.001.008-.002.008-.002.008-.002.008-.002.008-.002.008-.003.008-.002.008-.002.008-.002.008-.002h.007l.008-.003.008-.002.008-.002.008-.002h.005l.003-.001.008-.002.008-.001.008-.002.008-.002.008-.002.008-.002.008-.001.008-.002.008-.002.008-.002.002-.001.005-.001.008-.002.008-.001.008-.002.008-.002.006-.001h.003l.008-.003.008-.002.008-.002h.008l.008-.003.043-.009.045-.009.044-.009.044-.009.045-.009h.005l.005-.001.005-.001.005-.001h.005l.005-.002h.005l.005-.002h.005l.005-.001.005-.001.005-.001.005-.001.005-.001h.005l.005-.002h.005l.005-.002h.005l.005-.001.005-.001.005-.001h.005l.005-.002h.005l.005-.002h.007l.003-.001.005-.001.005-.001.005-.001h.005l.005-.002h.005l.005-.002h.008l.002-.001.005-.001.005-.001.005-.001h.005l.01-.003h.005l.005-.002h.006l.005-.001.01-.002.005-.001.005-.001.005-.001h.005l.005-.002h.004l.005-.002h.005l.005-.001.005-.001.005-.001h.005l.005-.002h.005l.005-.002.047-.008.047-.008.016-.003.017-.003.014-.002h.002l.016-.003.017-.003.012-.002h.005l.017-.003.017-.003.01-.001.007-.001.016-.003.017-.002.007-.002.01-.001.016-.002.017-.003.034-.005.016-.003h.002l.015-.003.017-.003.017-.003.034-.005.014-.002h.002l.017-.003.017-.003.086-.012.018-.003.104-.015h.003l.032-.005.017-.003.018-.002.017-.003.015-.002h.002l.018-.003.018-.002.012-.002h.005l.018-.003.018-.002h.01l.007-.002.018-.002.025-.003h.01l.018-.004.018-.002h.005l.013-.002.017-.003.018-.002h.003l.016-.002.017-.002.019-.002.017-.002.018-.002.018-.002.018-.003.014-.001.011-.001.01-.001.011-.002.011-.001.01-.001.012-.001.01-.001.011-.001.011-.001.01-.001.012-.002.01-.001.011-.001.011-.001.01-.001.012-.002.01-.001.011-.001.011-.001h.002l.01-.002h.01l.011-.002h.011l.011-.002h.01l.012-.002h.01l.012-.002h.01l.011-.002h.012l.01-.002h.011l.011-.002h.011l.011-.002h.011l.011-.002h.011l.011-.001.012-.001.01-.001.011-.001.011-.001.011-.001.012-.001.01-.001.012-.001.01-.001.012-.001.01-.001.012-.001.01-.001.012-.001.011-.001.011-.001.011-.001.011-.001.023-.002h.003l.02-.003h.01l.012-.002.143-.015.045-.005h.008l.008-.001.009-.001h.008l.009-.001.008-.001.008-.001.009-.001h.008l.009-.002h.008l.008-.001.009-.001.008-.001h.008l.008-.002h.008l.009-.001.008-.001.009-.001h.008l.008-.001.009-.001.008-.001h.008l.008-.001.008-.001.009-.001.009-.001h.008l.008-.002h.008l.009-.001.009-.001h.008l.009-.002h.008l.008-.001.009-.001h.008l.009-.001.008-.001.008-.001h.009l.008-.001.008-.001.009-.001.008-.001h.009l.008-.001.008-.001.009-.001h.008l.008-.002h.009l.008-.001h.008l.009-.002h.008l.009-.001.008-.001h.009l.008-.002h.009l.147-.014.297-.025.15-.012.45-.034.08-.006.072-.005.151-.01.02-.001.132-.01.112-.007.04-.002.152-.01.052-.003.253-.016.153-.009.084-.005.069-.004.152-.009h.023l.245-.014.037-.002.152-.008.054-.003h.015l.016-.001.015-.001.015-.001h.015l.016-.002h.016l.015-.001h.015l.016-.002h.015l.575-.029h.015l.045-.002.015-.001.015-.001h.02l.01-.001.015-.001.015-.001h.015l.015-.001.016-.001h.015l.014-.001.336-.016.08-.004.08-.004.08-.003.08-.003.078-.004.079-.004.078-.003.08-.004.077-.003.078-.003.232-.01.077-.003.076-.003.076-.003.077-.004.075-.003.075-.003.04-.002.035-.002.015-.001h.015l.016-.001.015-.001h.014v-.001h.016l.014-.002h.031l.012-.001h.002l.016-.001.015-.001h.015l.026-.002h.019l.03-.002h.014l.03-.002h.015l.03-.001h.009l.006-.001.03-.001h.014l.015-.002H313.482l.015-.002h.015l.015-.001h.007l.008-.001h.015l.014-.001h.015l.014-.002h.03l.014-.002h.015l.014-.001h.014l.015-.001.014-.001h.015l.014-.001h.003l.011-.001h.015l.014-.002h.014l.015-.001h.014l.015-.001.013-.001h.015l.014-.001h.001l.013-.001.015-.001h.013l.015-.001.014-.001.07-.004.024-.001.044-.002.068-.004.069-.003.2-.011.067-.004.065-.004.065-.004.065-.004.064-.004.126-.008.062-.004.062-.004.061-.004.06-.004.06-.004.06-.004.06-.004.057-.004h.006l.052-.005.057-.005.056-.004.057-.005.055-.005.054-.005.054-.005.053-.005.053-.005c.337-.069.669-.11.997-.13l.041-.008.111-.022.014-.003.12-.021.033-.005.124-.021.056-.01.121-.02.086-.014.113-.018.119-.019.1-.015.156-.024.082-.012.198-.03.06-.008.242-.036.032-.005.292-.042.309-.044.035-.005.29-.04.074-.01.266-.038.117-.016.238-.033.16-.022.208-.028.21-.029.172-.023.26-.035.133-.019.314-.042.091-.011.37-.05.047-.006.427-.056.436-.057.05-.007.396-.052.1-.013.353-.046.152-.02.31-.04.206-.026.26-.033.263-.034.212-.027.135-.017.183-.023.16-.02.333-.042.043-.005.108-.014.433-.055.055-.007.49-.06v-.001l.494-.061.055-.007.046-.006.348-.044.047-.006.051-.006.058-.007.193-.024.194-.023.155-.02h.01l.332-.04.007-.002.213-.025.276-.034.209-.025.066-.008.22-.027.33-.04.079-.01.085-.01.26-.03.122-.015.11-.013.113-.014.32-.037.023-.003.032-.004.484-.057.165-.02.315-.036.053-.006.302-.035.12-.014.105-.012.364-.042.071-.008.084-.009.307-.034.203-.023.252-.029.25-.027.197-.023.293-.032.136-.015.01-.001.159-.018.175-.018.094-.01.372-.04.047-.006.143-.015.264-.028.396-.042.384-.04.084-.007.287-.03.121-.01.391-.039.188-.018.034-.003.15-.014.144-.014.16-.014.05-.005.102-.01.063-.005.169-.015.038-.003.025-.002.25-.021.01-.001.02-.002.26-.02h.003l.172-.013.065-.005.027-.002.07-.005.153-.01.021-.001.121-.007.132-.007.083-.004-.588.052-.004-.003.592-.049c.373-.016.595-.009.628.025 3.69-.358 6.19-.562 6.702-.526.97.071 2.683-.74 5.382-1.218l.013-.002.012-.002.012-.002.012-.002.013-.002h.008l.004-.001.012-.002.012-.002.013-.002.012-.002.013-.002.003-.001.009-.001.012-.002.013-.002.013-.002.012-.002.012-.002.013-.002.013-.002.013-.002.013-.002.012-.002h.008l.005-.001.013-.002.013-.002.013-.002.013-.002.013-.001.003-.001.01-.001.013-.001.013-.002.013-.002.013-.001.011-.002h.001l.014-.002.013-.001.013-.001.013-.001.013-.001.007-.001h.006l.013-.003h.014l.013-.002h.013l.013-.002H354.247l.014-.002h.013l.013-.002h.014l.011-.002h.016l.013-.002h.014l.013-.002h.014l.007-.001.007-.001.014-.001h.013l.014-.002h.014l.013-.002h.014l.014-.002h.003l.049-.004.015-.001.063-.004h.001l.065-.004.066-.004.027-.002.039-.002.042-.002.024-.001.056-.003h.01l.067-.004h.004l.063-.003.02-.001.048-.002.034-.001.034-.001.048-.002h.02l.063-.003h.005l.069-.002h.01l.059-.002h.025l.044-.001.04-.001.085-.002h.014l.07-.003.07-.002h.015l.055-.001h.03l.04-.002h.046l.024-.001.062-.001h.009l.07-.002h.006l.065-.002.021-.001.05-.001h.036l.034-.002h.052l.019-.001.067-.002h.003l.071-.002.012-.001.06-.002.026-.001.044-.001.043-.002.028-.001.057-.002h.014l.07-.004h.002l.069-.003h.017l.054-.003.032-.001.038-.002.048-.003.022-.001.063-.004h.007l.07-.005h.008l.062-.004.023-.002.047-.003.038-.003.032-.002.052-.004.017-.001.067-.005h.002l.07-.007h.012l.056-.006.028-.002.04-.004.043-.004.025-.003.057-.006h.011l.068-.009h.004l.063-.008.018-.002.049-.007.032-.005.034-.005.007-.001.06-.009.06-.009h.006l.065-.011.01-.002.055-.01.023-.004.042-.008.037-.007.027-.005.05-.01.014-.003.063-.013.153-.032.02-.004.133-.029.038-.008.116-.025.056-.012.097-.02.075-.017.079-.017.094-.02.06-.013.112-.024.04-.01.132-.028.022-.005.15-.033h.003l.153-.034.016-.003.138-.03.034-.009.119-.026.053-.012.1-.022.071-.016.081-.018.09-.02.064-.015.108-.024.044-.01.127-.03.025-.005.146-.033.007-.001.152-.035.012-.002.14-.032.03-.007.12-.028.05-.011.1-.024.068-.015.083-.02.086-.02.065-.015.103-.024.047-.011.121-.029.028-.007.14-.033.008-.002.15-.035.008-.002.14-.033.026-.007.12-.029.046-.01.102-.025.062-.015.084-.02.08-.02.066-.016.098-.023.048-.012.114-.028.03-.007.132-.033.012-.003.144-.035.006-.001.137-.034.022-.006.12-.03.04-.01.101-.025.057-.014.084-.021.074-.02.065-.015.09-.023.05-.013.106-.027.032-.008.122-.032.015-.004.136-.035h.002l.134-.035.019-.005.116-.03.035-.009.099-.026.05-.013.082-.022.067-.017.065-.017.083-.022.049-.013.097-.026.032-.008.113-.03.016-.004.128-.035.127-.034.015-.004.11-.03.03-.008.095-.026.045-.013.08-.021.058-.017.064-.017.073-.02.048-.014.087-.025.032-.009.102-.028.017-.005.115-.033h.003l.015-.005.029-.009.014-.004.014-.004.014-.004.014-.004.014-.004c.263-.076.516-.15.759-.223-1.05.119-2.1.242-3.154.37l-.778.094c-1.311.247-2.951.52-5.027.818z" style="display:inline;fill:#9bc7a1;fill-opacity:1;fill-rule:evenodd;stroke:none" transform="matrix(.2578 0 0 -.2578 -46.873 136.613)"/><path d="M223.634 474.676c-3.539 2.315-4.018-1.368-4.307-1.277l-.232.072-.087.025-.17.049-.047.013-.176.046-.047.013-.013.003a8.28 8.28 0 0 1-.196.047l-.062.013-.149.032-.055.011-.159.03-.03.006-.185.029-.035.005-.13.017-.062.007-.12.011-.038.003-.149.01h-.046l-.105.003H216.89l-.046-.002-.104-.006h-.024l-.028-.004-.094-.01-.04-.005-.081-.012-.035-.006-.102-.02-.008-.001-.005-.001-.1-.026-.032-.009-.069-.021-.036-.013-.055-.02-.039-.015-.074-.032-.014-.006-.016-.008-.063-.032-.024-.012-.058-.033-.024-.015-.005-.003-.062-.04-.006-.004-.01-.007-.057-.04-.027-.021-.036-.028-.03-.024-.005-.005-.053-.046-.002-.001-.01-.011-.051-.048-.012-.011-.043-.044-.012-.012-.016-.018-.044-.048-.002-.002-.044-.05-.011-.014-.031-.038-.024-.03-.017-.021-.036-.046-.005-.006-.04-.052-.008-.01-.031-.043-.02-.026-.019-.026-.03-.042-.008-.01-.037-.052-.005-.007-.033-.045-.017-.022-.021-.028-.028-.038-.01-.013-.039-.049-.002-.003-.036-.046-.015-.017-.008-.009-.033-.039-.01-.012-.014-.015-.04-.044-.002-.001-.042-.044-.032-.03-.028-.026-.017-.015-.039-.033-.015-.013-.005-.003-.048-.036-.003-.002-.025-.017-.035-.023-.032-.02-.03-.016-.028-.017-.004-.002-.057-.027c-.271-.033-.543-.07-.815-.108l-.013.001-.04.004-.013.001-.013.002-.014.002-.013.002-.014.002-.069.011-.014.002-.014.002-.005.001-.009.002a4.124 4.124 0 0 0-.117.023l-.013.003h-.001l-.015.003-.12.03h-.004l-.007.001-.009.003-.016.004-.114.032-.016.005h-.001l-.154.048-.008.003-.01.003-.163.055-.136.047-.134.042-.132.038-.13.033-.128.03-.126.025-.124.021-.123.018-.12.014-.119.01-.117.008-.115.004h-.113l-.111-.001-.11-.005-.108-.008-.106-.011-.104-.014-.103-.015-.1-.018-.1-.02-.097-.023-.096-.024-.094-.027-.093-.027-.091-.03-.09-.03v-.001l-.087-.032-.086-.034-.085-.034-.083-.036-.082-.037-.08-.037-.078-.038-.077-.039-.076-.039-.074-.039-.073-.04-.07-.039h-.001l-.07-.04-.068-.038-.067-.04-.066-.038-.064-.038-.063-.037-.062-.036-.06-.036-.059-.035-.058-.033-.056-.032-.056-.031-.053-.03-.053-.027-.052-.026-.05-.024-.049-.022-.048-.02-.047-.018-.046-.015-.044-.013-.043-.01-.043-.008-.041-.005-.04-.002a220.077 220.077 0 0 0 4.743 7.743l.076-.001.076-.002.075-.001.075-.001.074-.002.074-.002.074-.002.073-.002.072-.002.072-.001.071-.002.07-.002h.001l.07-.002.07-.002.069-.002.068-.002.068-.002.068-.002.067-.002.066-.002.065-.002.066-.002.064-.002.064-.002.063-.002.063-.002.062-.002.06-.002h.001l.06-.003.06-.002.06-.003.059-.002.058-.003.058-.003.056-.003.056-.003.055-.003.055-.003.054-.003.053-.003.053-.003.051-.003.052-.003.05-.003.05-.003.048-.003.048-.003.048-.003.046-.003.046-.003.045-.003.044-.004.043-.003.043-.004.042-.004.04-.004.04-.003.04-.004.039-.004.037-.004.037-.004.036-.004.035-.004.034-.004c4.458-.549 7.843-.746 12.231-1.283.453-.056 1.365-.091 2.483-.115-.904-.57-1.44-1.5-1.242-1.958-3.793 2.329-3.692.353-5.227-.558M237.56 477.115h.008l.058-.001h.01l.048-.001.028-.001h.028l.045-.001h.01l.055-.001H237.863c-.004-.2.017-.424.07-.673a3.643 3.643 0 0 1-.374.678zM234.213 476.387c-.188.26-.393.447-.61.574a3.87 3.87 0 0 1-.263.19h.02l.084-.001H233.561l.062-.001h.054l.034-.001H233.8l.088-.001h.022l.065-.001h.087l.079-.001h.009l.086-.001H234.41l.074-.001h.011l.086-.001H234.666l.043-.001h.041l.071-.001h.085a4.578 4.578 0 0 1-.692-.753zM240.48 476.915l.136-.012h.007l.115-.011c-.165-.244-.344-.467-.569-.593.156.217.257.423.311.616zM211.809 478.895l-.008-.013zM211.818 478.908l-.01-.013zM211.827 478.922l-.01-.014zM211.888 479.017l-.005-.009-.01-.015-.01-.015-.01-.014-.01-.014-.008-.015-.01-.014.062.096z" style="display:inline;fill:#fbf5cd;fill-opacity:1;fill-rule:evenodd;stroke:none" transform="matrix(.2578 0 0 -.2578 -46.873 136.613)"/><path d="M246.683 475.375c2.11.45 4.517.832 7.27.714a29.331 29.331 0 0 1 2.291.01l-1.06-.55-.049-.024-.065-.034-.108-.057-1.034-.546-.068-.036-.196-.106-.558-.301-.502-.27-.039-.022-1.093-.601-.009-.005-.003-.002-1.075-.603-.116-.066-.079-.044-1.047-.6-.06-.033-.142-.083-.718-.418-.319-.187-.04-.024-.05-.03-1.02-.605-.063-.038-.024-.014-.98-.593-.163-.099-.19-.118-.707-.435-.108-.067-.155-.096-.08-.05-.01-.006-.702-.44-.242-.153-.117-.074-.003-.002-.339-.216-.349-.223-.323-.208-.025-.016-.262-.17-.08-.051-.344-.224-.703-.46-.793-.526-.013-.01-.23-.152-.174-.118-.168-.113-.343-.232-.215-.145-.187-.126-.106-.074-.518-.355-.32-.22-.02-.014-.01-.007-.273-.19-.692-.483-.01-.007-.371-.262-.24-.17-.098-.069-.336-.24-.04-.028-.605-.434-.025-.019-.336-.243-.096-.07-.051-.037c-.252-.183-.502-.366-.752-.55l-.1-.074c-.437.092-1.193-.35-2.366.083-.974.36 1.166 3.21-2.25 2.181-2.182-.658-.394.647-4.016.647-1.082 0-2.92-1.346-4.157 0-3.062 3.322-2.988.574-4.456 1.18-2.903 1.199-6.128-.67-6.748.447-.524.946-2.196.68-2.772.917 3.02.454 9.272 1.778 11.55 2.406.55.11 1.332.286 1.449.36l.004.003.037.01c.378.11 2.403 1.156 2.82 1.26.418.102.85.203 1.279.299.43.096.858.188 1.272.276.414.088.814.172 1.184.252.37.08.713.156 1.012.227.158.038.304.074.436.11h.004l.007.002.005.001c.113.03.064.015.154.043.125.038.84.113.919.149.461.145.694.345 1.781.532.12.02 1.5.267 1.5.3 3.296.264 5.947-.016 9.154.126.258.012.482.02.685.035.015-.002.397 0 .604.006.555.016 1.083.002 1.473.15.473.176.396.047.621.44.085.147 1.515.162 1.682.492l.002.007.003.007.003.007c.06.141.218.221.106.287zm-39.965-7.414.112.008.125.011.138.014.148.017.16.02-.11-.015-.05-.006-.083-.01-.065-.007-.058-.006-.08-.008-.035-.003-.09-.008h-.016l-.096-.007zm.854.091.18.026.19.027.2.03.209.033.217.035.225.037-.178-.03-.047-.007-.142-.023-.075-.012-.108-.017-.1-.016-.076-.011-.124-.02-.046-.006-.145-.02-.173-.025-.007-.001zm1.693.27.246.042.253.045.258.047.263.049-.197-.037-.066-.012-.158-.029-.1-.018-.12-.021-.133-.024-.083-.015zm1.288.233.273.051.277.053.28.054-.123-.024-.157-.03-.083-.016-.194-.037-.044-.008-.229-.043zm1.113.213.285.056.288.057-.243-.049-.045-.008-.203-.04-.082-.016zm.863.171.29.059-.075-.016zm.875.178.291.06.292.061-.236-.05-.056-.01-.195-.041zm.873.182.29.061-.064-.013zm.862.184.282.061-.179-.039zm1.374.302.261.06-.119-.028zm.517.118.25.057-.182-.042zm.495.114.237.056.092.021-.092-.021-.034-.008-.203-.048zm2.798.755.006.003zm.006.003.005.003zm.005.003.005.002-.005-.002z" clip-path="url(#clipPath14-0)" style="display:inline;fill:#d4d38b;fill-opacity:1;fill-rule:evenodd;stroke:none" transform="matrix(.2578 0 0 -.2578 -46.873 136.613)"/><path d="M261.094 478.484c-.195.244-.632.49-1.364.722-.016.003-.896 2.66-3.223.813.122-2.03-4.321-3.38-3.461-1.31 1.03 2.484-1.56 2.627-1.915 2.295-1.367-1.276-2.962-.356-3.514-.968-3.232-3.592-5.582.975-7.123-.233-1.615-1.27-4.274-.776-3.75.497 1.337 3.255-4.002 2.425-3.91 1.2.197-2.704-.902-1.762-.888-1.598.226 2.633-2.838 1.218-2.84 1.2-.488-2.81-1.462-1.643-1.21-.777.773 2.668-3.857 1.227-3.91.876-.208-1.426-2.256-.745-1.68.1.83 1.227-1.364 2.525-4.176-.405-.706-.737-3.788.093-4.734.402a128.086 128.086 0 0 0 3.88 5.456c1.959.303 4.096.693 6.276 1.09 1.728.314 3.483.633 5.194.918 1.652.055 3.469.167 4.676.4 1.086.21 5.252.374 9.951.523 5.512.036 11.409.343 17.326.652l1.451.076c3.375.02 8.215-.068 11.61.501h.003c1.256-.128 2.592.036 2.715.05.048.007 11.874-.902 12.21-.97l.016-.003.007-.002.01-.002.015-.004h.004l.022-.007h.004l.018-.005.014-.004.01-.002.025-.007.027-.008.012-.003.016-.005.025-.007.006-.002.03-.01.008-.002.025-.007.021-.007.013-.005.035-.01.001-.001.035-.012.016-.005.022-.007.032-.01.007-.002.04-.013.01-.003.032-.01.027-.01.016-.005.043-.013.002-.001.043-.014.02-.006.026-.01c.803-.27 1.367-.452 2.007-.622-10.457-2.478-20.634-6.094-30.335-10.664zm31.695 11.039.123-.032-.013-.003-.057.017-.008.003-.045.015zm-80.54-9.954h-.001l.015.022z" clip-path="url(#clipPath16-3)" style="display:inline;fill:#e7e567;fill-opacity:1;fill-rule:evenodd;stroke:none" transform="matrix(.2578 0 0 -.2578 -46.873 136.613)"/><path d="M227.059 498.315a133.083 133.083 0 0 0 4.843 4.845l-.004-.005c2.02.19 3.63.353 4.4.427 6.203.6 19.021-.678 24.882-.65-.27-.112-.492-.274-.634-.501-.767-1.228-2.806 1.629-2.734-1.433a14.1 14.1 0 0 0-1.124.149l-.007.045c-.125 1.018-.986.843-1.43.19-.307-.178-.72-.436-1.273-.798a2.047 2.047 0 0 0-.501-.242l.034.012-1.083-.063c-1.101.192-2.123.957-3.033.215-.23-.187-.69-.482-1.222-.75.094.047.186.096.274.144a6.245 6.245 0 0 1-.348-.074 31.84 31.84 0 0 0-2.49-.527.69.69 0 0 1 .117-.068c-.202.093-.346.264-.403.539-2.28.79-.928-1.4-4.86-.597-1.085.221.118-.594-2.287-.104-.385.078-.792-.038-1.204-.22-1.767.023-3.467.023-5.23-.218-1.056-.145-2.673-.249-4.684-.316" clip-path="url(#clipPath18-0)" style="display:inline;fill:#b6bdce;fill-opacity:1;fill-rule:evenodd;stroke:none" transform="matrix(.2578 0 0 -.2578 -46.873 136.613)"/><path d="m227.567 457.38-.038-.03-.037-.032-.338-.275-.038-.03-.037-.032-.037-.03-.038-.031-.485-.4-.038-.031-.037-.03-.037-.032-.038-.03-.037-.031-.037-.032-.075-.061-.037-.031-.037-.031-.037-.031-.037-.031-.038-.031-.036-.03-.038-.032-.482-.404-.037-.031-.037-.031-.037-.031-.037-.032-.036-.03-.038-.032-.036-.031-.037-.031c-1.462.412-2.875.662-5.053.922-1.448.171-2.132-2.71-6.147-.89-.183.082-.436.083-.686.026-.11.109-.133.075-.133-.036-.382-.119-.732-.367-.799-.666-1.747-.61-2.106 1.248-2.116 1.254-1.49 1.094-1.797-.539-4.483 1.38-.988.705-2.167-.78-2.799-.78-3.123 0-2.866.391-3.32.712 1 2.036 2.003 3.999 2.998 5.88 4.86-1.875 10.622-3.36 14.99-4.457l.088-.022h.003l.087-.022.006-.001.087-.022.01-.002.087-.021.012-.003.088-.021.016-.004.087-.022.02-.004.086-.02.024-.006.085-.02.028-.008.083-.02.033-.007.082-.02.037-.008.08-.02.042-.008.079-.019.045-.01.076-.018.051-.012.074-.017.056-.012.071-.017.061-.014.068-.015.066-.015.065-.015.072-.016.062-.014.076-.018.06-.013.082-.018.055-.013.088-.02.05-.01.094-.022.048-.01.098-.023.044-.009.105-.023.039-.008.11-.025.035-.007.116-.026.031-.007.122-.027.026-.006.128-.027.022-.005.133-.03.017-.003.139-.03.012-.002.145-.032h.008l.15-.034h.002l.31-.066.005-.002.149-.03.011-.004.144-.03.017-.004.14-.03.021-.004.605-.126.042-.009.115-.024.047-.01.11-.022.051-.011.727-.148.076-.016.385-.076.089-.018.063-.012.093-.02.058-.01.097-.02.053-.01.1-.02.048-.01.406-.078.032-.006.116-.022.028-.005.118-.023.024-.004.263-.05.014-.003.266-.049h.005l.266-.049c.247.195.494.39.74.582l.04-.008h.006z" clip-path="url(#clipPath20-2)" style="display:inline;fill:#6b9966;fill-opacity:.992157;fill-rule:evenodd;stroke:none" transform="matrix(.2578 0 0 -.2578 -46.873 136.613)"/><path d="M383.937 504.215c6.98-3.583 14.63-7.425 23.55-10.92-1.964.68-6.18-1.039-8.401.058-1.311.065-2.51.139-3.481.217-2.466.198-3.91.638-6.55.304-1.277-.162-.116 1.278-1.5 1.56-2.821.578-8.404.705-10.914 1.535-4.98 1.646-19.8 2.542-19.861 2.512-4.096-2.042-12.492-.393-20.442-.377.008 1.282-.875 1.233-.964 1.089-.583-.986-.62-.41-.38-1.1-1.113-.02-2.1-.076-2.915-.18-.51.044-1.03-.134-1.457-.3-.331.155-.641.25-.934.3.06.893-1.047.322-.882.587.642 1.026-.034 1.342-.083 1.442-.6 1.21-1.457.297-1.46.29-.32-.937-.361.247-1.426-.684-.178-.156-.877-.009-.501-.879.141-.326-1.647-.24-1.767.015-.445.948-.738-.174-1.453.12-1.848.762-1.462.017-2.098.045-1.017.043-1.331-.374-1.493-.715-.307.238-.569.38-.797.458.182.35.594.65.602.671.576 1.36.042.926.07 1.818.072 2.245-1.424.292-1.378 1.363.042.99-2.63.54-3.296.54-.596 0-.274-.842-1.018-.905-2.827-.236-1.924-2.759-3.29-2.256-1.84.676-1.22-.726-1.588-.793-.224.127-.108.665-.726.479-.954-.424-2.18-.746-3.183-.4-.274 1.175-1.27 1.261-2.41 1.138.137.265.035.552-.474.854-.58.344-1.549-.388-2.942-.897-.122.066-.234.149-.331.253-.795.854-4.64.471-6.018.08-.63-.178-1.1-.338-1.443-.48a3.896 3.896 0 0 1-.425-.204 1.394 1.394 0 0 1-.257-.18c-.08-.077-.09-.12-.104-.133-.092-.007-.18-.009-.273-.011h.003c-.848-.025-1.445.066-1.48.455-.046.546-3.45.839-2.487-.832-.69-1.197-1.806-.176-2.011.815-1.094.226-3.703 1.492-2.251-1.023-.795-1.376-3.018.657-3.838-.035-.643-.541-.095 1.827-1.655 0-.916-1.072-.872 1.58-2.946 1.491-1.224-.052-3.913.182-4.601 1.135-.868 1.2-3.11-2.008-3.395.226-.01.074-.473.224-1.09.314l.09.016c6.667 1.357 16.674.87 24.26 1.804.3.037.575.074.833.11l-.079.038c4.148.641 14.05-.085 17.837-.013 1.024.02 9.12 1.065 9.716 1.22 2.008.52 5.79-2.489 5.882-2.456 1.513.548 5.267.072 7.034 1.262.226.152 4.826-.813 5.272 1.171.376.114 13.11-.302 15.805.974.612.29 2.96-1.345 6.097-.114.065.025 9.112-1.255 9.192-1.618.266-1.207 1.81-.216 4.632-.794 2.769-.566 4.725.726 8.266.001.816-.167 2.985-.33 5.607-.462" clip-path="url(#clipPath22-1)" style="display:inline;fill:#b6bdce;fill-opacity:1;fill-rule:evenodd;stroke:none" transform="matrix(.2578 0 0 -.2578 -46.873 136.613)"/><path d="M399.086 493.353c2.232-1.102 6.478.639 8.43-.067 1.675-.606 3.266-1.258 6.005-2.225-1.193-.281-2.891-.616-4.578-.926-1.686-.31-3.362-.597-4.51-.783a98.652 98.652 0 0 0-6.782-.857 105.004 105.004 0 0 0-6.585-.394l-.053-.002-.049-.001h-.004l-.052-.001-.045-.001h-.008l-.053-.002h-.041l-.011-.001-.053-.001-.037-.001h-.016l-.052-.001-.034-.001h-.02l-.052-.002h-.03l-.022-.001-.053-.001h-.026l-.027-.001-.052-.001h-.022l-.031-.001-.052-.001h-.018l-.035-.002h-.067l-.038-.002h-.063l-.043-.001-.052-.001h-.007l-.046-.001-.052-.001H389.697l-.052-.002h-.053l-.047-.001h-.005l-.053-.001h-.043l-.01-.001h-.052l-.04-.001h-.012l-.052-.001h-.053l-.052-.002h-.133l-.024-.001h-.077l-.028-.001h-.053l-.02-.001H388.737l-.036-.001h-.065l-.04-.001h-.104l-.052-.001h-.106l-.051-.001H387.709h.007c-.102.314-.556.687-1.464 1.1-.016.005-.897 2.784-3.224 1.258.122-2.046-4.32-2.784-3.461-.832 1.03 2.342-1.559 2.842-1.915 2.56-1.367-1.088-2.961.053-3.513-.483-3.232-3.146-5.582 1.746-7.124.75-1.615-1.045-5.25-1.347-4.727-.147 1.338 3.07-4.001 2.978-3.91 1.741.198-2.732-.901-1.639-.888-1.476l.008.119.004.114v.11l-.006.104-.009.099a1.148 1.148 0 0 1-.031.184l-.022.086-.025.08a1.584 1.584 0 0 1-.06.15 1.136 1.136 0 0 1-.074.132 1.007 1.007 0 0 1-.041.061c-.228.312-.575.462-.94.521l-.068.01h-.002l-.067.008h-.001l-.068.006h-.002l-.068.004h-.001l-.068.003h-.002l-.067.001h-.07l-.067-.002h-.002l-.065-.003h-.002l-.065-.004h-.002l-.063-.005h-.002l-.062-.006h-.002l-.062-.008h-.002l-.06-.008h-.002l-.058-.01h-.002a4.057 4.057 0 0 1-.59-.133l-.019-.006-.015-.005-.01-.004-.007-.003-.002-.002c-.487-2.743-1.461-1.442-1.21-.61.773 2.56-3.857 1.76-3.91 1.416-.208-1.398-2.256-.434-1.68.332.554.74-.237 1.699-1.656 1.504l-3.75.947c-.85.604-4.612.26-4.853.573-.672.874-1.342-.082-1.28.43.019.144.027.275.027.394 7.95-.015 16.346-1.665 20.442.377.06.03 14.88-.866 19.86-2.512 2.511-.83 8.094-.957 10.915-1.534 1.384-.283.223-1.723 1.5-1.561 2.64.334 4.084-.106 6.55-.304.971-.078 2.17-.152 3.48-.217zm-11.377-5.3zm-55.63 10.86c.814.104 1.802.16 2.915.18.047-.133.104-.315.17-.565a3.469 3.469 0 0 1-1.881-.21l-.102.012c-.333.39-.714.55-1.102.583" clip-path="url(#clipPath24-7)" style="display:inline;fill:#6b9966;fill-opacity:.992157;fill-rule:evenodd;stroke:none" transform="matrix(.2578 0 0 -.2578 -46.873 136.613)"/><path d="M228.748 488.762a355.658 355.658 0 0 1-5.196-.919c-2.18-.397-4.317-.786-6.276-1.089.665.873 1.77 2.306 2.502 3.222 2.03-.507 4.097-.917 5.06-1.272-.035.013 1.804-.011 3.91.058" clip-path="url(#clipPath28-20)" style="display:inline;fill:#e7e567;fill-opacity:1;fill-rule:evenodd;stroke:none" transform="matrix(.2578 0 0 -.2578 -46.873 136.613)"/><path d="m283.488 491.263.006.008.125-.009h.001l-.133.001zm-4.826 2.003v.002l.002.002v.002l.002.002v.001l.001.002.001.002.001.002.001.002.001.002.001.003.001.002.001.002.001.003.001.002.002.003v.002l.002.002.002.004.001.003.001.002.001.002.001.002.001.002.001.003.001.002.001.002.001.002.001.002.001.002.001.003.001.002.001.002.001.002.001.002.001.002.001.002.001.002.001.002.001.002.001.002.001.003.001.002.001.002.001.003.001.002.001.002.001.002v.002l.002.003v.002l.002.002v.002l.002.002v.002l.001.002.001.003.001.002.001.002.001.002.001.003.001.002.001.002.001.002c1.102 2.676-3.217.967-3.893.682-3.01-1.271-1.648 2.152-3.196 1.158-3.41-2.187-3.165.855-4.39-.422-2.726-2.842-.972 1.4-4.93-.623-4.248-2.174-1.822-.05-3.266-.074-1.9-.03-.612-1.745-1.693-1.063-4.467 2.827-4.085-1.522-4.528-.653-1.662 3.265-3.359-1.45-5.092-.237-1.265.885-4.768-.897-4.44-.141.493 1.13-.721 1.228-1.196 2.079-.514.92-2.377-1.66-2.946-.544-1.089 2.134-3.18-.716-3.63.633-.524 1.564-1.55.297-2.576.17-.015-.002-.166.279-.33.595l.008.004.007.004.007.005.007.004.007.005.007.004.007.005.014.01.007.004.007.004.007.005.007.005-.005-.003c1.004.4 2.822 1.128 3.169 1.334.167.099.338.094.598.264.773-.152 3.415 1.189 4.089.79.169-.1 5.414.757 5.664.935.369.263 5.686 1.046 5.953.936.127-.053.9-.025 1.902.041.183-.385.538-.776 1.14-1.132.787-.466 5.688.783 5.994-1.283.003-.019 1.066-.012.768.194 2.064-1.43 2.851.57 6.093-.09.549-.111.89.639 3.232.519 6.392-.326 4.288.136 6.862.417 2.232.243 2.908.176 5.189.641 1.085.221 6.761.508 9.451.416.473-.08.965-.154 1.464-.227.33-.188 1.555-.607 2.314-.313 2.284-.294 4.292-.524 4.74-.71 2.82-1.166 10.185-1.082 13.485-1.39.337-.07.67-.11.997-.131l.042-.008.11-.022.015-.002.12-.022.033-.005.123-.02.057-.01.12-.02.087-.014.112-.018.12-.02.1-.014.156-.024.081-.012.199-.03.059-.008.243-.036.031-.005.293-.042.308-.044.036-.005.29-.04.074-.011.265-.038.117-.016.238-.032.162-.023.207-.028.21-.029.171-.023.261-.035.133-.018.314-.042.091-.012.37-.05.047-.006.427-.056.436-.057.05-.007.395-.052.1-.013.354-.046.152-.02.309-.04.207-.026.26-.033.263-.034.211-.027.319-.04.16-.02.376-.048.108-.013.433-.055.055-.007.49-.061.494-.062.055-.007.44-.054.11-.013.386-.048.166-.02.332-.04.22-.027.276-.034.275-.033.22-.027.33-.039.164-.02.382-.045.11-.013.434-.052.054-.007.484-.056.48-.057.053-.006.423-.049.103-.011.365-.042.155-.018.307-.035.203-.023.252-.028.25-.028.197-.022.293-.032.145-.017.334-.036.095-.01.372-.04.046-.005.408-.043v-.001l.397-.041.043-.004.34-.036.084-.009.287-.029.121-.011.391-.039.188-.018.185-.017.143-.014.211-.019.1-.009.233-.02.063-.006.25-.02.03-.004.26-.02.24-.018.027-.002.196-.013.048-.003 8.78-.528 5.056-1.162 6.508-1.102a117.66 117.66 0 0 0 5.03-.818c-1.842.225-3.691.461-5.552.698-16.629 2.12-34.177 4.359-56.394.962-1.762-.27-3.517-.572-5.267-.906l-2.321-.463-.016-.002h-.008l-.008-.002-.016-.002h-.001l-.018-.002h-.008l-.01-.001h-.017l-.02-.002h-.103l-.021.002h-.023l-.02.002h-.003l-.022.002h-.01l-.015.001-.02.001h-.003l-.024.003h-.009l-.016.002-.02.002-.004.001-.025.002-.008.001-.018.002-.02.003h-.005l-.026.004h-.008l-.02.002-.02.003h-.005l-.027.005h-.008l-.02.004-.02.003h-.006l-.028.005h-.007l-.02.004-.021.003h-.007l-.028.006h-.006l-.022.004-.02.003h-.009l-.028.006h-.006l-.023.005-.02.003h-.01l-.028.006h-.005l-.024.004-.02.003-.009.002-.03.005-.004.001-.025.004-.02.003-.01.002-.029.005-.004.001-.026.005-.018.003-.011.002-.03.005h-.002l-.027.006-.018.003-.012.002-.03.005h-.002l-.027.005-.017.003-.013.002-.029.005h-.002l-.028.005-.016.003-.013.002-.03.005h-.001l-.028.006-.015.003-.014.002-.029.005-.029.005-.015.002-.014.002-.028.005c-.393.316.018 1.359-1.614.848-1.602-.5-4.972 2.882-8.233 2.067-.763-.19-.69-.795-1.447-.501-1.42.55-2.753.826-3.801.613zm-45.89 1.8.007.005-.005-.003-.003-.002zm.015.01.007.005h-.002l-.006-.005zm.014.01.007.004-.004-.003zm.095.063.007.005-.005-.003h-.003zm.052.036.007.005-.003-.002zm.007.005.003.002.005.003zm.098.068.008.005-.005-.004-.002-.002zm.039.028.008.005-.006-.004zm36.098 2.25h.002zm.002 0h.002zm.002 0h.002zm.002 0h.003zm.003 0h.002zm.002 0h.002zm.002 0h.003zm.003 0 .002-.001zm.002-.001h.002zm.01 0h.002-.002m.002 0h.002zm.002 0h.004-.005zm.035 0zm-.003 0h-.004.002m-.005 0h-.008.006m-.009 0H269.227 269.236zm-.018 0h-.002m2.473.57h.07l.01-.001h.02l.01-.001h.03l.01-.001h.01l.01-.001h.02l.01-.001h.011l.01-.001h.01l.011-.001h.01l.011-.001h.011l.01-.001h.01l.01-.001.01-.001.022-.001.01-.001h.011l.011-.001h.004l.007-.001h.011l.011-.001.065-.005h.011l.045-.005h.011l.011-.002h.012l.011-.001.01-.001h.002l.011-.001.012-.001.011-.001.012-.001.011-.001.012-.001.012-.001.011-.001.012-.001c-.267.015-.49.03-.682.041zm34.089-.555.01-.002zm.01-.002.012-.001zm.012-.001.01-.001zm.01-.001.011-.001zm.011-.001.01-.001zm.01-.001.012-.002zm.012-.002.011-.001zm.011-.001.01-.001zm.01-.001.011-.001zm.011-.001.011-.001h-.009l-.002.001zm.011-.001.011-.001zm.011-.001.011-.001zm.011-.001.01-.001zm.01-.001.012-.001zm.012-.001.01-.001zm.397-.045h.011l.01-.002-.018.002h-.003zm.022-.002h.011zm.011 0 .011-.002zm4.782-.33.332-.015h.004l-.336.015zm.336-.015zm18.731-2.157.282-.034-.144.017zm6.123-.703.22-.024m.094-.01.107-.011-.054.006m1.97-.2.217-.02m.949-.083.1-.008-.085.007-.015.002zm1.042-.072.08-.003m.587.007.004.001h-.004zm.04.015.001.001zm0 0-.001-.001m-.001 0v-.001m-.006-.003h-.002.002zm-.003 0v-.002m-.01-.002-.003-.001m-.003 0-.002-.001m0 0-.004-.001m-115.55 3.315c.353.381.705.758 1.06 1.13 2.01.067 3.627.17 4.683.316 1.763.241 3.463.24 5.23.218l-.046-.02-.019-.01-.027-.012-.038-.017-.008-.004-.046-.022-.012-.006-.034-.016-.03-.015-.016-.007-.045-.023-.046-.023-.025-.012-.021-.011-.046-.024-.046-.023-.017-.01-.029-.014-.046-.024-.046-.023-.091-.047-.046-.024-.045-.023-.046-.023-.091-.046-.045-.022-.046-.022-.045-.022-.045-.02-.045-.022-.045-.02-.045-.02-.045-.02-.044-.018-.045-.018h-.003l-.004-.002-.003-.002h-.003l-.003-.002h-.004l-.003-.002h-.003l-.003-.002h-.003l-.004-.002h-.003l-.003-.002-.004-.001-.004-.001-.003-.001-.003-.001-.01-.004-.004-.001-.003-.001-.003-.001-.003-.001-.006-.002-.004-.001-.003-.001-.007-.002-.003-.001-.004-.001-.007-.002-.003-.001-.003-.001-.003-.001-.006-.002-.005-.001-.003-.001-.003-.001-.003-.001-.013-.005-.004-.001-.003-.001-.003-.001h-.003l-.002-.002h-.001l-.003-.001-.003-.001-.003-.001-.003-.001-.003-.001-.003-.001-.003-.001-.003-.001-.003-.001h-.003l-.003-.002h-.003l-.002-.001-.003-.001-.003-.001h-.003l-.008-.003h-.003l-.003-.001-.002-.001-.003-.001h-.003l-.002-.001-.003-.001-.002-.001-.003-.001h-.003l-.003-.001-.002-.001-.003-.001-.003-.001h-.002l-.016-.006h-.002l-.003-.001h-.002l-.003-.002h-.002l-.003-.001h-.002l-.005-.002h-.003l-.005-.002h-.003l-.005-.001-.003-.001-.01-.003h-.005v-.001l-.003-.001h-.003l-.003-.001h-.003l-.003-.001-.003-.001-.01-.002h-.003l-.002-.001-.003-.001h-.003l-.002-.001h-.003l-.044-.01-.085-.015-.043-.006-.042-.004h-.002l-.038-.003h-.005l-.003-.001H234.9l-.004-.001H234.852l-.003-.001H234.788l-.03.003-.042.003-.04.005-.008.002-.03.005h-.003l-.04.008-.04.01-.007.002-.03.009h-.003l-.04.014-.047.018-.012.005-.044.02-.006.001-.009.004-.038.02-.006.003-.002.001-.043.026-.019.012-.044.03c-.669.476-3.534-.664-3.802-.72a8.81 8.81 0 0 1-.199-1.53c-.683-.195-1.26-.34-1.24.216.097 2.443-1.953 1.453-2.95 1.017zm19.61 2.114a31.84 31.84 0 0 1 2.49.527c.1.025.218.05.348.074l-.008-.004-.023-.013-.013-.007-.011-.006-.024-.013-.01-.006-.014-.007-.024-.013-.009-.004-.09-.046-.002-.001-.022-.012-.025-.012-.048-.024-.047-.024-.096-.046-.049-.023-.048-.022-.05-.023-.049-.022-.049-.021-.05-.022-.05-.021-.002-.001-.003-.001-.003-.001-.003-.001-.003-.001-.003-.001-.003-.001-.003-.001-.003-.001-.003-.001-.003-.001-.003-.001-.003-.001-.003-.001-.003-.002-.003-.001-.003-.001-.003-.001h-.003l-.003-.002h-.003l-.003-.002-.003-.002h-.003l-.003-.002h-.003l-.003-.002h-.003l-.003-.002h-.003l-.003-.003h-.003l-.003-.002h-.003l-.003-.002h-.003l-.003-.002-.003-.002h-.003l-.003-.002h-.003l-.003-.002h-.003l-.003-.002h-.003l-.003-.002h-.003l-.003-.002-.003-.002h-.003l-.003-.002h-.003l-.003-.002h-.003l-.003-.002-.003-.002h-.003l-.003-.001-.003-.001-.003-.001-.003-.001-.003-.001-.003-.001-.003-.001-.05-.02-.05-.018-.05-.018-.05-.017-.05-.017-.05-.017-.049-.016-.049-.015-.05-.014-.048-.014-.049-.014-.048-.012-.048-.012-.11-.025-.052-.01-.027-.005-.046-.008-.047-.007-.045-.007-.045-.005-.044-.005-.044-.004-.043-.002h-.001l-.042-.002-.042-.001h-.083l-.034.003h-.006l-.04.003-.038.004h-.006l-.027.005h-.006l-.013.003-.059.012h-.003l-.033.009-.035.01-.034.011-.033.013-.03.013h-.002v.001l-.01.005-.019.009-.002.001-.03.016-.004.002-.024.016h-.001l-.008.006-.017.012h-.002zm6.819.992 1.084.063-.004-.001-.008-.003-.006-.002-.002-.001-.008-.002-.008-.003-.018-.006-.017-.005-.034-.01-.017-.005-.017-.004-.018-.005-.017-.004-.017-.004-.017-.004-.018-.004-.034-.007-.017-.003-.017-.003-.017-.003-.034-.005-.017-.002-.017-.002-.035-.004-.017-.002-.017-.001-.017-.002-.017-.001-.016-.001-.018-.001-.017-.001h-.016l-.017-.001-.017-.001H252.809l-.03.001-.017.001h-.017l-.012.001h-.005l-.017.002h-.016l-.017.002h-.017l-.004.001-.012.001-.017.002-.016.002-.017.002-.014.002h-.004" clip-path="url(#clipPath30-3)" style="display:inline;fill:#9bc7a1;fill-opacity:1;fill-rule:evenodd;stroke:none" transform="matrix(.2578 0 0 -.2578 -46.873 136.613)"/><path d="m295.71 511.891.39.052c-6.157 1.443-12.397 2.599-18.858 2.972-7.514.433-15.339-.191-23.704-2.654 6.223-.853 10.44-.485 16.976-2.225 1.45-.386 7.52-.668 11.547-1.249 2.8.168 7.956 3.353 10.025 3.156a22.148 22.148 0 0 1 3.625-.052" clip-path="url(#clipPath34-5)" style="display:inline;fill:#e8e8e8;fill-opacity:1;fill-rule:evenodd;stroke:none" transform="matrix(.2578 0 0 -.2578 -46.873 136.613)"/><path d="m363.537 513.92-.037.014c-.318.122-.636.24-.953.356l-.285.104c-.346.124-.689.246-1.033.365l-.228.077-.882.295-.264.085c-.344.11-.688.218-1.033.322l-.24.072c-.296.088-.591.172-.888.255l-.27.076c-.346.095-.692.188-1.039.277l-.239.06c-.299.074-.597.145-.895.216l-.232.054a51.4 51.4 0 0 1-1.1.238l-.174.035c-.318.064-.637.125-.957.183l-.226.041c-.363.064-.727.124-1.092.18l-.23.033c-.323.048-.647.093-.972.135l-.18.022c-.372.047-.747.088-1.122.125l-.247.023c-.304.028-.61.053-.916.075l-.27.02c-.363.025-.725.044-1.09.06l-.3.01c-.305.012-.61.02-.918.025l-.26.005c-.374.004-.75.003-1.128-.004l-.263-.006a40.592 40.592 0 0 1-1.046-.033l-.16-.006a46.807 46.807 0 0 1-1.182-.072l-.274-.02c-.339-.028-.679-.058-1.021-.092l-.234-.023a46.997 46.997 0 0 1-1.186-.14l-.29-.04c-.35-.047-.704-.1-1.058-.155l-.213-.033a54.854 54.854 0 0 1-1.213-.213l-.313-.06c-.375-.072-.75-.149-1.128-.23l-.17-.036a55.51 55.51 0 0 1-1.247-.29l-.349-.085c-.396-.1-.793-.202-1.193-.31l-.09-.024-.052-.014c-.423-.117-.85-.24-1.277-.369l-.347-.104a69.536 69.536 0 0 1-1.224-.384l-.113-.036-.027-.009a77.176 77.176 0 0 1-1.358-.464l-.325-.115a77.15 77.15 0 0 1-1.402-.515c5.555 9.276 3.419 13.337-1.463 14.71-4.884 1.373-12.527.05-17.989-1.438-11.45-3.122-21.306-7.958-21.306-7.958 8.24 20.563-21.28 5.606-24.965 3.784-3.163-1.563-7.441-4.017-12.32-7.424l-.228-.16-.002-.002-.117-.082-.112-.078-.004-.003-.116-.082-.11-.078-.007-.005-.117-.083-.107-.077-.01-.007-.117-.084-.106-.075-.012-.01-.117-.084-.104-.074-.014-.01-.119-.086-.1-.073-.018-.012-.118-.086-.1-.073-.019-.013-.12-.087-.097-.07-.021-.017-.12-.087-.095-.07-.025-.018-.12-.087-.093-.07-.026-.019-.12-.089-.091-.067-.03-.021-.12-.09-.09-.066-.031-.024-.12-.09-.088-.065-.034-.026-.122-.09-.084-.064-.037-.027-.121-.092-.003-.002c4.245-.176 8.351-.36 10.07-.6l.112-.015c8.365 2.463 16.19 3.087 23.704 2.654 6.46-.373 12.7-1.528 18.858-2.971a34.096 34.096 0 0 0-.389-.052c4.09.27 6.45 1.433 11.852-1.128.966-.458 5.531 2.664 10.434.103 1.287-.672 10.374.776 11.356 1.242 1.497.713 12.37 1.71 14.139 1.349 6.224-1.273 7.6.045 11.559-.47 3.42-.444 6.187.612 8.485.933zm-120.26-1.104-.04-.03-.122-.093-.08-.06.15.113zm52.434-.925h-.007.007z" clip-path="url(#clipPath26-28)" style="display:inline;fill:#b1cce1;fill-opacity:1;fill-rule:evenodd;stroke:none" transform="matrix(.2578 0 0 -.2578 -46.873 136.613)"/><path d="M243.356 512.875c4.246-.176 8.352-.36 10.07-.599 6.285-.872 10.513-.49 17.088-2.24 1.45-.386 7.52-.668 11.548-1.249 2.8.168 7.955 3.353 10.024 3.156 6.694-.638 8.671 2.047 15.477-1.18.966-.458 5.531 2.664 10.434.104 1.288-.672 10.375.775 11.356 1.242 1.498.712 12.37 1.71 14.14 1.348 6.224-1.273 7.6.046 11.558-.469 3.421-.444 6.188.612 8.486.932 6.522-2.487 13.094-5.955 20.4-9.705-2.622.13-4.791.294-5.608.461-3.54.725-5.496-.567-8.265 0-2.822.577-4.367-.413-4.633.794-.08.362-9.127 1.643-9.192 1.618-3.136-1.232-5.484.402-6.096.113-2.695-1.276-15.429-.86-15.805-.973-.447-1.985-5.047-1.02-5.273-1.172-1.767-1.19-5.52-.714-7.033-1.262-.091-.033-3.874 2.977-5.882 2.456-.597-.155-8.692-1.2-9.717-1.22-3.785-.071-13.688.654-17.836.013l.079-.037a48.542 48.542 0 0 0-.833-.11c-7.586-.934-17.594-.448-24.26-1.805-3.46-.704-19.971 1.198-27.284.492-.77-.074-2.382-.238-4.401-.427l.005.005.179.17.08.076.104.098.157.148.027.026.184.172.049.045.503.47.016.014.168.155.091.084.259.237.017.016.183.168.06.053.124.114.133.12.05.046.466.42.083.073.364.326.069.06.114.102.143.126.039.035.474.416.071.062.182.158.004.003.177.155.078.067.103.089.153.132.028.024.18.155.047.039.134.115.12.102.06.052.18.153.014.011.166.14.089.075.09.077.162.136.018.015.18.15.055.046.124.103.129.107.05.042.178.148.024.019.154.128.098.08.08.066.17.139.007.007.179.145.065.053.112.091.138.112.215.174.034.027.143.115.106.085.07.057.176.14.002.001.174.139.074.058.101.081.147.115.029.023.174.138.043.034.131.102.115.09.06.047.174.136.011.009.162.125.083.065.488.375.12.092.123.094.05.038.17.13.022.016.15.114.092.07.079.06z" clip-path="url(#clipPath32-7)" style="display:inline;fill:#d7d5e2;fill-opacity:1;fill-rule:evenodd;stroke:none" transform="matrix(.2578 0 0 -.2578 -46.873 136.613)"/><path d="m256.212 476.089-.069-.035v-.001zM252.102 477.281h.01l-.01-.003z" style="display:inline;fill:#2c7943;fill-opacity:1;fill-rule:evenodd;stroke:none" transform="matrix(.2578 0 0 -.2578 -46.873 136.613)"/><path d="M221.264 482.674c-.792-.023-1.905-.496-3.135-1.778-.705-.736-3.787.093-4.733.403l-.02-.03-.02-.03-.02-.03-.02-.029-.02-.03-.02-.028v-.001l-.02-.03-.02-.03-.021-.03-.02-.03-.02-.031-.02-.03-.02-.03-.021-.031-.02-.03-.021-.03-.02-.031-.02-.031-.02-.03-.02-.03-.021-.03-.02-.032-.021-.032-.02-.03-.021-.032-.02-.03-.021-.031-.02-.03-.021-.032-.022-.032-.014-.019-.006-.012-.022-.03-.02-.033-.02-.03-.021-.033-.02-.03-.023-.033-.02-.03-.02-.033-.021-.03-.022-.033-.02-.032-.021-.03-.022-.033-.02-.032-.021-.032-.022-.032-.02-.031-.023-.032-.02-.033-.02-.032-.043-.066-.022-.032-.02-.032-.008-.01-.014-.022-.001-.003-.022-.033-.02-.032-.023-.034-.022-.032-.02-.032-.022-.034-.02-.032-.023-.032h.001c.13.198-.333-.513-.347-.535 1.632-.03 2.947-.08 3.668-.17 4.458-.548 7.844-.746 12.232-1.283.452-.056 1.364-.09 2.482-.114.057.036.118.065.178.098-1.011-.554-1.634-1.571-1.423-2.06-3.793 2.33-3.692.353-5.226-.558-3.54 2.315-4.02-1.367-4.308-1.275-5.773 1.83-3.234-2.67-7.018-1.32-2.92 1.04-4.485-1.056-5.331-1.064l-.06-.102a222.856 222.856 0 0 1-3.798-6.815l-.06-.113-.001-.004-.412-.771c4.86-1.876 10.622-3.363 14.991-4.46l.087-.021h.004l.086-.022.006-.001.088-.021.009-.003.088-.02.011-.003.088-.022.016-.004.087-.021.02-.004.087-.02.023-.006.085-.021.028-.007.083-.019.034-.009.082-.019.037-.009.08-.019.041-.009.08-.019.045-.01.076-.018.051-.012.074-.016.055-.013.072-.016.06-.015.069-.014.066-.016.064-.015.072-.016.062-.013.077-.018.059-.013.082-.02.056-.01.087-.021.052-.01.092-.023.048-.01.098-.022.044-.009.106-.025.038-.007.11-.025.036-.007.116-.025.03-.007.123-.026.026-.007.127-.026.022-.006.134-.03.017-.003.138-.03.013-.002.144-.032h.009l.15-.033h.002l.309-.066.006-.001.15-.031.01-.003.144-.031.017-.004.139-.03.022-.003.605-.126.04-.01.116-.023.047-.01.11-.022.051-.012.728-.148.075-.016.385-.076.09-.018.063-.011.092-.02.059-.01.096-.02.053-.01.101-.02.047-.01.406-.079.034-.006.114-.022.028-.006.12-.022.022-.004.265-.05.013-.003.267-.048h.004l.265-.05c.245.195.492.388.737.58l.042-.007h.006a163.596 163.596 0 0 0 6.136 4.751l-.02.004h-.004l-.016.003-.01.001-.027.003h-.006l-.022.001-.024.001h-.047l-.015-.002h-.034l-.025-.004h-.001l-.025-.003h-.027l-.014-.004h-.012l-.022-.003h-.006l-.027-.005-.03-.004h-.006l-.023-.003-.013-.003-.016-.003-.02-.003h-.011l-.028-.005h-.001l-.03-.006h-.005l-.028-.006h-.011l-.02-.002-.02-.003-.013-.003-.028-.004h-.004l-.035-.005h-.001l-.032-.006h-.01l-.025-.003-.02-.003-.015-.003-.027-.004h-.01l-.035-.004-.037-.004h-.009l-.03-.004h-.015l-.022-.003h-.027l-.011-.002h-.039l-.039-.004h-.006l-.035-.003h-.252l-.022.001-.022.001-.034.001-.012.001-.044.003-.045.004-.011.001-.036.004-.022.001-.024.003-.033.004-.016.003-.044.007h-.004l-.048.01h-.007l-.04.007-.02.004-.03.007-.032.007-.02.004-.043.01-.009.004-.05.013h-.005l-.047.014-.016.006-.036.01-.03.01-.025.008-.042.013-.012.006-.054.019c-.975.36 1.166 3.21-2.25 2.181-2.182-.658-.394.647-4.017.647-1.082 0-2.92-1.346-4.157 0-3.061 3.323-2.988.574-4.456 1.18-2.904 1.199-6.127-.668-6.747.448-.519.938-2.154.692-2.744.92 3.03.458 9.247 1.774 11.517 2.4.55.111 1.333.287 1.45.36l.004.003.037.01c.378.11 2.404 1.157 2.821 1.26.418.103.848.203 1.277.299.43.095.86.188 1.273.276.414.088.813.172 1.184.252.37.08.713.156 1.012.227.158.038.304.074.437.109h.004l.006.002H228c.113.03.063.016.153.043.125.039.84.114.919.15.461.145.694.344 1.781.531.12.02 1.5.267 1.499.3 3.296.264 5.948-.015 9.155.127.258.011.482.02.686.035v.003c.015-.002.396 0 .603.006.555.016 1.083.002 1.473.15.473.176.396.046.621.439.086.148 1.515.164 1.682.493.05.156.232.24.114.31h.003c-.007.005-.013.015-.02.021l.017-.016c2.11.45 4.516.832 7.267.714a29.4 29.4 0 0 1 2.293.01l.417.212h.003l.016.007.017.01.016.006.016.01.016.006.016.01.016.006.016.01.016.008.034.016.016.007.016.01.016.006.016.01.016.006.017.01.016.006.016.01.016.006.016.01.016.006.018.007.016.01.016.006.016.01.016.006.016.01.016.006.016.01.553.278a161.26 161.26 0 0 0 3.392 1.646l-.007.007-.003.003-.01.012v.001l-.01.01-.003.003-.007.01-.004.004-.007.007-.006.007-.004.004-.01.01-.012.014h-.001l-.01.01-.005.006-.009.006-.009.007-.004.004-.011.01h-.003l-.014.012v.001l-.014.01-.004.004-.01.007-.01.006-.005.006-.012.01-.003.002-.016.01v.001l-.016.01-.003.005-.013.007-.01.006-.006.006-.013.009h-.003l-.018.012-.018.01-.006.004-.013.01-.009.006-.01.004-.013.009-.004.003-.02.012-.02.011-.004.003-.016.01-.009.003-.011.006-.015.01-.006.002-.02.012h-.002l-.022.012h-.004l-.017.01-.01.006-.012.006-.016.007-.007.003-.022.01v.001l-.024.012h-.004l-.02.01-.01.006-.015.006-.016.006-.007.004-.051.023-.003.001-.024.01-.01.003-.016.007-.016.007-.01.004-.024.01-.004.001-.028.01-.003.002-.025.01-.009.003-.019.007-.017.006-.012.006-.025.01h-.004l-.03.012h-.002l-.028.01-.01.003-.02.01-.018.005-.014.004-.024.01-.007.001-.033.012-.031.01-.01.003-.023.01-.017.005-.017.004-.026.01-.007.002-.034.01c-.016.003-.897 2.66-3.224.813.122-2.029-4.321-3.38-3.461-1.31 1.03 2.485-1.559 2.627-1.915 2.295-1.367-1.276-2.96-.355-3.512-.967-3.233-3.592-5.583.975-7.124-.233-1.615-1.27-4.275-.777-3.751.497 1.337 3.255-4.001 2.425-3.91 1.2.198-2.704-.901-1.763-.888-1.599.226 2.634-2.837 1.218-2.84 1.201-.488-2.81-1.46-1.644-1.209-.777.773 2.668-3.858 1.226-3.91.876-.209-1.427-2.257-.746-1.681.1.467.69-.023 1.403-1.041 1.373zM315.64 504.085c-.747.01-1.581-.102-1.914-.102-.595 0-.274-.84-1.018-.903-2.826-.237-1.923-2.76-3.29-2.258-1.838.677-1.22-.724-1.588-.79-.223.126-.108.663-.726.477-.953-.424-2.179-.746-3.183-.4-.274 1.175-1.27 1.26-2.408 1.138.136.265.034.553-.475.854-.58.345-1.55-.389-2.943-.898a1.3 1.3 0 0 0-.331.255c-.795.854-4.64.47-6.018.08-1.517-.431-2.112-.751-2.23-.997-.985-.055-1.714.02-1.75.444-.045.546-3.448.838-2.485-.832-.69-1.197-1.806-.176-2.012.814-1.094.227-3.703 1.493-2.251-1.022-.795-1.377-3.018.656-3.838-.035-.644-.542-.094 1.827-1.654 0-.916-1.073-.872 1.58-2.947 1.491-1.224-.052-3.914.181-4.601 1.134-.868 1.2-3.109-2.007-3.394.227-.026.198-3.254.923-4.037-.331-.767-1.228-2.807 1.63-2.735-1.431-.32.027-.69.074-1.124.148l-.007.045c-.125 1.018-.985.843-1.43.189-.307-.177-.719-.435-1.272-.797a2.045 2.045 0 0 0-.501-.242l-.018-.006-.018-.006-.033-.009-.018-.006-.069-.017-.017-.003-.016-.004-.036-.007-.016-.003-.017-.003-.018-.003-.034-.004-.017-.003-.016-.001-.035-.004-.017-.001-.017-.001-.018-.001-.016-.001-.017-.001h-.017l-.017-.001-.016-.001h-.034l-.032-.001H252.809l-.064.004H252.727l-.05.004h-.02l-.03.005h-.015l-.018.002-.013.003h-.004l-.048.007h-.018l-.004.002-.076.011h-.003c-1.1.192-2.122.958-3.032.216-.23-.187-.69-.484-1.222-.752l-.047-.023-.013-.006-.035-.018-.097-.045-.03-.015-.018-.009-.049-.023-.013-.007-.035-.015-.05-.022-.05-.022-.03-.015-.018-.007-.05-.022a7.22 7.22 0 0 0-.199-.08l-.051-.018-.048-.019-.052-.019-.05-.016-.033-.012-.016-.006-.049-.016-.019-.006-.03-.01-.05-.015h-.001l-.047-.014-.035-.01-.015-.004-.048-.013-.02-.004-.029-.01-.048-.011-.108-.025-.053-.01-.028-.004-.045-.01h-.004l-.043-.005-.034-.006h-.011l-.044-.006-.02-.001-.026-.001-.044-.004-.004-.001-.038-.001-.042-.001-.042-.001H246.13l-.034.002h-.006l-.032.003h-.007l-.038.004h-.006l-.027.004-.019.003-.06.011-.003.001-.032.01-.036.008-.034.012-.032.013-.031.014h-.003c-.202.093-.347.264-.404.538-2.28.79-.927-1.398-4.86-.596-1.084.221.118-.594-2.287-.104-.385.078-.792-.038-1.205-.22l-.045-.02-.019-.01-.026-.011-.038-.018-.01-.004c-.586-.284-.671-.349-1.094-.54l-.045-.02-.043-.019-.039-.016-.007-.003-.043-.017a3.16 3.16 0 0 0-.22-.078h-.004a2.23 2.23 0 0 0-.172-.046l-.042-.01-.086-.015-.043-.006h-.003l-.04-.004-.039-.003h-.006c-.038-.002-.076-.004-.114-.003h-.019l-.03.003-.04.003h-.01l-.031.004-.007.003-.031.004h-.001l-.041.009h-.001l-.038.009h-.007l-.03.01h-.003l-.035.013h-.004l-.048.018-.01.004-.044.02-.007.002-.047.025-.006.003h-.001l-.043.026-.019.012-.045.029c-.668.476-3.533-.663-3.801-.718a8.822 8.822 0 0 1-.2-1.53c-.682-.196-1.26-.341-1.239.215.097 2.442-1.954 1.453-2.951 1.016l-.09-.095-.012-.013-.077-.085-.09-.097-.089-.096-.006-.006-.085-.093a129.148 129.148 0 0 1-5.773-6.724c2.03-.507 4.098-.918 5.06-1.273-.06.023 5.838-.073 8.585.458 2.558.496 22.239.73 25.665 1.136 2.53.298 9.981-.17 14.674.616 1.256-.128 2.594.035 2.717.05.048.006 11.874-.901 12.21-.97l.016-.004h.006l.01-.002.016-.004h.004l.02-.006h.005l.017-.005.015-.004.01-.003.025-.006.026-.009.012-.003.018-.004.023-.007h.007l.03-.01.006-.004.027-.006.02-.007.013-.006.036-.01.036-.012.015-.004.022-.007.032-.01.007-.001.04-.013.01-.003.032-.01.026-.01.017-.005.042-.013h.003l.043-.016.02-.006.025-.009a31.36 31.36 0 0 1 2.008-.622v-.001c.489.116.978.229 1.469.34 0 0-.02-.025 0 0l2.513.549c-.33-.054-1.046.099-1.656.203-.392.316.02 1.36-1.612.85-1.602-.501-4.973 2.88-8.234 2.065-.763-.19-.691-.794-1.448-.5-1.42.55-2.75.827-3.8.613v.001c.029.049.054.097.075.148 1.103 2.676-3.217.967-3.893.683-3.011-1.272-1.648 2.15-3.197 1.157-3.41-2.186-3.163.856-4.388-.42-2.726-2.843-.974 1.4-4.932-.625-4.247-2.173-1.821-.05-3.265-.073-1.9-.03-.611-1.745-1.692-1.063-4.468 2.827-4.087-1.522-4.53-.654-1.661 3.265-3.358-1.448-5.091-.236-1.265.885-4.768-.897-4.44-.142.493 1.13-.72 1.229-1.196 2.079-.513.92-2.377-1.659-2.946-.543-1.089 2.134-3.18-.716-3.63.632-.524 1.564-1.55.297-2.576.17-.015-.002-.167.28-.33.596.149.094.304.198.47.315.01.008 3.353 1.312 3.837 1.599.168.099.34.094.6.265.772-.152 3.414 1.187 4.087.788.17-.1 5.415.758 5.665.936.369.264 5.685 1.046 5.952.936.127-.053.9-.025 1.903.04.182-.384.538-.775 1.14-1.131.787-.466 5.687.783 5.993-1.284.003-.018 1.066-.011.768.195 2.065-1.43 2.852.57 6.094-.09l.025-.005c.534-.08.911.762 3.206.525 2.463-.133 3.78-.132 4.493-.068.265.053.505.118.773.185.281.204-.254.45 1.595.299 1.2.147 1.885.094 2.617.085.72.125 1.452.328 2.573.556 1.086.221 6.761.51 9.452.416.472-.078.964-.154 1.463-.227.329-.188 1.555-.607 2.314-.313 2.284-.294 4.292-.524 4.74-.71.109-.044.225-.087.346-.128h.001c.739-.25 1.707-.437 2.797-.579l.123-.016h.013c.229-.03.463-.056.702-.081l.143-.016.044-.004.538-.052.148-.013.295-.025.15-.012.451-.035.08-.006.071-.004.152-.01.02-.001.131-.009.113-.009.04-.001.152-.01.053-.003.1-.006.153-.01.152-.008.084-.006.069-.004.152-.01h.023l.13-.006.115-.006.037-.003.152-.007.054-.003.098-.006.755-.037.114-.006.332-.015h.004c1.709-.078 3.285-.138 4.398-.241.337-.07.668-.11.996-.13l.042-.01.11-.022.015-.003.12-.022.032-.004.125-.02.056-.01.121-.021.086-.013.113-.018.119-.019.1-.014.156-.025.08-.012.2-.03.059-.008.243-.037.032-.004.292-.042.309-.044.035-.004.29-.041.074-.01.266-.037.117-.016.237-.034.161-.022.208-.028.21-.03.171-.022.26-.034.134-.02.314-.042.092-.011.37-.049.046-.006.426-.057.437-.057.05-.007.395-.051.1-.013.354-.046.153-.02.309-.04.206-.026.26-.034.263-.034h.012l.199-.026.135-.016.184-.023.16-.021.333-.042.043-.004.107-.015.192-.024.242-.03.056-.007.489-.06v-.001l.247-.031.246-.03.056-.007.045-.006.349-.043.047-.006.051-.006.057-.007.193-.024.194-.023.155-.02h.01l.333-.041h.006l.214-.025.241-.031.034-.004.21-.025.065-.007.084-.01.281-.035.185-.022.079-.01.086-.01.26-.032.121-.013.11-.013.114-.013.32-.039.023-.003.032-.004.484-.057.164-.019.316-.036.02-.003.033-.003.302-.035.12-.015.104-.01.364-.043.07-.009.086-.009.307-.035.202-.022.252-.03.25-.026.197-.023.293-.032.416-.046.462-.05.068-.007.047-.004.408-.043 4.174-.37c.373-.016.594-.009.627.025 3.69-.358 6.19-.56 6.702-.524.97.07 2.684-.741 5.383-1.219 1.467-.26 3.578-.053 5.214-.398 3.664-.774 7.444-1.697 9.99-2.466 1.043-.118 2.085-.23 3.127-.337 2.093-.212 4.187-.397 6.287-.543 2.101-.145 4.21-.25 6.337-.305 1.023-.026 2.05-.04 3.08-.04h.008c-.101.314-.555.688-1.463 1.1-.017.006-.898 2.784-3.225 1.26.123-2.047-4.32-2.785-3.46-.833 1.03 2.342-1.56 2.842-1.916 2.56-1.367-1.088-2.96.053-3.512-.483-3.232-3.146-5.582 1.745-7.124.75-1.615-1.046-5.25-1.348-4.727-.148 1.338 3.07-4.002 2.98-3.911 1.742.198-2.732-.901-1.639-.888-1.477.226 2.603-2.837 1.61-2.839 1.593-.487-2.743-1.461-1.441-1.21-.61.773 2.561-3.857 1.76-3.91 1.417-.207-1.398-2.256-.436-1.68.33.553.741-.236 1.7-1.656 1.505l-3.75.947a1.4 1.4 0 0 1-.442.186 4.808 4.808 0 0 1-.64.114c-.238.028-.498.05-.764.064-.266.015-.54.024-.808.031l-.781.02c-.247.005-.479.01-.678.021-.2.01-.37.025-.497.047-.128.022-.213.052-.243.09-.672.874-1.342-.083-1.279.43.207 1.684-.844 1.643-.939 1.482-.696-1.176-.614-.124-.21-1.664a3.47 3.47 0 0 1-1.88-.21l-.103.013c-.77.902-1.807.577-2.559.282-.331.156-.64.25-.933.3.06.893-1.047.322-.882.587.642 1.026-.034 1.342-.083 1.442-.6 1.21-1.456.297-1.46.29-.32-.937-.362.247-1.426-.684-.179-.156-.877-.009-.501-.879.141-.326-1.646-.24-1.767.015-.445.948-.739-.175-1.454.12-1.848.762-1.462.018-2.098.046-1.017.043-1.33-.375-1.493-.717-.307.238-.568.383-.796.46.182.35.593.648.602.67.575 1.36.042.925.07 1.818.072 2.244-1.424.292-1.378 1.363.02.495-.637.63-1.383.64zM213.164 455.425c0 .11.023.144.133.036.25.057.503.055.686-.027 4.015-1.818 4.699 1.062 6.147.89 2.178-.259 3.591-.509 5.053-.921l-.465-.393c-19.904-16.954-35.213-38.313-42.892-61.36-.005.385.01.956.039 1.732 1.095 20.293 7.768 40.243 15.186 56.468l.01.023a216.15 216.15 0 0 0 2.585 5.453c.455-.322.197-.713 3.321-.713.632 0 1.811 1.485 2.799.78 2.686-1.919 2.993-.286 4.483-1.38.01-.007.369-1.863 2.116-1.254.067.3.417.547.799.666z" style="display:inline;fill:#2c7943;fill-opacity:1;fill-rule:evenodd;stroke:none" transform="matrix(.2578 0 0 -.2578 -46.873 136.613)"/></g></svg>