<svg width="912.473" height="132.782" viewBox="0 0 241.425 35.132" xmlns="http://www.w3.org/2000/svg"><defs><clipPath clipPathUnits="userSpaceOnUse" id="a"><path d="M-9-9h614v860H-9Z" clip-rule="evenodd"/></clipPath><clipPath clipPathUnits="userSpaceOnUse" id="b"><path d="M-9-9h614v860H-9Z" clip-rule="evenodd"/></clipPath><clipPath clipPathUnits="userSpaceOnUse" id="c"><path d="M-9-9h614v860H-9Z" clip-rule="evenodd"/></clipPath><clipPath clipPathUnits="userSpaceOnUse" id="d"><path d="M-9-9h614v860H-9Z" clip-rule="evenodd"/></clipPath><clipPath clipPathUnits="userSpaceOnUse" id="e"><path d="M-9-9h614v860H-9Z" clip-rule="evenodd"/></clipPath><clipPath clipPathUnits="userSpaceOnUse" id="f"><path d="M-9-9h614v860H-9Z" clip-rule="evenodd"/></clipPath><clipPath clipPathUnits="userSpaceOnUse" id="g"><path d="M-9-9h614v860H-9Z" clip-rule="evenodd"/></clipPath><clipPath clipPathUnits="userSpaceOnUse" id="h"><path d="M-9-9h614v860H-9Z" clip-rule="evenodd"/></clipPath><clipPath clipPathUnits="userSpaceOnUse" id="i"><path d="M-9-9h614v860H-9Z" clip-rule="evenodd"/></clipPath><clipPath clipPathUnits="userSpaceOnUse" id="j"><path d="M-9-9h614v860H-9Z" clip-rule="evenodd"/></clipPath><clipPath clipPathUnits="userSpaceOnUse" id="k"><path d="M-9-9h614v860H-9Z" clip-rule="evenodd"/></clipPath><clipPath clipPathUnits="userSpaceOnUse" id="l"><path d="M-9-9h614v860H-9Z" clip-rule="evenodd"/></clipPath><clipPath clipPathUnits="userSpaceOnUse" id="m"><path d="M-9-9h614v860H-9Z" clip-rule="evenodd"/></clipPath></defs><g style="display:inline"><path d="M188.943 399.185c22.054 55.655 77.54 84.885 120.804 89.458 45.004 4.757 70.164-11.545 104.822-.348 0 0-5.618-23.94-52.939-28.239.001 0-.328-25.546-45.892-27.593-35.949-1.954-48.686 6.844-80.76.786-24.643-4.655-40.797-21.967-46.035-34.064" style="fill:#4470a2;fill-opacity:1;fill-rule:evenodd;stroke:none" transform="matrix(.2578 0 0 -.2578 -46.873 136.613)" clip-path="url(#a)"/><path d="M188.943 399.185c4.987 12.585 11.685 23.818 19.564 33.72 31.121 8.76 73.439 15.003 103.437 16.927 13.357.856 24.28.858 30.687-.153 6.762-1.067 8.713-3.225 3.652-6.648-3.863-2.614-12.128-6.007-25.92-10.265-1.49-.128-3.026-.232-4.625-.304-35.949-1.953-48.686 6.845-80.76.787-24.643-4.655-40.797-21.967-46.035-34.064zm36.018 51.116a164.79 164.79 0 0 0 2.268 1.987 154.09 154.09 0 0 0 3.458 2.879 147.796 147.796 0 0 0 2.345 1.854 144.079 144.079 0 0 0 3.566 2.683 181.55 181.55 0 0 0 2.41 1.723 162.084 162.084 0 0 0 3.657 2.486 158.211 158.211 0 0 0 6.197 3.882 162.48 162.48 0 0 0 2.51 1.462l1.26.711.119-.011a5384.29 5384.29 0 0 1 13.955 3.303c16.22 3.853 30.762 7.309 39.605 8.847 10.954 1.906 20.922 3.336 26.048 3.323 1.373-.003 2.413-.111 3.04-.342.774-.283 1.017-.733.64-1.372-.289-.489-1.027-1.097-2.274-1.84-7.067-4.205-11.118-7.366-12.605-9.555-.78-1.147-.82-1.996-.198-2.556.678-.61 2.098-.94 4.173-1.004 6.444-.194 18.993 2.237 35.321 6.917l1.822.522c11.832 3.393 21.046 6.035 29.776 8.154 7.244.273 14.633 1.394 22.515 3.94 0 .001-1.681-7.16-10.946-14.353-1.307-.21-2.611-.423-3.916-.639-18.674-3.088-37.188-6.732-58.876-11.57-42.136-9.4-43.643-4.84-45.014-.686-1.398 4.232-2.65 8.021-53.352-6.014a1750.862 1750.862 0 0 0-17.504-4.731" style="fill:#4d7eb8;fill-opacity:1;fill-rule:evenodd;stroke:none" transform="matrix(.2578 0 0 -.2578 -46.873 136.613)" clip-path="url(#b)"/></g><g style="display:inline"><path style="display:inline;fill:#1a1a18 icc-color(ISO-Coated-v2-ECI,0,0,0,1);fill-opacity:1;fill-rule:evenodd;stroke:none" d="m237.864 477.11-.304.004a1.81 1.81 0 0 1-.578.544l.971-.01a1.78 1.78 0 0 1-.089-.54zM240.738 476.892l-.258.023c.064.227.064.436.016.622l.138-.013.01-.001.195-.019h.013l.191-.018.016-.002.06-.006c-.129-.185-.25-.393-.381-.587z" transform="matrix(.2578 0 0 -.2578 -46.873 136.613)"/><path style="display:inline;fill:#9bc7a1;fill-opacity:1;fill-rule:evenodd;stroke:none" d="m359.916 490.562-6.509 1.102-5.055 1.162-8.78.528-.048.003-.196.013-.026.002-.24.018h-.002l-.26.02-.03.003-.249.021-.063.005-.232.02-.101.01-.211.019-.143.014-.185.017-.188.018-.39.038-.122.012-.287.029-.084.009-.34.035-.044.004-.396.042-.408.043-.046.005-.372.04-.095.01-.334.037-.145.017-.293.032-.197.022-.25.028-.252.028-.203.023-.307.035-.155.018-.365.041-.104.012-.422.049-.053.006-.48.056-.484.057-.054.007-.435.051-.109.013-.382.046-.165.02-.329.039-.22.027-.275.032-.277.035-.22.026-.331.04-.166.02-.386.048-.11.014-.44.054-.055.007-.494.061-.49.062-.055.007-.434.054-.107.014-.376.048-.16.02-.319.04-.211.027-.263.034-.26.033-.207.026-.309.04-.153.02-.353.046-.1.013-.396.051-.05.007-.435.058-.428.056-.046.006-.37.05-.091.011-.314.042-.133.02-.26.034-.172.023-.21.029-.208.028-.161.022-.238.033-.117.016-.265.037-.074.011-.29.04-.036.005-.308.045-.293.042-.031.005-.243.036-.06.008-.198.03-.081.012-.157.024-.1.015-.119.019-.112.017-.087.014-.12.02-.057.01-.123.02-.033.006-.12.021-.014.002-.111.022-.042.008c-.328.021-.66.061-.997.131-3.3.309-10.666.225-13.485 1.39-.448.186-2.457.417-4.74.71-.759-.293-1.985.126-2.314.314-.5.073-.991.148-1.464.226-2.69.093-8.366-.194-9.451-.415-2.28-.465-2.958-.398-5.19-.642-2.573-.28-.469-.742-6.86-.416-2.342.12-2.684-.63-3.233-.52-3.242.66-4.029-1.34-6.094.09.299-.205-.765-.212-.767-.193-.306 2.066-5.207.817-5.994 1.283-.602.356-.957.747-1.14 1.132-1.003-.066-1.775-.094-1.902-.041-.267.11-5.584-.673-5.953-.937-.25-.177-5.496-1.035-5.664-.935-.674.4-3.144-1.112-3.918-.96-.26-.17-.45-.173-.567-.327-.382-.497-2.702-.997-3.3-1.457l-.005.01-.007.013-.007.013-.007.013-.101.194-.008.015-.023.044.007.004.007.004.007.005.007.004.007.005.007.004.007.005.007.005.007.005.007.005.007.004.007.005.007.005.006.004v.001l.008.005.004.002.004.002.007.005.006.004.008.005.007.005.003.002.005.003.007.005.006.004h.002l.007.006.003.002.004.003.007.005.006.004.001.001.007.005.007.005.007.005.006.004h.001l.007.006.007.005.007.005h.001l.006.004.009.006.007.005h.003l.005.004.007.004.005.005h.002l.007.006.007.005h.002l.006.004.007.005.004.003.003.002.003.002.005.003.007.005.007.005.009.005.003.003.004.003.008.005.006.006.009.005.008.005.007.005.007.005.008.005.007.005.002.002.005.004.001.001.006.004.009.006.008.006.007.005h.002l.006.005c.011.008 3.353 1.311 3.837 1.598.168.1.338.094.598.265.774-.152 3.416 1.188 4.09.789.168-.1 5.413.757 5.663.935.37.264 5.686 1.046 5.953.936.128-.052.9-.025 1.902.042.183-.385.538-.777 1.14-1.133.788-.466 5.688.784 5.994-1.283.003-.018 1.066-.012.768.195l.096-.065.094-.06.092-.055.091-.05.09-.046.087-.041.087-.038.085-.033.078-.027.006-.002.008-.002.075-.023.082-.022.08-.019.08-.015.077-.011h.003l.04-.006.039-.004h.002l.076-.006.077-.003h.078l.076.002.077.004.076.007.076.009.077.01.076.013.077.014.077.016.038.008.039.009.038.009.039.01.04.01.038.01.079.02.04.011.04.01.04.012.04.011.08.023.042.011.04.011.042.012.042.012.042.011.042.012.043.012.042.012.044.011.043.012.044.012.044.011.045.012.045.011.045.011.046.011.046.011.046.01.047.01.048.011.048.01.048.01.049.01.049.008.05.01.05.008.102.016.105.014.106.013.109.01.11.01.114.007.088.004h.029l.029.001.09.002h.121l.125-.003.127-.006.13-.01.134-.01.137-.016.14-.018.143-.021.146-.026.15-.029.013-.003.013-.002.013-.002H269.187l.01-.002h.068l.01.001c.428.035.851.59 2.408.57.193-.012.416-.027.685-.042l.114-.006.114-.007.11-.006.11-.006.108-.005h.035l.037-.003.035-.002h.006l.045-.002.153-.007h.004l.378-.017h.019l.053-.002.042-.002c1.61-.065 2.56-.053 3.128-.001.266.052.507.116.775.183a.26.26 0 0 1 .084.097l.005.01.004.01.001.002v.002l.002.002v.003l.002.002v.002l.002.003v.002l.001.002.001.002v.002l.002.002v.002l.001.002.001.003.001.002v.002l.002.003v.003l.002.002v.002l.001.002.001.002.002.007.001.002v.002l.002.002v.002l.001.002.001.002.001.002.001.002.001.002v.002h.001l.001.003.001.002.001.002.003.004v.002l.002.002.002.003v.002l.002.002v.002l.003.002.005.006.002.002.002.002.002.002.002.002.002.002.002.002.002.002v.001l.002.001.002.002v.001h.001l.002.003.003.002.002.002.003.002.002.002.002.002.003.002.002.002.002.001.004.003.003.002.003.002h.001l.002.002.003.002.003.002.003.002.004.001.003.002.003.002.003.002.004.001.003.002.004.001.003.001h.001l.004.001.004.002.004.001.002.001.002.001.004.002.005.001.005.001.005.001.005.002.005.001.005.001.004.001h.003l.013.004.022.005h.006l.017.004.024.004h.001l.053.006h.002l.03.003.028.002h.005l.034.003.037.002h.04l.027.001h.153l.05-.001.054-.002h.024l.033-.002.06-.002.063-.003.065-.003.069-.004.071-.005.075-.005.079-.006h.007l.16-.013c1.2.148 1.883.093 2.615.085.225.039.451.086.69.139l.036.008.036.008.037.008.011.003.025.006.037.008.013.003.024.006.037.008.015.003.023.004.037.01.016.003.022.004.039.01.017.003.021.005.04.01.018.004.02.005.04.009.02.005.02.005.04.009.023.005.018.004.04.009.025.006.016.004.042.009.042.01.042.01.028.006.015.003.043.01.044.01.043.01.033.007.012.003.045.01.034.007.01.002.046.01.037.008.009.002.047.01.038.01.008.002.048.01.048.01.048.01.044.01h.005l.05.011.05.01.05.011.05.01.002.001.051.01.052.011c1.086.221 6.762.508 9.452.416.472-.08.964-.154 1.464-.227.329-.188 1.555-.607 2.314-.313 2.283-.294 4.292-.525 4.74-.71l.005-.002.005-.002.005-.002.005-.002.005-.002.005-.002.005-.002.058-.022.005-.002.005-.002.006-.002.005-.002.005-.002.005-.002.005-.002.005-.002.006-.002.005-.002.005-.002.006-.002.005-.002.01-.004.006-.002.005-.002.006-.002.005-.002.005-.002.005-.002.006-.002.006-.002.005-.002.006-.002.005-.002.005-.002.005-.002.006-.002.005-.002.005-.002.006-.002.006-.002.006-.002.005-.002.006-.002.006-.002.006-.002.005-.002.006-.002.005-.002.006-.002.006-.002.006-.002.006-.002.006-.002.035-.012.106-.035.036-.01.037-.012.036-.011.038-.012.037-.01.004-.001.004-.001.004-.001.004-.001.004-.001.004-.001.004-.002.009-.002.004-.001.004-.001.004-.001.004-.001.004-.001.004-.001.004-.001.004-.001.004-.001h.004l.004-.003h.004l.004-.002h.004l.004-.002h.004l.004-.002h.004l.002-.001h.003l.004-.002h.004l.004-.002h.004l.005-.002h.004l.004-.002h.004l.003-.001h.002l.004-.002h.004l.004-.002h.004l.004-.002h.004l.004-.002h.005l.003-.002h.001l.004-.001.004-.001.004-.001h.005l.004-.003h.004l.004-.002.004-.002h.003l.006-.002.005-.002h.004l.005-.001.004-.002.004-.001.005-.001.004-.001h.005l.04-.011.04-.01.008-.002.007-.002.008-.002.008-.002.007-.002.003-.001.005-.001.008-.002.007-.002.008-.002.008-.002.005-.001h.003l.008-.002.007-.002.008-.002.008-.002.008-.002.008-.002.008-.002.008-.002.008-.002.008-.002h.002l.005-.002.008-.002.008-.002.008-.002.008-.002h.005l.002-.001.008-.002.008-.002.008-.002.008-.002.008-.002.008-.003.008-.002.008-.002.008-.002.008-.002h.007l.008-.003.008-.002.008-.002.008-.002h.005l.003-.001.008-.002.008-.001.008-.002.008-.002.008-.002.008-.002.008-.001.008-.002.008-.002.008-.002.002-.001.005-.001.008-.002.008-.001.008-.002.008-.002.006-.001h.003l.008-.003.008-.002.008-.002h.008l.008-.003.043-.009.045-.009.044-.009.044-.009.045-.009h.005l.005-.001.005-.001.005-.001h.005l.005-.002h.005l.005-.002h.005l.005-.001.005-.001.005-.001.005-.001.005-.001h.005l.005-.002h.005l.005-.002h.005l.005-.001.005-.001.005-.001h.005l.005-.002h.005l.005-.002h.007l.003-.001.005-.001.005-.001.005-.001h.005l.005-.002h.005l.005-.002h.008l.002-.001.005-.001.005-.001.005-.001h.005l.01-.003h.005l.005-.002h.006l.005-.001.01-.002.005-.001.005-.001.005-.001h.005l.005-.002h.004l.005-.002h.005l.005-.001.005-.001.005-.001h.005l.005-.002h.005l.005-.002.047-.008.047-.008.016-.003.017-.003.014-.002h.002l.016-.003.017-.003.012-.002h.005l.017-.003.017-.003.01-.001.007-.001.016-.003.017-.002.007-.002.01-.001.016-.002.017-.003.034-.005.016-.003h.002l.015-.003.017-.003.017-.003.034-.005.014-.002h.002l.017-.003.017-.003.086-.012.018-.003.104-.015h.003l.032-.005.017-.003.018-.002.017-.003.015-.002h.002l.018-.003.018-.002.012-.002h.005l.018-.003.018-.002h.01l.007-.002.018-.002.025-.003h.01l.018-.004.018-.002h.005l.013-.002.017-.003.018-.002h.003l.016-.002.017-.002.019-.002.017-.002.018-.002.018-.002.018-.003.014-.001.011-.001.01-.001.011-.002.011-.001.01-.001.012-.001.01-.001.011-.001.011-.001.01-.001.012-.002.01-.001.011-.001.011-.001.01-.001.012-.002.01-.001.011-.001.011-.001h.002l.01-.002h.01l.011-.002h.011l.011-.002h.01l.012-.002h.01l.012-.002h.01l.011-.002h.012l.01-.002h.011l.011-.002h.011l.011-.002h.011l.011-.002h.011l.011-.001.012-.001.01-.001.011-.001.011-.001.011-.001.012-.001.01-.001.012-.001.01-.001.012-.001.01-.001.012-.001.01-.001.012-.001.011-.001.011-.001.011-.001.011-.001.023-.002h.003l.02-.003h.01l.012-.002.143-.015.045-.005h.008l.008-.001.009-.001h.008l.009-.001.008-.001.008-.001.009-.001h.008l.009-.002h.008l.008-.001.009-.001.008-.001h.008l.008-.002h.008l.009-.001.008-.001.009-.001h.008l.008-.001.009-.001.008-.001h.008l.008-.001.008-.001.009-.001.009-.001h.008l.008-.002h.008l.009-.001.009-.001h.008l.009-.002h.008l.008-.001.009-.001h.008l.009-.001.008-.001.008-.001h.009l.008-.001.008-.001.009-.001.008-.001h.009l.008-.001.008-.001.009-.001h.008l.008-.002h.009l.008-.001h.008l.009-.002h.008l.009-.001.008-.001h.009l.008-.002h.009l.147-.014.297-.025.15-.012.45-.034.08-.006.072-.005.151-.01.02-.001.132-.01.112-.007.04-.002.152-.01.052-.003.253-.016.153-.009.084-.005.069-.004.152-.009h.023l.245-.014.037-.002.152-.008.054-.003h.015l.016-.001.015-.001.015-.001h.015l.016-.002h.016l.015-.001h.015l.016-.002h.015l.575-.029h.015l.045-.002.015-.001.015-.001h.02l.01-.001.015-.001.015-.001h.015l.015-.001.016-.001h.015l.014-.001.336-.016.08-.004.08-.004.08-.003.08-.003.078-.004.079-.004.078-.003.08-.004.077-.003.078-.003.232-.01.077-.003.076-.003.076-.003.077-.004.075-.003.075-.003.04-.002.035-.002.015-.001h.015l.016-.001.015-.001h.014v-.001h.016l.014-.002h.031l.012-.001h.002l.016-.001.015-.001h.015l.026-.002h.019l.03-.002h.014l.03-.002h.015l.03-.001h.009l.006-.001.03-.001h.014l.015-.002H313.482l.015-.002h.015l.015-.001h.007l.008-.001h.015l.014-.001h.015l.014-.002h.03l.014-.002h.015l.014-.001h.014l.015-.001.014-.001h.015l.014-.001h.003l.011-.001h.015l.014-.002h.014l.015-.001h.014l.015-.001.013-.001h.015l.014-.001h.001l.013-.001.015-.001h.013l.015-.001.014-.001.07-.004.024-.001.044-.002.068-.004.069-.003.2-.011.067-.004.065-.004.065-.004.065-.004.064-.004.126-.008.062-.004.062-.004.061-.004.06-.004.06-.004.06-.004.06-.004.057-.004h.006l.052-.005.057-.005.056-.004.057-.005.055-.005.054-.005.054-.005.053-.005.053-.005c.337-.069.669-.11.997-.13l.041-.008.111-.022.014-.003.12-.021.033-.005.124-.021.056-.01.121-.02.086-.014.113-.018.119-.019.1-.015.156-.024.082-.012.198-.03.06-.008.242-.036.032-.005.292-.042.309-.044.035-.005.29-.04.074-.01.266-.038.117-.016.238-.033.16-.022.208-.028.21-.029.172-.023.26-.035.133-.019.314-.042.091-.011.37-.05.047-.006.427-.056.436-.057.05-.007.396-.052.1-.013.353-.046.152-.02.31-.04.206-.026.26-.033.263-.034.212-.027.135-.017.183-.023.16-.02.333-.042.043-.005.108-.014.433-.055.055-.007.49-.06v-.001l.494-.061.055-.007.046-.006.348-.044.047-.006.051-.006.058-.007.193-.024.194-.023.155-.02h.01l.332-.04.007-.002.213-.025.276-.034.209-.025.066-.008.22-.027.33-.04.079-.01.085-.01.26-.03.122-.015.11-.013.113-.014.32-.037.023-.003.032-.004.484-.057.165-.02.315-.036.053-.006.302-.035.12-.014.105-.012.364-.042.071-.008.084-.009.307-.034.203-.023.252-.029.25-.027.197-.023.293-.032.136-.015.01-.001.159-.018.175-.018.094-.01.372-.04.047-.006.143-.015.264-.028.396-.042.384-.04.084-.007.287-.03.121-.01.391-.039.188-.018.034-.003.15-.014.144-.014.16-.014.05-.005.102-.01.063-.005.169-.015.038-.003.025-.002.25-.021.01-.001.02-.002.26-.02h.003l.172-.013.065-.005.027-.002.07-.005.153-.01.021-.001.121-.007.132-.007.083-.004-.588.052-.004-.003.592-.049c.373-.016.595-.009.628.025 3.69-.358 6.19-.562 6.702-.526.97.071 2.683-.74 5.382-1.218l.013-.002.012-.002.012-.002.012-.002.013-.002h.008l.004-.001.012-.002.012-.002.013-.002.012-.002.013-.002.003-.001.009-.001.012-.002.013-.002.013-.002.012-.002.012-.002.013-.002.013-.002.013-.002.013-.002.012-.002h.008l.005-.001.013-.002.013-.002.013-.002.013-.002.013-.001.003-.001.01-.001.013-.001.013-.002.013-.002.013-.001.011-.002h.001l.014-.002.013-.001.013-.001.013-.001.013-.001.007-.001h.006l.013-.003h.014l.013-.002h.013l.013-.002H354.247l.014-.002h.013l.013-.002h.014l.011-.002h.016l.013-.002h.014l.013-.002h.014l.007-.001.007-.001.014-.001h.013l.014-.002h.014l.013-.002h.014l.014-.002h.003l.049-.004.015-.001.063-.004h.001l.065-.004.066-.004.027-.002.039-.002.042-.002.024-.001.056-.003h.01l.067-.004h.004l.063-.003.02-.001.048-.002.034-.001.034-.001.048-.002h.02l.063-.003h.005l.069-.002h.01l.059-.002h.025l.044-.001.04-.001.085-.002h.014l.07-.003.07-.002h.015l.055-.001h.03l.04-.002h.046l.024-.001.062-.001h.009l.07-.002h.006l.065-.002.021-.001.05-.001h.036l.034-.002h.052l.019-.001.067-.002h.003l.071-.002.012-.001.06-.002.026-.001.044-.001.043-.002.028-.001.057-.002h.014l.07-.004h.002l.069-.003h.017l.054-.003.032-.001.038-.002.048-.003.022-.001.063-.004h.007l.07-.005h.008l.062-.004.023-.002.047-.003.038-.003.032-.002.052-.004.017-.001.067-.005h.002l.07-.007h.012l.056-.006.028-.002.04-.004.043-.004.025-.003.057-.006h.011l.068-.009h.004l.063-.008.018-.002.049-.007.032-.005.034-.005.007-.001.06-.009.06-.009h.006l.065-.011.01-.002.055-.01.023-.004.042-.008.037-.007.027-.005.05-.01.014-.003.063-.013.153-.032.02-.004.133-.029.038-.008.116-.025.056-.012.097-.02.075-.017.079-.017.094-.02.06-.013.112-.024.04-.01.132-.028.022-.005.15-.033h.003l.153-.034.016-.003.138-.03.034-.009.119-.026.053-.012.1-.022.071-.016.081-.018.09-.02.064-.015.108-.024.044-.01.127-.03.025-.005.146-.033.007-.001.152-.035.012-.002.14-.032.03-.007.12-.028.05-.011.1-.024.068-.015.083-.02.086-.02.065-.015.103-.024.047-.011.121-.029.028-.007.14-.033.008-.002.15-.035.008-.002.14-.033.026-.007.12-.029.046-.01.102-.025.062-.015.084-.02.08-.02.066-.016.098-.023.048-.012.114-.028.03-.007.132-.033.012-.003.144-.035.006-.001.137-.034.022-.006.12-.03.04-.01.101-.025.057-.014.084-.021.074-.02.065-.015.09-.023.05-.013.106-.027.032-.008.122-.032.015-.004.136-.035h.002l.134-.035.019-.005.116-.03.035-.009.099-.026.05-.013.082-.022.067-.017.065-.017.083-.022.049-.013.097-.026.032-.008.113-.03.016-.004.128-.035.127-.034.015-.004.11-.03.03-.008.095-.026.045-.013.08-.021.058-.017.064-.017.073-.02.048-.014.087-.025.032-.009.102-.028.017-.005.115-.033h.003l.015-.005.029-.009.014-.004.014-.004.014-.004.014-.004.014-.004c.263-.076.516-.15.759-.223-1.05.119-2.1.242-3.154.37l-.778.094c-1.311.247-2.951.52-5.027.818z" transform="matrix(.2578 0 0 -.2578 -46.873 136.613)"/><path style="display:inline;fill:#fbf5cd;fill-opacity:1;fill-rule:evenodd;stroke:none" d="M223.634 474.676c-3.539 2.315-4.018-1.368-4.307-1.277l-.232.072-.087.025-.17.049-.047.013-.176.046-.047.013-.013.003a8.28 8.28 0 0 1-.196.047l-.062.013-.149.032-.055.011-.159.03-.03.006-.185.029-.035.005-.13.017-.062.007-.12.011-.038.003-.149.01h-.046l-.105.003H216.89l-.046-.002-.104-.006h-.024l-.028-.004-.094-.01-.04-.005-.081-.012-.035-.006-.102-.02-.008-.001-.005-.001-.1-.026-.032-.009-.069-.021-.036-.013-.055-.02-.039-.015-.074-.032-.014-.006-.016-.008-.063-.032-.024-.012-.058-.033-.024-.015-.005-.003-.062-.04-.006-.004-.01-.007-.057-.04-.027-.021-.036-.028-.03-.024-.005-.005-.053-.046-.002-.001-.01-.011-.051-.048-.012-.011-.043-.044-.012-.012-.016-.018-.044-.048-.002-.002-.044-.05-.011-.014-.031-.038-.024-.03-.017-.021-.036-.046-.005-.006-.04-.052-.008-.01-.031-.043-.02-.026-.019-.026-.03-.042-.008-.01-.037-.052-.005-.007-.033-.045-.017-.022-.021-.028-.028-.038-.01-.013-.039-.049-.002-.003-.036-.046-.015-.017-.008-.009-.033-.039-.01-.012-.014-.015-.04-.044-.002-.001-.042-.044-.032-.03-.028-.026-.017-.015-.039-.033-.015-.013-.005-.003-.048-.036-.003-.002-.025-.017-.035-.023-.032-.02-.03-.016-.028-.017-.004-.002-.057-.027c-.271-.033-.543-.07-.815-.108l-.013.001-.04.004-.013.001-.013.002-.014.002-.013.002-.014.002-.069.011-.014.002-.014.002-.005.001-.009.002a4.124 4.124 0 0 0-.117.023l-.013.003h-.001l-.015.003-.12.03h-.004l-.007.001-.009.003-.016.004-.114.032-.016.005h-.001l-.154.048-.008.003-.01.003-.163.055-.136.047-.134.042-.132.038-.13.033-.128.03-.126.025-.124.021-.123.018-.12.014-.119.01-.117.008-.115.004h-.113l-.111-.001-.11-.005-.108-.008-.106-.011-.104-.014-.103-.015-.1-.018-.1-.02-.097-.023-.096-.024-.094-.027-.093-.027-.091-.03-.09-.03v-.001l-.087-.032-.086-.034-.085-.034-.083-.036-.082-.037-.08-.037-.078-.038-.077-.039-.076-.039-.074-.039-.073-.04-.07-.039h-.001l-.07-.04-.068-.038-.067-.04-.066-.038-.064-.038-.063-.037-.062-.036-.06-.036-.059-.035-.058-.033-.056-.032-.056-.031-.053-.03-.053-.027-.052-.026-.05-.024-.049-.022-.048-.02-.047-.018-.046-.015-.044-.013-.043-.01-.043-.008-.041-.005-.04-.002a220.077 220.077 0 0 0 4.743 7.743l.076-.001.076-.002.075-.001.075-.001.074-.002.074-.002.074-.002.073-.002.072-.002.072-.001.071-.002.07-.002h.001l.07-.002.07-.002.069-.002.068-.002.068-.002.068-.002.067-.002.066-.002.065-.002.066-.002.064-.002.064-.002.063-.002.063-.002.062-.002.06-.002h.001l.06-.003.06-.002.06-.003.059-.002.058-.003.058-.003.056-.003.056-.003.055-.003.055-.003.054-.003.053-.003.053-.003.051-.003.052-.003.05-.003.05-.003.048-.003.048-.003.048-.003.046-.003.046-.003.045-.003.044-.004.043-.003.043-.004.042-.004.04-.004.04-.003.04-.004.039-.004.037-.004.037-.004.036-.004.035-.004.034-.004c4.458-.549 7.843-.746 12.231-1.283.453-.056 1.365-.091 2.483-.115-.904-.57-1.44-1.5-1.242-1.958-3.793 2.329-3.692.353-5.227-.558" transform="matrix(.2578 0 0 -.2578 -46.873 136.613)"/><path style="display:inline;fill:#fbf5cd icc-color(ISO-Coated-v2-ECI,0,0,.25099182,.03138733);fill-opacity:1;fill-rule:evenodd;stroke:none" d="M237.56 477.115h.008l.058-.001h.01l.048-.001.028-.001h.028l.045-.001h.01l.055-.001H237.863c-.004-.2.017-.424.07-.673a3.643 3.643 0 0 1-.374.678zM234.213 476.387c-.188.26-.393.447-.61.574a3.87 3.87 0 0 1-.263.19h.02l.084-.001H233.561l.062-.001h.054l.034-.001H233.8l.088-.001h.022l.065-.001h.087l.079-.001h.009l.086-.001H234.41l.074-.001h.011l.086-.001H234.666l.043-.001h.041l.071-.001h.085a4.578 4.578 0 0 1-.692-.753zM240.48 476.915l.136-.012h.007l.115-.011c-.165-.244-.344-.467-.569-.593.156.217.257.423.311.616zM211.809 478.895l-.008-.013zM211.818 478.908l-.01-.013zM211.827 478.922l-.01-.014zM211.888 479.017l-.005-.009-.01-.015-.01-.015-.01-.014-.01-.014-.008-.015-.01-.014.062.096z" transform="matrix(.2578 0 0 -.2578 -46.873 136.613)"/><path d="M246.683 475.375c2.11.45 4.517.832 7.27.714a29.331 29.331 0 0 1 2.291.01l-1.06-.55-.049-.024-.065-.034-.108-.057-1.034-.546-.068-.036-.196-.106-.558-.301-.502-.27-.039-.022-1.093-.601-.009-.005-.003-.002-1.075-.603-.116-.066-.079-.044-1.047-.6-.06-.033-.142-.083-.718-.418-.319-.187-.04-.024-.05-.03-1.02-.605-.063-.038-.024-.014-.98-.593-.163-.099-.19-.118-.707-.435-.108-.067-.155-.096-.08-.05-.01-.006-.702-.44-.242-.153-.117-.074-.003-.002-.339-.216-.349-.223-.323-.208-.025-.016-.262-.17-.08-.051-.344-.224-.703-.46-.793-.526-.013-.01-.23-.152-.174-.118-.168-.113-.343-.232-.215-.145-.187-.126-.106-.074-.518-.355-.32-.22-.02-.014-.01-.007-.273-.19-.692-.483-.01-.007-.371-.262-.24-.17-.098-.069-.336-.24-.04-.028-.605-.434-.025-.019-.336-.243-.096-.07-.051-.037c-.252-.183-.502-.366-.752-.55l-.1-.074c-.437.092-1.193-.35-2.366.083-.974.36 1.166 3.21-2.25 2.181-2.182-.658-.394.647-4.016.647-1.082 0-2.92-1.346-4.157 0-3.062 3.322-2.988.574-4.456 1.18-2.903 1.199-6.128-.67-6.748.447-.524.946-2.196.68-2.772.917 3.02.454 9.272 1.778 11.55 2.406.55.11 1.332.286 1.449.36l.004.003.037.01c.378.11 2.403 1.156 2.82 1.26.418.102.85.203 1.279.299.43.096.858.188 1.272.276.414.088.814.172 1.184.252.37.08.713.156 1.012.227.158.038.304.074.436.11h.004l.007.002.005.001c.113.03.064.015.154.043.125.038.84.113.919.149.461.145.694.345 1.781.532.12.02 1.5.267 1.5.3 3.296.264 5.947-.016 9.154.126.258.012.482.02.685.035.015-.002.397 0 .604.006.555.016 1.083.002 1.473.15.473.176.396.047.621.44.085.147 1.515.162 1.682.492l.002.007.003.007.003.007c.06.141.218.221.106.287zm-39.965-7.414.112.008.125.011.138.014.148.017.16.02-.11-.015-.05-.006-.083-.01-.065-.007-.058-.006-.08-.008-.035-.003-.09-.008h-.016l-.096-.007zm.854.091.18.026.19.027.2.03.209.033.217.035.225.037-.178-.03-.047-.007-.142-.023-.075-.012-.108-.017-.1-.016-.076-.011-.124-.02-.046-.006-.145-.02-.173-.025-.007-.001zm1.693.27.246.042.253.045.258.047.263.049-.197-.037-.066-.012-.158-.029-.1-.018-.12-.021-.133-.024-.083-.015zm1.288.233.273.051.277.053.28.054-.123-.024-.157-.03-.083-.016-.194-.037-.044-.008-.229-.043zm1.113.213.285.056.288.057-.243-.049-.045-.008-.203-.04-.082-.016zm.863.171.29.059-.075-.016zm.875.178.291.06.292.061-.236-.05-.056-.01-.195-.041zm.873.182.29.061-.064-.013zm.862.184.282.061-.179-.039zm1.374.302.261.06-.119-.028zm.517.118.25.057-.182-.042zm.495.114.237.056.092.021-.092-.021-.034-.008-.203-.048zm2.798.755.006.003zm.006.003.005.003zm.005.003.005.002-.005-.002z" style="display:inline;fill:#d4d38b;fill-opacity:1;fill-rule:evenodd;stroke:none" transform="matrix(.2578 0 0 -.2578 -46.873 136.613)" clip-path="url(#c)"/><path d="M261.094 478.484c-.195.244-.632.49-1.364.722-.016.003-.896 2.66-3.223.813.122-2.03-4.321-3.38-3.461-1.31 1.03 2.484-1.56 2.627-1.915 2.295-1.367-1.276-2.962-.356-3.514-.968-3.232-3.592-5.582.975-7.123-.233-1.615-1.27-4.274-.776-3.75.497 1.337 3.255-4.002 2.425-3.91 1.2.197-2.704-.902-1.762-.888-1.598.226 2.633-2.838 1.218-2.84 1.2-.488-2.81-1.462-1.643-1.21-.777.773 2.668-3.857 1.227-3.91.876-.208-1.426-2.256-.745-1.68.1.83 1.227-1.364 2.525-4.176-.405-.706-.737-3.788.093-4.734.402a128.086 128.086 0 0 0 3.88 5.456c1.959.303 4.096.693 6.276 1.09 1.728.314 3.483.633 5.194.918 1.652.055 3.469.167 4.676.4 1.086.21 5.252.374 9.951.523 5.512.036 11.409.343 17.326.652l1.451.076c3.375.02 8.215-.068 11.61.501h.003c1.256-.128 2.592.036 2.715.05.048.007 11.874-.902 12.21-.97l.016-.003.007-.002.01-.002.015-.004h.004l.022-.007h.004l.018-.005.014-.004.01-.002.025-.007.027-.008.012-.003.016-.005.025-.007.006-.002.03-.01.008-.002.025-.007.021-.007.013-.005.035-.01.001-.001.035-.012.016-.005.022-.007.032-.01.007-.002.04-.013.01-.003.032-.01.027-.01.016-.005.043-.013.002-.001.043-.014.02-.006.026-.01c.803-.27 1.367-.452 2.007-.622-10.457-2.478-20.634-6.094-30.335-10.664zm31.695 11.039.123-.032-.013-.003-.057.017-.008.003-.045.015zm-80.54-9.954h-.001l.015.022z" style="display:inline;fill:#e7e567;fill-opacity:1;fill-rule:evenodd;stroke:none" transform="matrix(.2578 0 0 -.2578 -46.873 136.613)" clip-path="url(#d)"/><path d="M227.059 498.315a133.083 133.083 0 0 0 4.843 4.845l-.004-.005c2.02.19 3.63.353 4.4.427 6.203.6 19.021-.678 24.882-.65-.27-.112-.492-.274-.634-.501-.767-1.228-2.806 1.629-2.734-1.433a14.1 14.1 0 0 0-1.124.149l-.007.045c-.125 1.018-.986.843-1.43.19-.307-.178-.72-.436-1.273-.798a2.047 2.047 0 0 0-.501-.242l.034.012-1.083-.063c-1.101.192-2.123.957-3.033.215-.23-.187-.69-.482-1.222-.75.094.047.186.096.274.144a6.245 6.245 0 0 1-.348-.074 31.84 31.84 0 0 0-2.49-.527.69.69 0 0 1 .117-.068c-.202.093-.346.264-.403.539-2.28.79-.928-1.4-4.86-.597-1.085.221.118-.594-2.287-.104-.385.078-.792-.038-1.204-.22-1.767.023-3.467.023-5.23-.218-1.056-.145-2.673-.249-4.684-.316" style="display:inline;fill:#b6bdce;fill-opacity:1;fill-rule:evenodd;stroke:none" transform="matrix(.2578 0 0 -.2578 -46.873 136.613)" clip-path="url(#e)"/><path d="m227.567 457.38-.038-.03-.037-.032-.338-.275-.038-.03-.037-.032-.037-.03-.038-.031-.485-.4-.038-.031-.037-.03-.037-.032-.038-.03-.037-.031-.037-.032-.075-.061-.037-.031-.037-.031-.037-.031-.037-.031-.038-.031-.036-.03-.038-.032-.482-.404-.037-.031-.037-.031-.037-.031-.037-.032-.036-.03-.038-.032-.036-.031-.037-.031c-1.462.412-2.875.662-5.053.922-1.448.171-2.132-2.71-6.147-.89-.183.082-.436.083-.686.026-.11.109-.133.075-.133-.036-.382-.119-.732-.367-.799-.666-1.747-.61-2.106 1.248-2.116 1.254-1.49 1.094-1.797-.539-4.483 1.38-.988.705-2.167-.78-2.799-.78-3.123 0-2.866.391-3.32.712 1 2.036 2.003 3.999 2.998 5.88 4.86-1.875 10.622-3.36 14.99-4.457l.088-.022h.003l.087-.022.006-.001.087-.022.01-.002.087-.021.012-.003.088-.021.016-.004.087-.022.02-.004.086-.02.024-.006.085-.02.028-.008.083-.02.033-.007.082-.02.037-.008.08-.02.042-.008.079-.019.045-.01.076-.018.051-.012.074-.017.056-.012.071-.017.061-.014.068-.015.066-.015.065-.015.072-.016.062-.014.076-.018.06-.013.082-.018.055-.013.088-.02.05-.01.094-.022.048-.01.098-.023.044-.009.105-.023.039-.008.11-.025.035-.007.116-.026.031-.007.122-.027.026-.006.128-.027.022-.005.133-.03.017-.003.139-.03.012-.002.145-.032h.008l.15-.034h.002l.31-.066.005-.002.149-.03.011-.004.144-.03.017-.004.14-.03.021-.004.605-.126.042-.009.115-.024.047-.01.11-.022.051-.011.727-.148.076-.016.385-.076.089-.018.063-.012.093-.02.058-.01.097-.02.053-.01.1-.02.048-.01.406-.078.032-.006.116-.022.028-.005.118-.023.024-.004.263-.05.014-.003.266-.049h.005l.266-.049c.247.195.494.39.74.582l.04-.008h.006z" style="display:inline;fill:#6b9966;fill-opacity:.992157;fill-rule:evenodd;stroke:none" transform="matrix(.2578 0 0 -.2578 -46.873 136.613)" clip-path="url(#f)"/><path d="M383.937 504.215c6.98-3.583 14.63-7.425 23.55-10.92-1.964.68-6.18-1.039-8.401.058-1.311.065-2.51.139-3.481.217-2.466.198-3.91.638-6.55.304-1.277-.162-.116 1.278-1.5 1.56-2.821.578-8.404.705-10.914 1.535-4.98 1.646-19.8 2.542-19.861 2.512-4.096-2.042-12.492-.393-20.442-.377.008 1.282-.875 1.233-.964 1.089-.583-.986-.62-.41-.38-1.1-1.113-.02-2.1-.076-2.915-.18-.51.044-1.03-.134-1.457-.3-.331.155-.641.25-.934.3.06.893-1.047.322-.882.587.642 1.026-.034 1.342-.083 1.442-.6 1.21-1.457.297-1.46.29-.32-.937-.361.247-1.426-.684-.178-.156-.877-.009-.501-.879.141-.326-1.647-.24-1.767.015-.445.948-.738-.174-1.453.12-1.848.762-1.462.017-2.098.045-1.017.043-1.331-.374-1.493-.715-.307.238-.569.38-.797.458.182.35.594.65.602.671.576 1.36.042.926.07 1.818.072 2.245-1.424.292-1.378 1.363.042.99-2.63.54-3.296.54-.596 0-.274-.842-1.018-.905-2.827-.236-1.924-2.759-3.29-2.256-1.84.676-1.22-.726-1.588-.793-.224.127-.108.665-.726.479-.954-.424-2.18-.746-3.183-.4-.274 1.175-1.27 1.261-2.41 1.138.137.265.035.552-.474.854-.58.344-1.549-.388-2.942-.897-.122.066-.234.149-.331.253-.795.854-4.64.471-6.018.08-.63-.178-1.1-.338-1.443-.48a3.896 3.896 0 0 1-.425-.204 1.394 1.394 0 0 1-.257-.18c-.08-.077-.09-.12-.104-.133-.092-.007-.18-.009-.273-.011h.003c-.848-.025-1.445.066-1.48.455-.046.546-3.45.839-2.487-.832-.69-1.197-1.806-.176-2.011.815-1.094.226-3.703 1.492-2.251-1.023-.795-1.376-3.018.657-3.838-.035-.643-.541-.095 1.827-1.655 0-.916-1.072-.872 1.58-2.946 1.491-1.224-.052-3.913.182-4.601 1.135-.868 1.2-3.11-2.008-3.395.226-.01.074-.473.224-1.09.314l.09.016c6.667 1.357 16.674.87 24.26 1.804.3.037.575.074.833.11l-.079.038c4.148.641 14.05-.085 17.837-.013 1.024.02 9.12 1.065 9.716 1.22 2.008.52 5.79-2.489 5.882-2.456 1.513.548 5.267.072 7.034 1.262.226.152 4.826-.813 5.272 1.171.376.114 13.11-.302 15.805.974.612.29 2.96-1.345 6.097-.114.065.025 9.112-1.255 9.192-1.618.266-1.207 1.81-.216 4.632-.794 2.769-.566 4.725.726 8.266.001.816-.167 2.985-.33 5.607-.462" style="display:inline;fill:#b6bdce;fill-opacity:1;fill-rule:evenodd;stroke:none" transform="matrix(.2578 0 0 -.2578 -46.873 136.613)" clip-path="url(#g)"/><path d="M399.086 493.353c2.232-1.102 6.478.639 8.43-.067 1.675-.606 3.266-1.258 6.005-2.225-1.193-.281-2.891-.616-4.578-.926-1.686-.31-3.362-.597-4.51-.783a98.652 98.652 0 0 0-6.782-.857 105.004 105.004 0 0 0-6.585-.394l-.053-.002-.049-.001h-.004l-.052-.001-.045-.001h-.008l-.053-.002h-.041l-.011-.001-.053-.001-.037-.001h-.016l-.052-.001-.034-.001h-.02l-.052-.002h-.03l-.022-.001-.053-.001h-.026l-.027-.001-.052-.001h-.022l-.031-.001-.052-.001h-.018l-.035-.002h-.067l-.038-.002h-.063l-.043-.001-.052-.001h-.007l-.046-.001-.052-.001H389.697l-.052-.002h-.053l-.047-.001h-.005l-.053-.001h-.043l-.01-.001h-.052l-.04-.001h-.012l-.052-.001h-.053l-.052-.002h-.133l-.024-.001h-.077l-.028-.001h-.053l-.02-.001H388.737l-.036-.001h-.065l-.04-.001h-.104l-.052-.001h-.106l-.051-.001H387.709h.007c-.102.314-.556.687-1.464 1.1-.016.005-.897 2.784-3.224 1.258.122-2.046-4.32-2.784-3.461-.832 1.03 2.342-1.559 2.842-1.915 2.56-1.367-1.088-2.961.053-3.513-.483-3.232-3.146-5.582 1.746-7.124.75-1.615-1.045-5.25-1.347-4.727-.147 1.338 3.07-4.001 2.978-3.91 1.741.198-2.732-.901-1.639-.888-1.476l.008.119.004.114v.11l-.006.104-.009.099a1.148 1.148 0 0 1-.031.184l-.022.086-.025.08a1.584 1.584 0 0 1-.06.15 1.136 1.136 0 0 1-.074.132 1.007 1.007 0 0 1-.041.061c-.228.312-.575.462-.94.521l-.068.01h-.002l-.067.008h-.001l-.068.006h-.002l-.068.004h-.001l-.068.003h-.002l-.067.001h-.07l-.067-.002h-.002l-.065-.003h-.002l-.065-.004h-.002l-.063-.005h-.002l-.062-.006h-.002l-.062-.008h-.002l-.06-.008h-.002l-.058-.01h-.002a4.057 4.057 0 0 1-.59-.133l-.019-.006-.015-.005-.01-.004-.007-.003-.002-.002c-.487-2.743-1.461-1.442-1.21-.61.773 2.56-3.857 1.76-3.91 1.416-.208-1.398-2.256-.434-1.68.332.554.74-.237 1.699-1.656 1.504l-3.75.947c-.85.604-4.612.26-4.853.573-.672.874-1.342-.082-1.28.43.019.144.027.275.027.394 7.95-.015 16.346-1.665 20.442.377.06.03 14.88-.866 19.86-2.512 2.511-.83 8.094-.957 10.915-1.534 1.384-.283.223-1.723 1.5-1.561 2.64.334 4.084-.106 6.55-.304.971-.078 2.17-.152 3.48-.217zm-11.377-5.3zm-55.63 10.86c.814.104 1.802.16 2.915.18.047-.133.104-.315.17-.565a3.469 3.469 0 0 1-1.881-.21l-.102.012c-.333.39-.714.55-1.102.583" style="display:inline;fill:#6b9966;fill-opacity:.992157;fill-rule:evenodd;stroke:none" transform="matrix(.2578 0 0 -.2578 -46.873 136.613)" clip-path="url(#h)"/><path d="M228.748 488.762a355.658 355.658 0 0 1-5.196-.919c-2.18-.397-4.317-.786-6.276-1.089.665.873 1.77 2.306 2.502 3.222 2.03-.507 4.097-.917 5.06-1.272-.035.013 1.804-.011 3.91.058" style="display:inline;fill:#e7e567;fill-opacity:1;fill-rule:evenodd;stroke:none" transform="matrix(.2578 0 0 -.2578 -46.873 136.613)" clip-path="url(#i)"/><path d="m283.488 491.263.006.008.125-.009h.001l-.133.001zm-4.826 2.003v.002l.002.002v.002l.002.002v.001l.001.002.001.002.001.002.001.002.001.002.001.003.001.002.001.002.001.003.001.002.002.003v.002l.002.002.002.004.001.003.001.002.001.002.001.002.001.002.001.003.001.002.001.002.001.002.001.002.001.002.001.003.001.002.001.002.001.002.001.002.001.002.001.002.001.002.001.002.001.002.001.002.001.003.001.002.001.002.001.003.001.002.001.002.001.002v.002l.002.003v.002l.002.002v.002l.002.002v.002l.001.002.001.003.001.002.001.002.001.002.001.003.001.002.001.002.001.002c1.102 2.676-3.217.967-3.893.682-3.01-1.271-1.648 2.152-3.196 1.158-3.41-2.187-3.165.855-4.39-.422-2.726-2.842-.972 1.4-4.93-.623-4.248-2.174-1.822-.05-3.266-.074-1.9-.03-.612-1.745-1.693-1.063-4.467 2.827-4.085-1.522-4.528-.653-1.662 3.265-3.359-1.45-5.092-.237-1.265.885-4.768-.897-4.44-.141.493 1.13-.721 1.228-1.196 2.079-.514.92-2.377-1.66-2.946-.544-1.089 2.134-3.18-.716-3.63.633-.524 1.564-1.55.297-2.576.17-.015-.002-.166.279-.33.595l.008.004.007.004.007.005.007.004.007.005.007.004.007.005.014.01.007.004.007.004.007.005.007.005-.005-.003c1.004.4 2.822 1.128 3.169 1.334.167.099.338.094.598.264.773-.152 3.415 1.189 4.089.79.169-.1 5.414.757 5.664.935.369.263 5.686 1.046 5.953.936.127-.053.9-.025 1.902.041.183-.385.538-.776 1.14-1.132.787-.466 5.688.783 5.994-1.283.003-.019 1.066-.012.768.194 2.064-1.43 2.851.57 6.093-.09.549-.111.89.639 3.232.519 6.392-.326 4.288.136 6.862.417 2.232.243 2.908.176 5.189.641 1.085.221 6.761.508 9.451.416.473-.08.965-.154 1.464-.227.33-.188 1.555-.607 2.314-.313 2.284-.294 4.292-.524 4.74-.71 2.82-1.166 10.185-1.082 13.485-1.39.337-.07.67-.11.997-.131l.042-.008.11-.022.015-.002.12-.022.033-.005.123-.02.057-.01.12-.02.087-.014.112-.018.12-.02.1-.014.156-.024.081-.012.199-.03.059-.008.243-.036.031-.005.293-.042.308-.044.036-.005.29-.04.074-.011.265-.038.117-.016.238-.032.162-.023.207-.028.21-.029.171-.023.261-.035.133-.018.314-.042.091-.012.37-.05.047-.006.427-.056.436-.057.05-.007.395-.052.1-.013.354-.046.152-.02.309-.04.207-.026.26-.033.263-.034.211-.027.319-.04.16-.02.376-.048.108-.013.433-.055.055-.007.49-.061.494-.062.055-.007.44-.054.11-.013.386-.048.166-.02.332-.04.22-.027.276-.034.275-.033.22-.027.33-.039.164-.02.382-.045.11-.013.434-.052.054-.007.484-.056.48-.057.053-.006.423-.049.103-.011.365-.042.155-.018.307-.035.203-.023.252-.028.25-.028.197-.022.293-.032.145-.017.334-.036.095-.01.372-.04.046-.005.408-.043v-.001l.397-.041.043-.004.34-.036.084-.009.287-.029.121-.011.391-.039.188-.018.185-.017.143-.014.211-.019.1-.009.233-.02.063-.006.25-.02.03-.004.26-.02.24-.018.027-.002.196-.013.048-.003 8.78-.528 5.056-1.162 6.508-1.102a117.66 117.66 0 0 0 5.03-.818c-1.842.225-3.691.461-5.552.698-16.629 2.12-34.177 4.359-56.394.962-1.762-.27-3.517-.572-5.267-.906l-2.321-.463-.016-.002h-.008l-.008-.002-.016-.002h-.001l-.018-.002h-.008l-.01-.001h-.017l-.02-.002h-.103l-.021.002h-.023l-.02.002h-.003l-.022.002h-.01l-.015.001-.02.001h-.003l-.024.003h-.009l-.016.002-.02.002-.004.001-.025.002-.008.001-.018.002-.02.003h-.005l-.026.004h-.008l-.02.002-.02.003h-.005l-.027.005h-.008l-.02.004-.02.003h-.006l-.028.005h-.007l-.02.004-.021.003h-.007l-.028.006h-.006l-.022.004-.02.003h-.009l-.028.006h-.006l-.023.005-.02.003h-.01l-.028.006h-.005l-.024.004-.02.003-.009.002-.03.005-.004.001-.025.004-.02.003-.01.002-.029.005-.004.001-.026.005-.018.003-.011.002-.03.005h-.002l-.027.006-.018.003-.012.002-.03.005h-.002l-.027.005-.017.003-.013.002-.029.005h-.002l-.028.005-.016.003-.013.002-.03.005h-.001l-.028.006-.015.003-.014.002-.029.005-.029.005-.015.002-.014.002-.028.005c-.393.316.018 1.359-1.614.848-1.602-.5-4.972 2.882-8.233 2.067-.763-.19-.69-.795-1.447-.501-1.42.55-2.753.826-3.801.613zm-45.89 1.8.007.005-.005-.003-.003-.002zm.015.01.007.005h-.002l-.006-.005zm.014.01.007.004-.004-.003zm.095.063.007.005-.005-.003h-.003zm.052.036.007.005-.003-.002zm.007.005.003.002.005.003zm.098.068.008.005-.005-.004-.002-.002zm.039.028.008.005-.006-.004zm36.098 2.25h.002zm.002 0h.002zm.002 0h.002zm.002 0h.003zm.003 0h.002zm.002 0h.002zm.002 0h.003zm.003 0 .002-.001zm.002-.001h.002zm.01 0h.002-.002m.002 0h.002zm.002 0h.004-.005zm.035 0zm-.003 0h-.004.002m-.005 0h-.008.006m-.009 0H269.227 269.236zm-.018 0h-.002m2.473.57h.07l.01-.001h.02l.01-.001h.03l.01-.001h.01l.01-.001h.02l.01-.001h.011l.01-.001h.01l.011-.001h.01l.011-.001h.011l.01-.001h.01l.01-.001.01-.001.022-.001.01-.001h.011l.011-.001h.004l.007-.001h.011l.011-.001.065-.005h.011l.045-.005h.011l.011-.002h.012l.011-.001.01-.001h.002l.011-.001.012-.001.011-.001.012-.001.011-.001.012-.001.012-.001.011-.001.012-.001c-.267.015-.49.03-.682.041zm34.089-.555.01-.002zm.01-.002.012-.001zm.012-.001.01-.001zm.01-.001.011-.001zm.011-.001.01-.001zm.01-.001.012-.002zm.012-.002.011-.001zm.011-.001.01-.001zm.01-.001.011-.001zm.011-.001.011-.001h-.009l-.002.001zm.011-.001.011-.001zm.011-.001.011-.001zm.011-.001.01-.001zm.01-.001.012-.001zm.012-.001.01-.001zm.397-.045h.011l.01-.002-.018.002h-.003zm.022-.002h.011zm.011 0 .011-.002zm4.782-.33.332-.015h.004l-.336.015zm.336-.015zm18.731-2.157.282-.034-.144.017zm6.123-.703.22-.024m.094-.01.107-.011-.054.006m1.97-.2.217-.02m.949-.083.1-.008-.085.007-.015.002zm1.042-.072.08-.003m.587.007.004.001h-.004zm.04.015.001.001zm0 0-.001-.001m-.001 0v-.001m-.006-.003h-.002.002zm-.003 0v-.002m-.01-.002-.003-.001m-.003 0-.002-.001m0 0-.004-.001m-115.55 3.315c.353.381.705.758 1.06 1.13 2.01.067 3.627.17 4.683.316 1.763.241 3.463.24 5.23.218l-.046-.02-.019-.01-.027-.012-.038-.017-.008-.004-.046-.022-.012-.006-.034-.016-.03-.015-.016-.007-.045-.023-.046-.023-.025-.012-.021-.011-.046-.024-.046-.023-.017-.01-.029-.014-.046-.024-.046-.023-.091-.047-.046-.024-.045-.023-.046-.023-.091-.046-.045-.022-.046-.022-.045-.022-.045-.02-.045-.022-.045-.02-.045-.02-.045-.02-.044-.018-.045-.018h-.003l-.004-.002-.003-.002h-.003l-.003-.002h-.004l-.003-.002h-.003l-.003-.002h-.003l-.004-.002h-.003l-.003-.002-.004-.001-.004-.001-.003-.001-.003-.001-.01-.004-.004-.001-.003-.001-.003-.001-.003-.001-.006-.002-.004-.001-.003-.001-.007-.002-.003-.001-.004-.001-.007-.002-.003-.001-.003-.001-.003-.001-.006-.002-.005-.001-.003-.001-.003-.001-.003-.001-.013-.005-.004-.001-.003-.001-.003-.001h-.003l-.002-.002h-.001l-.003-.001-.003-.001-.003-.001-.003-.001-.003-.001-.003-.001-.003-.001-.003-.001-.003-.001h-.003l-.003-.002h-.003l-.002-.001-.003-.001-.003-.001h-.003l-.008-.003h-.003l-.003-.001-.002-.001-.003-.001h-.003l-.002-.001-.003-.001-.002-.001-.003-.001h-.003l-.003-.001-.002-.001-.003-.001-.003-.001h-.002l-.016-.006h-.002l-.003-.001h-.002l-.003-.002h-.002l-.003-.001h-.002l-.005-.002h-.003l-.005-.002h-.003l-.005-.001-.003-.001-.01-.003h-.005v-.001l-.003-.001h-.003l-.003-.001h-.003l-.003-.001-.003-.001-.01-.002h-.003l-.002-.001-.003-.001h-.003l-.002-.001h-.003l-.044-.01-.085-.015-.043-.006-.042-.004h-.002l-.038-.003h-.005l-.003-.001H234.9l-.004-.001H234.852l-.003-.001H234.788l-.03.003-.042.003-.04.005-.008.002-.03.005h-.003l-.04.008-.04.01-.007.002-.03.009h-.003l-.04.014-.047.018-.012.005-.044.02-.006.001-.009.004-.038.02-.006.003-.002.001-.043.026-.019.012-.044.03c-.669.476-3.534-.664-3.802-.72a8.81 8.81 0 0 1-.199-1.53c-.683-.195-1.26-.34-1.24.216.097 2.443-1.953 1.453-2.95 1.017zm19.61 2.114a31.84 31.84 0 0 1 2.49.527c.1.025.218.05.348.074l-.008-.004-.023-.013-.013-.007-.011-.006-.024-.013-.01-.006-.014-.007-.024-.013-.009-.004-.09-.046-.002-.001-.022-.012-.025-.012-.048-.024-.047-.024-.096-.046-.049-.023-.048-.022-.05-.023-.049-.022-.049-.021-.05-.022-.05-.021-.002-.001-.003-.001-.003-.001-.003-.001-.003-.001-.003-.001-.003-.001-.003-.001-.003-.001-.003-.001-.003-.001-.003-.001-.003-.001-.003-.001-.003-.002-.003-.001-.003-.001-.003-.001h-.003l-.003-.002h-.003l-.003-.002-.003-.002h-.003l-.003-.002h-.003l-.003-.002h-.003l-.003-.002h-.003l-.003-.003h-.003l-.003-.002h-.003l-.003-.002h-.003l-.003-.002-.003-.002h-.003l-.003-.002h-.003l-.003-.002h-.003l-.003-.002h-.003l-.003-.002h-.003l-.003-.002-.003-.002h-.003l-.003-.002h-.003l-.003-.002h-.003l-.003-.002-.003-.002h-.003l-.003-.001-.003-.001-.003-.001-.003-.001-.003-.001-.003-.001-.003-.001-.05-.02-.05-.018-.05-.018-.05-.017-.05-.017-.05-.017-.049-.016-.049-.015-.05-.014-.048-.014-.049-.014-.048-.012-.048-.012-.11-.025-.052-.01-.027-.005-.046-.008-.047-.007-.045-.007-.045-.005-.044-.005-.044-.004-.043-.002h-.001l-.042-.002-.042-.001h-.083l-.034.003h-.006l-.04.003-.038.004h-.006l-.027.005h-.006l-.013.003-.059.012h-.003l-.033.009-.035.01-.034.011-.033.013-.03.013h-.002v.001l-.01.005-.019.009-.002.001-.03.016-.004.002-.024.016h-.001l-.008.006-.017.012h-.002zm6.819.992 1.084.063-.004-.001-.008-.003-.006-.002-.002-.001-.008-.002-.008-.003-.018-.006-.017-.005-.034-.01-.017-.005-.017-.004-.018-.005-.017-.004-.017-.004-.017-.004-.018-.004-.034-.007-.017-.003-.017-.003-.017-.003-.034-.005-.017-.002-.017-.002-.035-.004-.017-.002-.017-.001-.017-.002-.017-.001-.016-.001-.018-.001-.017-.001h-.016l-.017-.001-.017-.001H252.809l-.03.001-.017.001h-.017l-.012.001h-.005l-.017.002h-.016l-.017.002h-.017l-.004.001-.012.001-.017.002-.016.002-.017.002-.014.002h-.004" style="display:inline;fill:#9bc7a1;fill-opacity:1;fill-rule:evenodd;stroke:none" transform="matrix(.2578 0 0 -.2578 -46.873 136.613)" clip-path="url(#j)"/><path d="m295.71 511.891.39.052c-6.157 1.443-12.397 2.599-18.858 2.972-7.514.433-15.339-.191-23.704-2.654 6.223-.853 10.44-.485 16.976-2.225 1.45-.386 7.52-.668 11.547-1.249 2.8.168 7.956 3.353 10.025 3.156a22.148 22.148 0 0 1 3.625-.052" style="display:inline;fill:#e8e8e8;fill-opacity:1;fill-rule:evenodd;stroke:none" transform="matrix(.2578 0 0 -.2578 -46.873 136.613)" clip-path="url(#k)"/><path d="m363.537 513.92-.037.014c-.318.122-.636.24-.953.356l-.285.104c-.346.124-.689.246-1.033.365l-.228.077-.882.295-.264.085c-.344.11-.688.218-1.033.322l-.24.072c-.296.088-.591.172-.888.255l-.27.076c-.346.095-.692.188-1.039.277l-.239.06c-.299.074-.597.145-.895.216l-.232.054a51.4 51.4 0 0 1-1.1.238l-.174.035c-.318.064-.637.125-.957.183l-.226.041c-.363.064-.727.124-1.092.18l-.23.033c-.323.048-.647.093-.972.135l-.18.022c-.372.047-.747.088-1.122.125l-.247.023c-.304.028-.61.053-.916.075l-.27.02c-.363.025-.725.044-1.09.06l-.3.01c-.305.012-.61.02-.918.025l-.26.005c-.374.004-.75.003-1.128-.004l-.263-.006a40.592 40.592 0 0 1-1.046-.033l-.16-.006a46.807 46.807 0 0 1-1.182-.072l-.274-.02c-.339-.028-.679-.058-1.021-.092l-.234-.023a46.997 46.997 0 0 1-1.186-.14l-.29-.04c-.35-.047-.704-.1-1.058-.155l-.213-.033a54.854 54.854 0 0 1-1.213-.213l-.313-.06c-.375-.072-.75-.149-1.128-.23l-.17-.036a55.51 55.51 0 0 1-1.247-.29l-.349-.085c-.396-.1-.793-.202-1.193-.31l-.09-.024-.052-.014c-.423-.117-.85-.24-1.277-.369l-.347-.104a69.536 69.536 0 0 1-1.224-.384l-.113-.036-.027-.009a77.176 77.176 0 0 1-1.358-.464l-.325-.115a77.15 77.15 0 0 1-1.402-.515c5.555 9.276 3.419 13.337-1.463 14.71-4.884 1.373-12.527.05-17.989-1.438-11.45-3.122-21.306-7.958-21.306-7.958 8.24 20.563-21.28 5.606-24.965 3.784-3.163-1.563-7.441-4.017-12.32-7.424l-.228-.16-.002-.002-.117-.082-.112-.078-.004-.003-.116-.082-.11-.078-.007-.005-.117-.083-.107-.077-.01-.007-.117-.084-.106-.075-.012-.01-.117-.084-.104-.074-.014-.01-.119-.086-.1-.073-.018-.012-.118-.086-.1-.073-.019-.013-.12-.087-.097-.07-.021-.017-.12-.087-.095-.07-.025-.018-.12-.087-.093-.07-.026-.019-.12-.089-.091-.067-.03-.021-.12-.09-.09-.066-.031-.024-.12-.09-.088-.065-.034-.026-.122-.09-.084-.064-.037-.027-.121-.092-.003-.002c4.245-.176 8.351-.36 10.07-.6l.112-.015c8.365 2.463 16.19 3.087 23.704 2.654 6.46-.373 12.7-1.528 18.858-2.971a34.096 34.096 0 0 0-.389-.052c4.09.27 6.45 1.433 11.852-1.128.966-.458 5.531 2.664 10.434.103 1.287-.672 10.374.776 11.356 1.242 1.497.713 12.37 1.71 14.139 1.349 6.224-1.273 7.6.045 11.559-.47 3.42-.444 6.187.612 8.485.933zm-120.26-1.104-.04-.03-.122-.093-.08-.06.15.113zm52.434-.925h-.007.007z" style="display:inline;fill:#b1cce1;fill-opacity:1;fill-rule:evenodd;stroke:none" transform="matrix(.2578 0 0 -.2578 -46.873 136.613)" clip-path="url(#l)"/><path d="M243.356 512.875c4.246-.176 8.352-.36 10.07-.599 6.285-.872 10.513-.49 17.088-2.24 1.45-.386 7.52-.668 11.548-1.249 2.8.168 7.955 3.353 10.024 3.156 6.694-.638 8.671 2.047 15.477-1.18.966-.458 5.531 2.664 10.434.104 1.288-.672 10.375.775 11.356 1.242 1.498.712 12.37 1.71 14.14 1.348 6.224-1.273 7.6.046 11.558-.469 3.421-.444 6.188.612 8.486.932 6.522-2.487 13.094-5.955 20.4-9.705-2.622.13-4.791.294-5.608.461-3.54.725-5.496-.567-8.265 0-2.822.577-4.367-.413-4.633.794-.08.362-9.127 1.643-9.192 1.618-3.136-1.232-5.484.402-6.096.113-2.695-1.276-15.429-.86-15.805-.973-.447-1.985-5.047-1.02-5.273-1.172-1.767-1.19-5.52-.714-7.033-1.262-.091-.033-3.874 2.977-5.882 2.456-.597-.155-8.692-1.2-9.717-1.22-3.785-.071-13.688.654-17.836.013l.079-.037a48.542 48.542 0 0 0-.833-.11c-7.586-.934-17.594-.448-24.26-1.805-3.46-.704-19.971 1.198-27.284.492-.77-.074-2.382-.238-4.401-.427l.005.005.179.17.08.076.104.098.157.148.027.026.184.172.049.045.503.47.016.014.168.155.091.084.259.237.017.016.183.168.06.053.124.114.133.12.05.046.466.42.083.073.364.326.069.06.114.102.143.126.039.035.474.416.071.062.182.158.004.003.177.155.078.067.103.089.153.132.028.024.18.155.047.039.134.115.12.102.06.052.18.153.014.011.166.14.089.075.09.077.162.136.018.015.18.15.055.046.124.103.129.107.05.042.178.148.024.019.154.128.098.08.08.066.17.139.007.007.179.145.065.053.112.091.138.112.215.174.034.027.143.115.106.085.07.057.176.14.002.001.174.139.074.058.101.081.147.115.029.023.174.138.043.034.131.102.115.09.06.047.174.136.011.009.162.125.083.065.488.375.12.092.123.094.05.038.17.13.022.016.15.114.092.07.079.06z" style="display:inline;fill:#d7d5e2;fill-opacity:1;fill-rule:evenodd;stroke:none" transform="matrix(.2578 0 0 -.2578 -46.873 136.613)" clip-path="url(#m)"/><path style="display:inline;fill:#2c7943;fill-opacity:1;fill-rule:evenodd;stroke:none" d="m256.212 476.089-.069-.035v-.001zM252.102 477.281h.01l-.01-.003z" transform="matrix(.2578 0 0 -.2578 -46.873 136.613)"/><path style="display:inline;fill:#2c7943;fill-opacity:1;fill-rule:evenodd;stroke:none" d="M221.264 482.674c-.792-.023-1.905-.496-3.135-1.778-.705-.736-3.787.093-4.733.403l-.02-.03-.02-.03-.02-.03-.02-.029-.02-.03-.02-.028v-.001l-.02-.03-.02-.03-.021-.03-.02-.03-.02-.031-.02-.03-.02-.03-.021-.031-.02-.03-.021-.03-.02-.031-.02-.031-.02-.03-.02-.03-.021-.03-.02-.032-.021-.032-.02-.03-.021-.032-.02-.03-.021-.031-.02-.03-.021-.032-.022-.032-.014-.019-.006-.012-.022-.03-.02-.033-.02-.03-.021-.033-.02-.03-.023-.033-.02-.03-.02-.033-.021-.03-.022-.033-.02-.032-.021-.03-.022-.033-.02-.032-.021-.032-.022-.032-.02-.031-.023-.032-.02-.033-.02-.032-.043-.066-.022-.032-.02-.032-.008-.01-.014-.022-.001-.003-.022-.033-.02-.032-.023-.034-.022-.032-.02-.032-.022-.034-.02-.032-.023-.032h.001c.13.198-.333-.513-.347-.535 1.632-.03 2.947-.08 3.668-.17 4.458-.548 7.844-.746 12.232-1.283.452-.056 1.364-.09 2.482-.114.057.036.118.065.178.098-1.011-.554-1.634-1.571-1.423-2.06-3.793 2.33-3.692.353-5.226-.558-3.54 2.315-4.02-1.367-4.308-1.275-5.773 1.83-3.234-2.67-7.018-1.32-2.92 1.04-4.485-1.056-5.331-1.064l-.06-.102a222.856 222.856 0 0 1-3.798-6.815l-.06-.113-.001-.004-.412-.771c4.86-1.876 10.622-3.363 14.991-4.46l.087-.021h.004l.086-.022.006-.001.088-.021.009-.003.088-.02.011-.003.088-.022.016-.004.087-.021.02-.004.087-.02.023-.006.085-.021.028-.007.083-.019.034-.009.082-.019.037-.009.08-.019.041-.009.08-.019.045-.01.076-.018.051-.012.074-.016.055-.013.072-.016.06-.015.069-.014.066-.016.064-.015.072-.016.062-.013.077-.018.059-.013.082-.02.056-.01.087-.021.052-.01.092-.023.048-.01.098-.022.044-.009.106-.025.038-.007.11-.025.036-.007.116-.025.03-.007.123-.026.026-.007.127-.026.022-.006.134-.03.017-.003.138-.03.013-.002.144-.032h.009l.15-.033h.002l.309-.066.006-.001.15-.031.01-.003.144-.031.017-.004.139-.03.022-.003.605-.126.04-.01.116-.023.047-.01.11-.022.051-.012.728-.148.075-.016.385-.076.09-.018.063-.011.092-.02.059-.01.096-.02.053-.01.101-.02.047-.01.406-.079.034-.006.114-.022.028-.006.12-.022.022-.004.265-.05.013-.003.267-.048h.004l.265-.05c.245.195.492.388.737.58l.042-.007h.006a163.596 163.596 0 0 0 6.136 4.751l-.02.004h-.004l-.016.003-.01.001-.027.003h-.006l-.022.001-.024.001h-.047l-.015-.002h-.034l-.025-.004h-.001l-.025-.003h-.027l-.014-.004h-.012l-.022-.003h-.006l-.027-.005-.03-.004h-.006l-.023-.003-.013-.003-.016-.003-.02-.003h-.011l-.028-.005h-.001l-.03-.006h-.005l-.028-.006h-.011l-.02-.002-.02-.003-.013-.003-.028-.004h-.004l-.035-.005h-.001l-.032-.006h-.01l-.025-.003-.02-.003-.015-.003-.027-.004h-.01l-.035-.004-.037-.004h-.009l-.03-.004h-.015l-.022-.003h-.027l-.011-.002h-.039l-.039-.004h-.006l-.035-.003h-.252l-.022.001-.022.001-.034.001-.012.001-.044.003-.045.004-.011.001-.036.004-.022.001-.024.003-.033.004-.016.003-.044.007h-.004l-.048.01h-.007l-.04.007-.02.004-.03.007-.032.007-.02.004-.043.01-.009.004-.05.013h-.005l-.047.014-.016.006-.036.01-.03.01-.025.008-.042.013-.012.006-.054.019c-.975.36 1.166 3.21-2.25 2.181-2.182-.658-.394.647-4.017.647-1.082 0-2.92-1.346-4.157 0-3.061 3.323-2.988.574-4.456 1.18-2.904 1.199-6.127-.668-6.747.448-.519.938-2.154.692-2.744.92 3.03.458 9.247 1.774 11.517 2.4.55.111 1.333.287 1.45.36l.004.003.037.01c.378.11 2.404 1.157 2.821 1.26.418.103.848.203 1.277.299.43.095.86.188 1.273.276.414.088.813.172 1.184.252.37.08.713.156 1.012.227.158.038.304.074.437.109h.004l.006.002H228c.113.03.063.016.153.043.125.039.84.114.919.15.461.145.694.344 1.781.531.12.02 1.5.267 1.499.3 3.296.264 5.948-.015 9.155.127.258.011.482.02.686.035v.003c.015-.002.396 0 .603.006.555.016 1.083.002 1.473.15.473.176.396.046.621.439.086.148 1.515.164 1.682.493.05.156.232.24.114.31h.003c-.007.005-.013.015-.02.021l.017-.016c2.11.45 4.516.832 7.267.714a29.4 29.4 0 0 1 2.293.01l.417.212h.003l.016.007.017.01.016.006.016.01.016.006.016.01.016.006.016.01.016.008.034.016.016.007.016.01.016.006.016.01.016.006.017.01.016.006.016.01.016.006.016.01.016.006.018.007.016.01.016.006.016.01.016.006.016.01.016.006.016.01.553.278a161.26 161.26 0 0 0 3.392 1.646l-.007.007-.003.003-.01.012v.001l-.01.01-.003.003-.007.01-.004.004-.007.007-.006.007-.004.004-.01.01-.012.014h-.001l-.01.01-.005.006-.009.006-.009.007-.004.004-.011.01h-.003l-.014.012v.001l-.014.01-.004.004-.01.007-.01.006-.005.006-.012.01-.003.002-.016.01v.001l-.016.01-.003.005-.013.007-.01.006-.006.006-.013.009h-.003l-.018.012-.018.01-.006.004-.013.01-.009.006-.01.004-.013.009-.004.003-.02.012-.02.011-.004.003-.016.01-.009.003-.011.006-.015.01-.006.002-.02.012h-.002l-.022.012h-.004l-.017.01-.01.006-.012.006-.016.007-.007.003-.022.01v.001l-.024.012h-.004l-.02.01-.01.006-.015.006-.016.006-.007.004-.051.023-.003.001-.024.01-.01.003-.016.007-.016.007-.01.004-.024.01-.004.001-.028.01-.003.002-.025.01-.009.003-.019.007-.017.006-.012.006-.025.01h-.004l-.03.012h-.002l-.028.01-.01.003-.02.01-.018.005-.014.004-.024.01-.007.001-.033.012-.031.01-.01.003-.023.01-.017.005-.017.004-.026.01-.007.002-.034.01c-.016.003-.897 2.66-3.224.813.122-2.029-4.321-3.38-3.461-1.31 1.03 2.485-1.559 2.627-1.915 2.295-1.367-1.276-2.96-.355-3.512-.967-3.233-3.592-5.583.975-7.124-.233-1.615-1.27-4.275-.777-3.751.497 1.337 3.255-4.001 2.425-3.91 1.2.198-2.704-.901-1.763-.888-1.599.226 2.634-2.837 1.218-2.84 1.201-.488-2.81-1.46-1.644-1.209-.777.773 2.668-3.858 1.226-3.91.876-.209-1.427-2.257-.746-1.681.1.467.69-.023 1.403-1.041 1.373zM315.64 504.085c-.747.01-1.581-.102-1.914-.102-.595 0-.274-.84-1.018-.903-2.826-.237-1.923-2.76-3.29-2.258-1.838.677-1.22-.724-1.588-.79-.223.126-.108.663-.726.477-.953-.424-2.179-.746-3.183-.4-.274 1.175-1.27 1.26-2.408 1.138.136.265.034.553-.475.854-.58.345-1.55-.389-2.943-.898a1.3 1.3 0 0 0-.331.255c-.795.854-4.64.47-6.018.08-1.517-.431-2.112-.751-2.23-.997-.985-.055-1.714.02-1.75.444-.045.546-3.448.838-2.485-.832-.69-1.197-1.806-.176-2.012.814-1.094.227-3.703 1.493-2.251-1.022-.795-1.377-3.018.656-3.838-.035-.644-.542-.094 1.827-1.654 0-.916-1.073-.872 1.58-2.947 1.491-1.224-.052-3.914.181-4.601 1.134-.868 1.2-3.109-2.007-3.394.227-.026.198-3.254.923-4.037-.331-.767-1.228-2.807 1.63-2.735-1.431-.32.027-.69.074-1.124.148l-.007.045c-.125 1.018-.985.843-1.43.189-.307-.177-.719-.435-1.272-.797a2.045 2.045 0 0 0-.501-.242l-.018-.006-.018-.006-.033-.009-.018-.006-.069-.017-.017-.003-.016-.004-.036-.007-.016-.003-.017-.003-.018-.003-.034-.004-.017-.003-.016-.001-.035-.004-.017-.001-.017-.001-.018-.001-.016-.001-.017-.001h-.017l-.017-.001-.016-.001h-.034l-.032-.001H252.809l-.064.004H252.727l-.05.004h-.02l-.03.005h-.015l-.018.002-.013.003h-.004l-.048.007h-.018l-.004.002-.076.011h-.003c-1.1.192-2.122.958-3.032.216-.23-.187-.69-.484-1.222-.752l-.047-.023-.013-.006-.035-.018-.097-.045-.03-.015-.018-.009-.049-.023-.013-.007-.035-.015-.05-.022-.05-.022-.03-.015-.018-.007-.05-.022a7.22 7.22 0 0 0-.199-.08l-.051-.018-.048-.019-.052-.019-.05-.016-.033-.012-.016-.006-.049-.016-.019-.006-.03-.01-.05-.015h-.001l-.047-.014-.035-.01-.015-.004-.048-.013-.02-.004-.029-.01-.048-.011-.108-.025-.053-.01-.028-.004-.045-.01h-.004l-.043-.005-.034-.006h-.011l-.044-.006-.02-.001-.026-.001-.044-.004-.004-.001-.038-.001-.042-.001-.042-.001H246.13l-.034.002h-.006l-.032.003h-.007l-.038.004h-.006l-.027.004-.019.003-.06.011-.003.001-.032.01-.036.008-.034.012-.032.013-.031.014h-.003c-.202.093-.347.264-.404.538-2.28.79-.927-1.398-4.86-.596-1.084.221.118-.594-2.287-.104-.385.078-.792-.038-1.205-.22l-.045-.02-.019-.01-.026-.011-.038-.018-.01-.004c-.586-.284-.671-.349-1.094-.54l-.045-.02-.043-.019-.039-.016-.007-.003-.043-.017a3.16 3.16 0 0 0-.22-.078h-.004a2.23 2.23 0 0 0-.172-.046l-.042-.01-.086-.015-.043-.006h-.003l-.04-.004-.039-.003h-.006c-.038-.002-.076-.004-.114-.003h-.019l-.03.003-.04.003h-.01l-.031.004-.007.003-.031.004h-.001l-.041.009h-.001l-.038.009h-.007l-.03.01h-.003l-.035.013h-.004l-.048.018-.01.004-.044.02-.007.002-.047.025-.006.003h-.001l-.043.026-.019.012-.045.029c-.668.476-3.533-.663-3.801-.718a8.822 8.822 0 0 1-.2-1.53c-.682-.196-1.26-.341-1.239.215.097 2.442-1.954 1.453-2.951 1.016l-.09-.095-.012-.013-.077-.085-.09-.097-.089-.096-.006-.006-.085-.093a129.148 129.148 0 0 1-5.773-6.724c2.03-.507 4.098-.918 5.06-1.273-.06.023 5.838-.073 8.585.458 2.558.496 22.239.73 25.665 1.136 2.53.298 9.981-.17 14.674.616 1.256-.128 2.594.035 2.717.05.048.006 11.874-.901 12.21-.97l.016-.004h.006l.01-.002.016-.004h.004l.02-.006h.005l.017-.005.015-.004.01-.003.025-.006.026-.009.012-.003.018-.004.023-.007h.007l.03-.01.006-.004.027-.006.02-.007.013-.006.036-.01.036-.012.015-.004.022-.007.032-.01.007-.001.04-.013.01-.003.032-.01.026-.01.017-.005.042-.013h.003l.043-.016.02-.006.025-.009a31.36 31.36 0 0 1 2.008-.622v-.001c.489.116.978.229 1.469.34 0 0-.02-.025 0 0l2.513.549c-.33-.054-1.046.099-1.656.203-.392.316.02 1.36-1.612.85-1.602-.501-4.973 2.88-8.234 2.065-.763-.19-.691-.794-1.448-.5-1.42.55-2.75.827-3.8.613v.001c.029.049.054.097.075.148 1.103 2.676-3.217.967-3.893.683-3.011-1.272-1.648 2.15-3.197 1.157-3.41-2.186-3.163.856-4.388-.42-2.726-2.843-.974 1.4-4.932-.625-4.247-2.173-1.821-.05-3.265-.073-1.9-.03-.611-1.745-1.692-1.063-4.468 2.827-4.087-1.522-4.53-.654-1.661 3.265-3.358-1.448-5.091-.236-1.265.885-4.768-.897-4.44-.142.493 1.13-.72 1.229-1.196 2.079-.513.92-2.377-1.659-2.946-.543-1.089 2.134-3.18-.716-3.63.632-.524 1.564-1.55.297-2.576.17-.015-.002-.167.28-.33.596.149.094.304.198.47.315.01.008 3.353 1.312 3.837 1.599.168.099.34.094.6.265.772-.152 3.414 1.187 4.087.788.17-.1 5.415.758 5.665.936.369.264 5.685 1.046 5.952.936.127-.053.9-.025 1.903.04.182-.384.538-.775 1.14-1.131.787-.466 5.687.783 5.993-1.284.003-.018 1.066-.011.768.195 2.065-1.43 2.852.57 6.094-.09l.025-.005c.534-.08.911.762 3.206.525 2.463-.133 3.78-.132 4.493-.068.265.053.505.118.773.185.281.204-.254.45 1.595.299 1.2.147 1.885.094 2.617.085.72.125 1.452.328 2.573.556 1.086.221 6.761.51 9.452.416.472-.078.964-.154 1.463-.227.329-.188 1.555-.607 2.314-.313 2.284-.294 4.292-.524 4.74-.71.109-.044.225-.087.346-.128h.001c.739-.25 1.707-.437 2.797-.579l.123-.016h.013c.229-.03.463-.056.702-.081l.143-.016.044-.004.538-.052.148-.013.295-.025.15-.012.451-.035.08-.006.071-.004.152-.01.02-.001.131-.009.113-.009.04-.001.152-.01.053-.003.1-.006.153-.01.152-.008.084-.006.069-.004.152-.01h.023l.13-.006.115-.006.037-.003.152-.007.054-.003.098-.006.755-.037.114-.006.332-.015h.004c1.709-.078 3.285-.138 4.398-.241.337-.07.668-.11.996-.13l.042-.01.11-.022.015-.003.12-.022.032-.004.125-.02.056-.01.121-.021.086-.013.113-.018.119-.019.1-.014.156-.025.08-.012.2-.03.059-.008.243-.037.032-.004.292-.042.309-.044.035-.004.29-.041.074-.01.266-.037.117-.016.237-.034.161-.022.208-.028.21-.03.171-.022.26-.034.134-.02.314-.042.092-.011.37-.049.046-.006.426-.057.437-.057.05-.007.395-.051.1-.013.354-.046.153-.02.309-.04.206-.026.26-.034.263-.034h.012l.199-.026.135-.016.184-.023.16-.021.333-.042.043-.004.107-.015.192-.024.242-.03.056-.007.489-.06v-.001l.247-.031.246-.03.056-.007.045-.006.349-.043.047-.006.051-.006.057-.007.193-.024.194-.023.155-.02h.01l.333-.041h.006l.214-.025.241-.031.034-.004.21-.025.065-.007.084-.01.281-.035.185-.022.079-.01.086-.01.26-.032.121-.013.11-.013.114-.013.32-.039.023-.003.032-.004.484-.057.164-.019.316-.036.02-.003.033-.003.302-.035.12-.015.104-.01.364-.043.07-.009.086-.009.307-.035.202-.022.252-.03.25-.026.197-.023.293-.032.416-.046.462-.05.068-.007.047-.004.408-.043 4.174-.37c.373-.016.594-.009.627.025 3.69-.358 6.19-.56 6.702-.524.97.07 2.684-.741 5.383-1.219 1.467-.26 3.578-.053 5.214-.398 3.664-.774 7.444-1.697 9.99-2.466 1.043-.118 2.085-.23 3.127-.337 2.093-.212 4.187-.397 6.287-.543 2.101-.145 4.21-.25 6.337-.305 1.023-.026 2.05-.04 3.08-.04h.008c-.101.314-.555.688-1.463 1.1-.017.006-.898 2.784-3.225 1.26.123-2.047-4.32-2.785-3.46-.833 1.03 2.342-1.56 2.842-1.916 2.56-1.367-1.088-2.96.053-3.512-.483-3.232-3.146-5.582 1.745-7.124.75-1.615-1.046-5.25-1.348-4.727-.148 1.338 3.07-4.002 2.98-3.911 1.742.198-2.732-.901-1.639-.888-1.477.226 2.603-2.837 1.61-2.839 1.593-.487-2.743-1.461-1.441-1.21-.61.773 2.561-3.857 1.76-3.91 1.417-.207-1.398-2.256-.436-1.68.33.553.741-.236 1.7-1.656 1.505l-3.75.947a1.4 1.4 0 0 1-.442.186 4.808 4.808 0 0 1-.64.114c-.238.028-.498.05-.764.064-.266.015-.54.024-.808.031l-.781.02c-.247.005-.479.01-.678.021-.2.01-.37.025-.497.047-.128.022-.213.052-.243.09-.672.874-1.342-.083-1.279.43.207 1.684-.844 1.643-.939 1.482-.696-1.176-.614-.124-.21-1.664a3.47 3.47 0 0 1-1.88-.21l-.103.013c-.77.902-1.807.577-2.559.282-.331.156-.64.25-.933.3.06.893-1.047.322-.882.587.642 1.026-.034 1.342-.083 1.442-.6 1.21-1.456.297-1.46.29-.32-.937-.362.247-1.426-.684-.179-.156-.877-.009-.501-.879.141-.326-1.646-.24-1.767.015-.445.948-.739-.175-1.454.12-1.848.762-1.462.018-2.098.046-1.017.043-1.33-.375-1.493-.717-.307.238-.568.383-.796.46.182.35.593.648.602.67.575 1.36.042.925.07 1.818.072 2.244-1.424.292-1.378 1.363.02.495-.637.63-1.383.64zM213.164 455.425c0 .11.023.144.133.036.25.057.503.055.686-.027 4.015-1.818 4.699 1.062 6.147.89 2.178-.259 3.591-.509 5.053-.921l-.465-.393c-19.904-16.954-35.213-38.313-42.892-61.36-.005.385.01.956.039 1.732 1.095 20.293 7.768 40.243 15.186 56.468l.01.023a216.15 216.15 0 0 0 2.585 5.453c.455-.322.197-.713 3.321-.713.632 0 1.811 1.485 2.799.78 2.686-1.919 2.993-.286 4.483-1.38.01-.007.369-1.863 2.116-1.254.067.3.417.547.799.666z" transform="matrix(.2578 0 0 -.2578 -46.873 136.613)"/></g><text xml:space="preserve" style="font-weight:700;font-size:21.5359px;line-height:1.25;font-family:'IBM Plex Sans';-inkscape-font-specification:'IBM Plex Sans Bold';text-align:center;text-anchor:middle;fill:#4470a2;fill-opacity:1;stroke-width:.538401" x="64.312" y="72.701" transform="matrix(.57286 0 0 .57286 29.1 -27.377)"><tspan style="font-style:normal;font-variant:normal;font-weight:400;font-stretch:normal;font-family:Corben;-inkscape-font-specification:Corben;text-align:start;text-anchor:start;fill:#4470a2;fill-opacity:1;stroke-width:.538401" x="64.312" y="72.701" dx="0 -0.94629896 0 0 0 0 0 0 0 0 0 0 0 0 -0.63086593 0 0 0 0 0 0.47314948">Partneriaeth Natur Ceredigion</tspan></text><text xml:space="preserve" style="font-weight:700;font-size:21.309px;line-height:1.25;font-family:'IBM Plex Sans';-inkscape-font-specification:'IBM Plex Sans Bold';text-align:center;letter-spacing:0;text-anchor:middle;fill:#6e9a68;fill-opacity:1;stroke-width:.532733" x="64.316" y="93.99" transform="matrix(.57286 0 0 .57286 29.1 -27.377)"><tspan style="font-style:normal;font-variant:normal;font-weight:400;font-stretch:normal;font-family:Corben;-inkscape-font-specification:Corben;text-align:start;letter-spacing:0;text-anchor:start;fill:#6e9a68;fill-opacity:1;stroke-width:.532733" x="64.316" y="93.99" dx="0 0.47314948 0 0 0 0 0 0 0 0 0 0 -0.63086593 0 0 0 0 0 0 -0.94629896 0 0 0 0 0 0 -0.26811802">Ceredigion Nature Partnership</tspan></text></svg>