<?xml version="1.0" encoding="UTF-8" standalone="no"?>
<!-- Created with Inkscape (http://www.inkscape.org/) -->

<svg
   width="195.45592"
   height="60.472443"
   viewBox="0 0 51.714378 16.000001"
   version="1.1"
   id="svg1"
   inkscape:version="1.3.2 (1:1.3.2+202311252150+091e20ef0f)"
   sodipodi:docname="welshgov.svg"
   inkscape:export-filename="welshgov.png"
   inkscape:export-xdpi="65.89"
   inkscape:export-ydpi="65.89"
   xmlns:inkscape="http://www.inkscape.org/namespaces/inkscape"
   xmlns:sodipodi="http://sodipodi.sourceforge.net/DTD/sodipodi-0.dtd"
   xmlns="http://www.w3.org/2000/svg"
   xmlns:svg="http://www.w3.org/2000/svg">
  <sodipodi:namedview
     id="namedview1"
     pagecolor="#ffffff"
     bordercolor="#666666"
     borderopacity="1.0"
     inkscape:showpageshadow="2"
     inkscape:pageopacity="0.0"
     inkscape:pagecheckerboard="0"
     inkscape:deskcolor="#d1d1d1"
     inkscape:document-units="mm"
     inkscape:zoom="2.7937149"
     inkscape:cx="143.89443"
     inkscape:cy="60.49293"
     inkscape:window-width="1920"
     inkscape:window-height="1024"
     inkscape:window-x="0"
     inkscape:window-y="0"
     inkscape:window-maximized="1"
     inkscape:current-layer="layer1" />
  <defs
     id="defs1">
    <clipPath
       clipPathUnits="userSpaceOnUse"
       id="clipPath36">
      <path
         d="m 505.88,235.164 h 138.964 v 44.493 H 505.88 Z"
         transform="translate(-580.40002,-274.51561)"
         id="path36" />
    </clipPath>
    <clipPath
       clipPathUnits="userSpaceOnUse"
       id="clipPath38">
      <path
         d="m 505.88,235.164 h 138.964 v 44.493 H 505.88 Z"
         id="path38" />
    </clipPath>
    <clipPath
       clipPathUnits="userSpaceOnUse"
       id="clipPath40">
      <path
         d="m 505.88,235.164 h 138.964 v 44.493 H 505.88 Z"
         transform="translate(-586.90102,-273.63761)"
         id="path40" />
    </clipPath>
    <clipPath
       clipPathUnits="userSpaceOnUse"
       id="clipPath42">
      <path
         d="m 505.88,235.164 h 138.964 v 44.493 H 505.88 Z"
         transform="translate(-588.36772,-274.51561)"
         id="path42" />
    </clipPath>
    <clipPath
       clipPathUnits="userSpaceOnUse"
       id="clipPath44">
      <path
         d="m 505.88,235.164 h 138.964 v 44.493 H 505.88 Z"
         transform="translate(-592.35821,-274.51561)"
         id="path44" />
    </clipPath>
    <clipPath
       clipPathUnits="userSpaceOnUse"
       id="clipPath46">
      <path
         d="m 505.88,235.164 h 138.964 v 44.493 H 505.88 Z"
         id="path46" />
    </clipPath>
    <clipPath
       clipPathUnits="userSpaceOnUse"
       id="clipPath48">
      <path
         d="m 505.88,235.164 h 138.964 v 44.493 H 505.88 Z"
         transform="translate(-598.18961,-274.51561)"
         id="path48" />
    </clipPath>
    <clipPath
       clipPathUnits="userSpaceOnUse"
       id="clipPath50">
      <path
         d="m 505.88,235.164 h 138.964 v 44.493 H 505.88 Z"
         transform="translate(-604.04512,-271.7075)"
         id="path50" />
    </clipPath>
    <clipPath
       clipPathUnits="userSpaceOnUse"
       id="clipPath52">
      <path
         d="m 505.88,235.164 h 138.964 v 44.493 H 505.88 Z"
         transform="translate(-608.79911,-273.2729)"
         id="path52" />
    </clipPath>
    <clipPath
       clipPathUnits="userSpaceOnUse"
       id="clipPath54">
      <path
         d="m 505.88,235.164 h 138.964 v 44.493 H 505.88 Z"
         transform="translate(-610.44652,-274.51561)"
         id="path54" />
    </clipPath>
    <clipPath
       clipPathUnits="userSpaceOnUse"
       id="clipPath56">
      <path
         d="m 505.88,235.164 h 138.964 v 44.493 H 505.88 Z"
         transform="translate(-575.68762,-267.19591)"
         id="path56" />
    </clipPath>
    <clipPath
       clipPathUnits="userSpaceOnUse"
       id="clipPath58">
      <path
         d="m 505.88,235.164 h 138.964 v 44.493 H 505.88 Z"
         transform="translate(-581.55151,-261.01661)"
         id="path58" />
    </clipPath>
    <clipPath
       clipPathUnits="userSpaceOnUse"
       id="clipPath60">
      <path
         d="m 505.88,235.164 h 138.964 v 44.493 H 505.88 Z"
         transform="translate(-584.46751,-265.72981)"
         id="path60" />
    </clipPath>
    <clipPath
       clipPathUnits="userSpaceOnUse"
       id="clipPath62">
      <path
         d="m 505.88,235.164 h 138.964 v 44.493 H 505.88 Z"
         transform="translate(-592.08641,-262.24301)"
         id="path62" />
    </clipPath>
    <clipPath
       clipPathUnits="userSpaceOnUse"
       id="clipPath64">
      <path
         d="m 505.88,235.164 h 138.964 v 44.493 H 505.88 Z"
         transform="translate(-596.79971,-262.2923)"
         id="path64" />
    </clipPath>
    <clipPath
       clipPathUnits="userSpaceOnUse"
       id="clipPath66">
      <path
         d="m 505.88,235.164 h 138.964 v 44.493 H 505.88 Z"
         transform="translate(-599.67292,-264.82681)"
         id="path66" />
    </clipPath>
    <clipPath
       clipPathUnits="userSpaceOnUse"
       id="clipPath68">
      <path
         d="m 505.88,235.164 h 138.964 v 44.493 H 505.88 Z"
         transform="translate(-605.10602,-263.49371)"
         id="path68" />
    </clipPath>
    <clipPath
       clipPathUnits="userSpaceOnUse"
       id="clipPath70">
      <path
         d="m 505.88,235.164 h 138.964 v 44.493 H 505.88 Z"
         transform="translate(-609.67691,-263.9408)"
         id="path70" />
    </clipPath>
    <clipPath
       clipPathUnits="userSpaceOnUse"
       id="clipPath72">
      <path
         d="m 505.88,235.164 h 138.964 v 44.493 H 505.88 Z"
         transform="translate(-611.30032,-265.72981)"
         id="path72" />
    </clipPath>
    <clipPath
       clipPathUnits="userSpaceOnUse"
       id="clipPath74">
      <path
         d="m 505.88,235.164 h 138.964 v 44.493 H 505.88 Z"
         transform="translate(-614.86082,-267.62681)"
         id="path74" />
    </clipPath>
    <clipPath
       clipPathUnits="userSpaceOnUse"
       id="clipPath76">
      <path
         d="m 505.88,235.164 h 138.964 v 44.493 H 505.88 Z"
         transform="translate(-625.60432,-265.88711)"
         id="path76" />
    </clipPath>
    <clipPath
       clipPathUnits="userSpaceOnUse"
       id="clipPath78">
      <path
         d="m 505.88,235.164 h 138.964 v 44.493 H 505.88 Z"
         transform="translate(-628.65221,-261.01661)"
         id="path78" />
    </clipPath>
    <clipPath
       clipPathUnits="userSpaceOnUse"
       id="clipPath80">
      <path
         d="m 505.88,235.164 h 138.964 v 44.493 H 505.88 Z"
         transform="translate(-635.36072,-264.07321)"
         id="path80" />
    </clipPath>
    <clipPath
       clipPathUnits="userSpaceOnUse"
       id="clipPath82">
      <path
         d="m 505.88,235.164 h 138.964 v 44.493 H 505.88 Z"
         transform="translate(-637.57961,-264.82681)"
         id="path82" />
    </clipPath>
    <clipPath
       clipPathUnits="userSpaceOnUse"
       id="clipPath84">
      <path
         d="m 505.88,235.164 h 138.964 v 44.493 H 505.88 Z"
         transform="translate(-644.49592,-262.31731)"
         id="path84" />
    </clipPath>
    <clipPath
       clipPathUnits="userSpaceOnUse"
       id="clipPath86">
      <path
         d="m 505.88,235.164 h 138.964 v 44.493 H 505.88 Z"
         transform="translate(-575.77871,-254.39621)"
         id="path86" />
    </clipPath>
    <clipPath
       clipPathUnits="userSpaceOnUse"
       id="clipPath88">
      <path
         d="m 505.88,235.164 h 138.964 v 44.493 H 505.88 Z"
         transform="translate(-582.15691,-249.52571)"
         id="path88" />
    </clipPath>
    <clipPath
       clipPathUnits="userSpaceOnUse"
       id="clipPath90">
      <path
         d="m 505.88,235.164 h 138.964 v 44.493 H 505.88 Z"
         transform="translate(-583.16651,-251.92781)"
         id="path90" />
    </clipPath>
    <clipPath
       clipPathUnits="userSpaceOnUse"
       id="clipPath92">
      <path
         d="m 505.88,235.164 h 138.964 v 44.493 H 505.88 Z"
         transform="translate(-588.57481,-252.33371)"
         id="path92" />
    </clipPath>
    <clipPath
       clipPathUnits="userSpaceOnUse"
       id="clipPath94">
      <path
         d="m 505.88,235.164 h 138.964 v 44.493 H 505.88 Z"
         transform="translate(-593.35361,-251.04991)"
         id="path94" />
    </clipPath>
    <clipPath
       clipPathUnits="userSpaceOnUse"
       id="clipPath96">
      <path
         d="m 505.88,235.164 h 138.964 v 44.493 H 505.88 Z"
         transform="translate(-596.23501,-252.33371)"
         id="path96" />
    </clipPath>
    <clipPath
       clipPathUnits="userSpaceOnUse"
       id="clipPath98">
      <path
         d="m 505.88,235.164 h 138.964 v 44.493 H 505.88 Z"
         transform="translate(-602.34802,-249.11981)"
         id="path98" />
    </clipPath>
    <clipPath
       clipPathUnits="userSpaceOnUse"
       id="clipPath100">
      <path
         d="m 505.88,235.164 h 138.964 v 44.493 H 505.88 Z"
         transform="translate(-606.09911,-247.75291)"
         id="path100" />
    </clipPath>
    <clipPath
       clipPathUnits="userSpaceOnUse"
       id="clipPath102">
      <path
         d="m 505.88,235.164 h 138.964 v 44.493 H 505.88 Z"
         transform="translate(-578.67791,-243.31631)"
         id="path102" />
    </clipPath>
    <clipPath
       clipPathUnits="userSpaceOnUse"
       id="clipPath104">
      <path
         d="m 505.88,235.164 h 138.964 v 44.493 H 505.88 Z"
         transform="translate(-584.93062,-241.35311)"
         id="path104" />
    </clipPath>
    <clipPath
       clipPathUnits="userSpaceOnUse"
       id="clipPath106">
      <path
         d="m 505.88,235.164 h 138.964 v 44.493 H 505.88 Z"
         id="path106" />
    </clipPath>
    <clipPath
       clipPathUnits="userSpaceOnUse"
       id="clipPath108">
      <path
         d="m 505.88,235.164 h 138.964 v 44.493 H 505.88 Z"
         transform="translate(-591.76342,-242.05741)"
         id="path108" />
    </clipPath>
    <clipPath
       clipPathUnits="userSpaceOnUse"
       id="clipPath110">
      <path
         d="m 505.88,235.164 h 138.964 v 44.493 H 505.88 Z"
         transform="translate(-592.72411,-245.039)"
         id="path110" />
    </clipPath>
    <clipPath
       clipPathUnits="userSpaceOnUse"
       id="clipPath112">
      <path
         d="m 505.88,235.164 h 138.964 v 44.493 H 505.88 Z"
         transform="translate(-602.04232,-242.1398)"
         id="path112" />
    </clipPath>
    <clipPath
       clipPathUnits="userSpaceOnUse"
       id="clipPath114">
      <path
         d="m 505.88,235.164 h 138.964 v 44.493 H 505.88 Z"
         transform="translate(-606.92801,-239.65531)"
         id="path114" />
    </clipPath>
    <clipPath
       clipPathUnits="userSpaceOnUse"
       id="clipPath116">
      <path
         d="m 505.88,235.164 h 138.964 v 44.493 H 505.88 Z"
         transform="translate(-609.33742,-243.14201)"
         id="path116" />
    </clipPath>
    <clipPath
       clipPathUnits="userSpaceOnUse"
       id="clipPath118">
      <path
         d="m 505.88,235.164 h 138.964 v 44.493 H 505.88 Z"
         transform="translate(-616.54442,-241.35311)"
         id="path118" />
    </clipPath>
    <clipPath
       clipPathUnits="userSpaceOnUse"
       id="clipPath120">
      <path
         d="m 505.88,235.164 h 138.964 v 44.493 H 505.88 Z"
         transform="translate(-618.50651,-242.2391)"
         id="path120" />
    </clipPath>
    <clipPath
       clipPathUnits="userSpaceOnUse"
       id="clipPath122">
      <path
         d="m 505.88,235.164 h 138.964 v 44.493 H 505.88 Z"
         transform="translate(-624.11351,-241.4855)"
         id="path122" />
    </clipPath>
    <clipPath
       clipPathUnits="userSpaceOnUse"
       id="clipPath124">
      <path
         d="m 505.88,235.164 h 138.964 v 44.493 H 505.88 Z"
         transform="translate(-631.02092,-241.4855)"
         id="path124" />
    </clipPath>
    <clipPath
       clipPathUnits="userSpaceOnUse"
       id="clipPath126">
      <path
         d="m 505.88,235.164 h 138.964 v 44.493 H 505.88 Z"
         transform="translate(-635.72512,-241.35311)"
         id="path126" />
    </clipPath>
    <clipPath
       clipPathUnits="userSpaceOnUse"
       id="clipPath128">
      <path
         d="m 505.88,235.164 h 138.964 v 44.493 H 505.88 Z"
         transform="translate(-640.07321,-241.4855)"
         id="path128" />
    </clipPath>
    <clipPath
       clipPathUnits="userSpaceOnUse"
       id="clipPath130">
      <path
         d="m 505.88,235.164 h 138.964 v 44.493 H 505.88 Z"
         transform="translate(-641.95331,-243.14201)"
         id="path130" />
    </clipPath>
    <clipPath
       clipPathUnits="userSpaceOnUse"
       id="clipPath132">
      <path
         d="m 505.88,235.164 h 138.964 v 44.493 H 505.88 Z"
         transform="translate(-505.88032,-262.58981)"
         id="path132" />
    </clipPath>
    <clipPath
       clipPathUnits="userSpaceOnUse"
       id="clipPath134">
      <path
         d="m 505.88,235.164 h 138.964 v 44.493 H 505.88 Z"
         transform="translate(-507.52372,-265.32571)"
         id="path134" />
    </clipPath>
    <clipPath
       clipPathUnits="userSpaceOnUse"
       id="clipPath136">
      <path
         d="m 505.88,235.164 h 138.964 v 44.493 H 505.88 Z"
         transform="translate(-508.36411,-263.10001)"
         id="path136" />
    </clipPath>
    <clipPath
       clipPathUnits="userSpaceOnUse"
       id="clipPath138">
      <path
         d="m 505.88,235.164 h 138.964 v 44.493 H 505.88 Z"
         transform="translate(-527.18171,-263.41991)"
         id="path138" />
    </clipPath>
    <clipPath
       clipPathUnits="userSpaceOnUse"
       id="clipPath140">
      <path
         d="m 505.88,235.164 h 138.964 v 44.493 H 505.88 Z"
         transform="translate(-547.15661,-277.3754)"
         id="path140" />
    </clipPath>
    <clipPath
       clipPathUnits="userSpaceOnUse"
       id="clipPath142">
      <path
         d="m 505.88,235.164 h 138.964 v 44.493 H 505.88 Z"
         transform="translate(-547.29082,-277.12841)"
         id="path142" />
    </clipPath>
    <clipPath
       clipPathUnits="userSpaceOnUse"
       id="clipPath144">
      <path
         d="m 505.88,235.164 h 138.964 v 44.493 H 505.88 Z"
         transform="translate(-553.99951,-271.40131)"
         id="path144" />
    </clipPath>
    <clipPath
       clipPathUnits="userSpaceOnUse"
       id="clipPath146">
      <path
         d="m 505.88,235.164 h 138.964 v 44.493 H 505.88 Z"
         transform="translate(-537.37921,-261.92501)"
         id="path146" />
    </clipPath>
    <clipPath
       clipPathUnits="userSpaceOnUse"
       id="clipPath148">
      <path
         d="m 505.88,235.164 h 138.964 v 44.493 H 505.88 Z"
         transform="translate(-548.65331,-264.7691)"
         id="path148" />
    </clipPath>
    <clipPath
       clipPathUnits="userSpaceOnUse"
       id="clipPath150">
      <path
         d="m 505.88,235.164 h 138.964 v 44.493 H 505.88 Z"
         transform="translate(-553.54211,-271.0667)"
         id="path150" />
    </clipPath>
    <clipPath
       clipPathUnits="userSpaceOnUse"
       id="clipPath152">
      <path
         d="m 505.88,235.164 h 138.964 v 44.493 H 505.88 Z"
         transform="translate(-535.95941,-254.63)"
         id="path152" />
    </clipPath>
    <clipPath
       clipPathUnits="userSpaceOnUse"
       id="clipPath154">
      <path
         d="m 505.88,235.164 h 138.964 v 44.493 H 505.88 Z"
         transform="translate(-510.25522,-241.36561)"
         id="path154" />
    </clipPath>
    <clipPath
       clipPathUnits="userSpaceOnUse"
       id="clipPath156">
      <path
         d="m 505.88,235.164 h 138.964 v 44.493 H 505.88 Z"
         transform="translate(-533.66281,-244.51841)"
         id="path156" />
    </clipPath>
    <clipPath
       clipPathUnits="userSpaceOnUse"
       id="clipPath158">
      <path
         d="m 505.88,235.164 h 138.964 v 44.493 H 505.88 Z"
         transform="translate(-542.64611,-240.8612)"
         id="path158" />
    </clipPath>
    <clipPath
       clipPathUnits="userSpaceOnUse"
       id="clipPath160">
      <path
         d="m 505.88,235.164 h 138.964 v 44.493 H 505.88 Z"
         transform="translate(-548.13532,-265.01401)"
         id="path160" />
    </clipPath>
    <clipPath
       clipPathUnits="userSpaceOnUse"
       id="clipPath162">
      <path
         d="m 505.88,235.164 h 138.964 v 44.493 H 505.88 Z"
         transform="translate(-518.78551,-269.88521)"
         id="path162" />
    </clipPath>
    <clipPath
       clipPathUnits="userSpaceOnUse"
       id="clipPath164">
      <path
         d="m 505.88,235.164 h 138.964 v 44.493 H 505.88 Z"
         transform="translate(-522.13252,-268.2131)"
         id="path164" />
    </clipPath>
    <clipPath
       clipPathUnits="userSpaceOnUse"
       id="clipPath166">
      <path
         d="m 505.88,235.164 h 138.964 v 44.493 H 505.88 Z"
         transform="translate(-519.71971,-251.61971)"
         id="path166" />
    </clipPath>
    <clipPath
       clipPathUnits="userSpaceOnUse"
       id="clipPath168">
      <path
         d="m 505.88,235.164 h 138.964 v 44.493 H 505.88 Z"
         transform="translate(-522.55271,-251.44771)"
         id="path168" />
    </clipPath>
    <clipPath
       clipPathUnits="userSpaceOnUse"
       id="clipPath170">
      <path
         d="m 505.88,235.164 h 138.964 v 44.493 H 505.88 Z"
         transform="translate(-524.86042,-249.51251)"
         id="path170" />
    </clipPath>
    <clipPath
       clipPathUnits="userSpaceOnUse"
       id="clipPath172">
      <path
         d="m 505.88,235.164 h 138.964 v 44.493 H 505.88 Z"
         transform="translate(-538.53922,-245.47721)"
         id="path172" />
    </clipPath>
    <clipPath
       clipPathUnits="userSpaceOnUse"
       id="clipPath174">
      <path
         d="m 505.88,235.164 h 138.964 v 44.493 H 505.88 Z"
         transform="translate(-540.56452,-249.59921)"
         id="path174" />
    </clipPath>
    <clipPath
       clipPathUnits="userSpaceOnUse"
       id="clipPath176">
      <path
         d="m 505.88,235.164 h 138.964 v 44.493 H 505.88 Z"
         transform="translate(-548.35882,-241.19651)"
         id="path176" />
    </clipPath>
    <clipPath
       clipPathUnits="userSpaceOnUse"
       id="clipPath178">
      <path
         d="m 505.88,235.164 h 138.964 v 44.493 H 505.88 Z"
         transform="translate(-551.51501,-258.39131)"
         id="path178" />
    </clipPath>
    <clipPath
       clipPathUnits="userSpaceOnUse"
       id="clipPath180">
      <path
         d="m 505.88,235.164 h 138.964 v 44.493 H 505.88 Z"
         transform="translate(-521.20541,-273.00791)"
         id="path180" />
    </clipPath>
  </defs>
  <g
     inkscape:label="Layer 1"
     inkscape:groupmode="layer"
     id="layer1"
     transform="translate(-80.433325,-141.02292)">
    <g
       id="g32"
       transform="matrix(0.27910872,0,0,0.27910872,-107.82748,23.28779)"
       style="fill:#1a1a1a">
      <g
         id="group-MC0"
         style="fill:#1a1a1a" />
      <path
         id="path33"
         d="m 567.175,235.913 h 0.822 v 42.994 h -0.822 z"
         style="fill:#1a1a1a;fill-opacity:1;fill-rule:nonzero;stroke:none"
         transform="matrix(1.3333333,0,0,-1.3333333,0,793.70133)" />
      <path
         id="path34"
         d="M 0,0 -0.887,2.882 H -0.903 L -1.815,0 Z M -0.472,3.644 1.416,-2.137 H 0.654 L 0.19,-0.63 h -2.203 l -0.464,-1.507 h -0.729 l 1.938,5.781 z"
         style="fill:#1a1a1a;fill-opacity:1;fill-rule:nonzero;stroke:none"
         transform="matrix(1.3333333,0,0,-1.3333333,771.21773,429.24827)" />
      <path
         id="path35"
         d="M 0,0 C 0,0.307 -0.025,0.613 -0.033,0.911 H 0.638 L 0.663,0.249 h 0.016 c 0.224,0.513 0.58,0.72 1.202,0.72 V 0.282 C 1.798,0.298 1.706,0.307 1.615,0.307 1.076,0.307 0.696,-0.157 0.696,-1.076 V -3.313 H 0 Z"
         style="fill:#1a1a1a;fill-opacity:1;fill-rule:nonzero;stroke:none"
         transform="matrix(1.3333333,0,0,-1.3333333,773.86667,427.68053)"
         clip-path="url(#clipPath36)" />
      <path
         id="path37"
         d="m 582.917,275.427 h 0.696 v -4.224 h -0.696 z m 0.73,0.911 h -0.762 v 0.828 h 0.762 z"
         style="fill:#1a1a1a;fill-opacity:1;fill-rule:nonzero;stroke:none"
         transform="matrix(1.3333333,0,0,-1.3333333,0,793.70133)"
         clip-path="url(#clipPath38)" />
      <path
         id="path39"
         d="M 0,0 C 0,0.878 -0.273,1.317 -0.827,1.317 -1.275,1.317 -1.672,0.986 -1.69,0 Z m -1.69,-0.53 c 0,-0.977 0.381,-1.433 1.152,-1.433 0.348,0 0.729,0.174 0.969,0.348 l 0.034,-0.63 c -0.332,-0.157 -0.762,-0.248 -1.186,-0.248 -1.117,0 -1.697,0.844 -1.697,2.17 0,1.325 0.58,2.17 1.632,2.17 0.952,0 1.482,-0.762 1.482,-2.004 V -0.53 Z"
         style="fill:#1a1a1a;fill-opacity:1;fill-rule:nonzero;stroke:none"
         transform="matrix(1.3333333,0,0,-1.3333333,782.53467,428.8512)"
         clip-path="url(#clipPath40)" />
      <path
         id="path41"
         d="M 0,0 C 0,0.307 -0.025,0.613 -0.034,0.911 H 0.637 L 0.663,0.282 h 0.016 c 0.224,0.48 0.58,0.687 1.068,0.687 0.738,0 1.235,-0.422 1.235,-1.35 V -3.313 H 2.286 v 2.725 c 0,0.671 -0.249,0.961 -0.697,0.961 -0.546,0 -0.893,-0.381 -0.893,-1.143 V -3.313 H 0 Z"
         style="fill:#1a1a1a;fill-opacity:1;fill-rule:nonzero;stroke:none"
         transform="matrix(1.3333333,0,0,-1.3333333,784.49027,427.68053)"
         clip-path="url(#clipPath42)" />
      <path
         id="path43"
         d="m 0,0 c 0,0.307 -0.024,0.613 -0.032,0.911 h 0.67 L 0.663,0.282 H 0.68 c 0.224,0.48 0.58,0.687 1.069,0.687 0.736,0 1.233,-0.422 1.233,-1.35 V -3.313 H 2.287 v 2.725 c 0,0.671 -0.248,0.961 -0.695,0.961 -0.548,0 -0.896,-0.381 -0.896,-1.143 V -3.313 H 0 Z"
         style="fill:#1a1a1a;fill-opacity:1;fill-rule:nonzero;stroke:none"
         transform="matrix(1.3333333,0,0,-1.3333333,789.81093,427.68053)"
         clip-path="url(#clipPath44)" />
      <path
         id="path45"
         d="m 596.417,275.427 h 0.696 v -4.224 h -0.696 z m 0.729,0.911 h -0.762 v 0.828 h 0.762 z"
         style="fill:#1a1a1a;fill-opacity:1;fill-rule:nonzero;stroke:none"
         transform="matrix(1.3333333,0,0,-1.3333333,0,793.70133)"
         clip-path="url(#clipPath46)" />
      <path
         id="path47"
         d="M 0,0 C 0,0.307 -0.026,0.613 -0.033,0.911 H 0.638 L 0.663,0.249 h 0.016 c 0.224,0.513 0.58,0.72 1.202,0.72 V 0.282 C 1.797,0.298 1.706,0.307 1.615,0.307 c -0.539,0 -0.92,-0.464 -0.92,-1.383 V -3.313 H 0 Z"
         style="fill:#1a1a1a;fill-opacity:1;fill-rule:nonzero;stroke:none"
         transform="matrix(1.3333333,0,0,-1.3333333,797.58613,427.68053)"
         clip-path="url(#clipPath48)" />
      <path
         id="path49"
         d="M 0,0 C 0.638,0 0.928,0.547 0.928,1.607 0.928,2.668 0.638,3.214 0,3.214 -0.638,3.214 -0.928,2.668 -0.928,1.607 -0.928,0.547 -0.638,0 0,0 m 1.623,-0.687 c 0,-1.168 -0.878,-1.657 -1.805,-1.657 -0.356,0 -0.929,0.132 -1.234,0.257 l 0.033,0.704 c 0.298,-0.199 0.778,-0.365 1.159,-0.365 0.853,0 1.185,0.505 1.185,1.235 V 0.149 H 0.944 c -0.273,-0.48 -0.646,-0.712 -1.11,-0.712 -0.869,0 -1.457,0.712 -1.457,2.17 0,1.458 0.588,2.17 1.532,2.17 0.422,0 0.803,-0.265 1.035,-0.67 H 0.961 L 0.986,3.719 H 1.657 C 1.648,3.471 1.623,3.206 1.623,2.949 Z"
         style="fill:#1a1a1a;fill-opacity:1;fill-rule:nonzero;stroke:none"
         transform="matrix(1.3333333,0,0,-1.3333333,805.39347,431.42467)"
         clip-path="url(#clipPath50)" />
      <path
         id="path51"
         d="m 0,0 c -0.124,0.017 -0.298,0.017 -0.489,0.017 -0.82,0 -1.209,-0.39 -1.209,-0.878 0,-0.448 0.232,-0.737 0.712,-0.737 0.606,0 0.986,0.489 0.986,1.068 z m -2.021,1.864 c 0.348,0.223 0.779,0.348 1.193,0.348 0.621,0 0.994,-0.265 1.127,-0.397 C 0.48,1.632 0.663,1.375 0.663,0.779 v -2.203 c 0,-0.249 0.017,-0.497 0.033,-0.647 h -0.63 l -0.04,0.572 H 0.008 c -0.19,-0.323 -0.538,-0.63 -1.184,-0.63 -0.696,0 -1.218,0.406 -1.218,1.218 0,0.82 0.539,1.425 1.988,1.425 H 0 v 0.19 c 0,0.315 -0.025,0.497 -0.157,0.68 -0.141,0.19 -0.414,0.265 -0.704,0.265 -0.431,0 -0.845,-0.174 -1.086,-0.439 z"
         style="fill:#1a1a1a;fill-opacity:1;fill-rule:nonzero;stroke:none"
         transform="matrix(1.3333333,0,0,-1.3333333,811.73213,429.33747)"
         clip-path="url(#clipPath52)" />
      <path
         id="path53"
         d="m 0,0 c 0,0.307 -0.024,0.613 -0.032,0.911 h 0.67 L 0.663,0.282 h 0.016 c 0.224,0.48 0.581,0.687 1.069,0.687 0.737,0 1.234,-0.422 1.234,-1.35 V -3.313 H 2.287 v 2.725 c 0,0.671 -0.249,0.961 -0.696,0.961 -0.547,0 -0.895,-0.381 -0.895,-1.143 V -3.313 H 0 Z"
         style="fill:#1a1a1a;fill-opacity:1;fill-rule:nonzero;stroke:none"
         transform="matrix(1.3333333,0,0,-1.3333333,813.92867,427.68053)"
         clip-path="url(#clipPath54)" />
      <path
         id="path55"
         d="M 0,0 H 1.358 V -4.738 H 3.272 V -5.781 H 0 Z"
         style="fill:#1a1a1a;fill-opacity:1;fill-rule:nonzero;stroke:none"
         transform="matrix(1.3333333,0,0,-1.3333333,767.58347,437.44013)"
         clip-path="url(#clipPath56)" />
      <path
         id="path57"
         d="m 0,0 c -0.322,-1.01 -0.778,-1.441 -1.507,-1.441 -0.232,0 -0.564,0.041 -0.787,0.107 l 0.041,0.97 c 0.083,-0.05 0.224,-0.1 0.415,-0.1 0.439,0 0.645,0.489 0.645,0.862 l -1.498,4.315 h 1.358 L -0.529,1.79 h 0.016 l 0.761,2.923 h 1.277 z"
         style="fill:#1a1a1a;fill-opacity:1;fill-rule:nonzero;stroke:none"
         transform="matrix(1.3333333,0,0,-1.3333333,775.402,445.6792)"
         clip-path="url(#clipPath58)" />
      <path
         id="path59"
         d="M 0,0 0.629,-3.073 H 0.645 L 1.259,0 H 2.75 L 3.339,-3.073 H 3.354 L 3.959,0 H 5.201 L 4.05,-4.315 H 2.659 L 1.955,-1.16 H 1.938 L 1.275,-4.315 H -0.15 L -1.309,0 Z"
         style="fill:#1a1a1a;fill-opacity:1;fill-rule:nonzero;stroke:none"
         transform="matrix(1.3333333,0,0,-1.3333333,779.29,439.39493)"
         clip-path="url(#clipPath60)" />
      <path
         id="path61"
         d="M 0,0 C 0.456,0 0.671,0.496 0.671,1.342 0.671,2.187 0.456,2.659 0,2.659 -0.456,2.659 -0.67,2.187 -0.67,1.342 -0.67,0.496 -0.456,0 0,0 m 0,3.554 c 1.325,0 2.029,-0.92 2.029,-2.212 0,-1.309 -0.704,-2.237 -2.029,-2.237 -1.325,0 -2.029,0.928 -2.029,2.237 0,1.292 0.704,2.212 2.029,2.212"
         style="fill:#1a1a1a;fill-opacity:1;fill-rule:nonzero;stroke:none"
         transform="matrix(1.3333333,0,0,-1.3333333,789.44853,444.044)"
         clip-path="url(#clipPath62)" />
      <path
         id="path63"
         d="M 0,0 C 0.538,0 0.654,0.779 0.654,1.276 0.654,1.963 0.529,2.61 0,2.61 -0.581,2.61 -0.63,1.963 -0.63,1.276 -0.63,0.829 -0.597,0 0,0 m 1.963,0.091 c 0,-0.546 0.016,-0.77 0.032,-0.969 H 0.753 C 0.736,-0.712 0.721,-0.489 0.721,-0.19 H 0.703 c -0.132,-0.265 -0.422,-0.754 -1.175,-0.754 -0.97,0 -1.516,0.952 -1.516,2.328 0,1.159 0.431,2.12 1.516,2.12 0.605,0 0.952,-0.315 1.11,-0.704 h 0.016 v 2.534 h 1.309 z"
         style="fill:#1a1a1a;fill-opacity:1;fill-rule:nonzero;stroke:none"
         transform="matrix(1.3333333,0,0,-1.3333333,795.73293,443.97827)"
         clip-path="url(#clipPath64)" />
      <path
         id="path65"
         d="M 0,0 C 0,0.415 -0.008,0.679 -0.034,0.903 H 1.159 C 1.168,0.646 1.184,0.382 1.193,0.124 H 1.209 C 1.474,0.588 1.656,0.97 2.411,0.97 h 0.19 v -1.21 c -0.14,0.033 -0.256,0.05 -0.439,0.05 -0.762,0 -0.853,-0.663 -0.853,-1.292 v -1.93 H 0 Z"
         style="fill:#1a1a1a;fill-opacity:1;fill-rule:nonzero;stroke:none"
         transform="matrix(1.3333333,0,0,-1.3333333,799.56387,440.59893)"
         clip-path="url(#clipPath66)" />
      <path
         id="path67"
         d="m 0,0 c -0.522,0 -1.342,-0.033 -1.342,-0.754 0,-0.564 0.456,-0.564 0.563,-0.564 0.116,0 0.779,0.017 0.779,1.07 z m -2.062,2.029 c 0.339,0.108 0.919,0.274 1.391,0.274 1.516,0 1.864,-0.63 1.864,-1.591 v -1.574 c 0,-0.637 0.008,-0.928 0.033,-1.217 H 0.033 L 0,-1.483 h -0.017 c -0.057,-0.265 -0.563,-0.663 -1.184,-0.663 -0.804,0 -1.333,0.523 -1.333,1.309 0,1.441 1.68,1.449 2.136,1.449 H 0 c 0,0.829 -0.613,0.829 -0.803,0.829 -0.332,0 -0.688,-0.075 -1.202,-0.381 z"
         style="fill:#1a1a1a;fill-opacity:1;fill-rule:nonzero;stroke:none"
         transform="matrix(1.3333333,0,0,-1.3333333,806.808,442.3764)"
         clip-path="url(#clipPath68)" />
      <path
         id="path69"
         d="M 0,0 C 0,0.547 -0.14,1.06 -0.679,1.06 -1.35,1.06 -1.35,0.232 -1.35,0 Z M 1.193,-0.712 H -1.35 c 0,-0.514 0.331,-0.986 1.069,-0.986 0.447,0 0.895,0.166 1.218,0.339 l 0.024,-0.985 c -0.423,-0.157 -0.92,-0.249 -1.367,-0.249 -1.515,0 -2.186,0.919 -2.186,2.237 0,1.16 0.679,2.212 1.913,2.212 0.39,0 1.872,0 1.872,-2.254 z"
         style="fill:#1a1a1a;fill-opacity:1;fill-rule:nonzero;stroke:none"
         transform="matrix(1.3333333,0,0,-1.3333333,812.90253,441.78027)"
         clip-path="url(#clipPath70)" />
      <path
         id="path71"
         d="M 0,0 H 0.745 V 0.887 L 2.021,1.293 V 0 H 2.866 V -0.919 H 2.021 v -1.98 c 0,-0.422 0.19,-0.538 0.439,-0.538 0.182,0 0.298,0.033 0.431,0.091 V -4.265 C 2.758,-4.315 2.402,-4.382 1.98,-4.382 c -0.68,0 -1.268,0.331 -1.268,1.276 v 2.187 H 0 Z"
         style="fill:#1a1a1a;fill-opacity:1;fill-rule:nonzero;stroke:none"
         transform="matrix(1.3333333,0,0,-1.3333333,815.06707,439.39493)"
         clip-path="url(#clipPath72)" />
      <path
         id="path73"
         d="m 0,0 h 1.309 v -2.534 h 0.017 c 0.149,0.48 0.63,0.704 1.102,0.704 0.952,0 1.267,-0.696 1.267,-1.557 V -6.212 H 2.386 v 2.658 c 0,0.539 -0.24,0.68 -0.505,0.68 -0.422,0 -0.572,-0.365 -0.572,-0.919 V -6.212 H 0 Z"
         style="fill:#1a1a1a;fill-opacity:1;fill-rule:nonzero;stroke:none"
         transform="matrix(1.3333333,0,0,-1.3333333,819.8144,436.8656)"
         clip-path="url(#clipPath74)" />
      <path
         id="path75"
         d="m 0,0 c -0.208,0.116 -0.556,0.332 -1.177,0.332 -0.911,0 -1.49,-0.738 -1.49,-1.905 0,-1.127 0.654,-1.889 1.515,-1.889 0.663,0 1.053,0.248 1.185,0.306 l 0.05,-1.209 c -0.232,-0.075 -0.713,-0.207 -1.45,-0.207 -1.582,0 -2.693,1.185 -2.693,3.015 0,2.121 1.426,2.966 2.602,2.966 0.862,0 1.301,-0.191 1.524,-0.282 z"
         style="fill:#1a1a1a;fill-opacity:1;fill-rule:nonzero;stroke:none"
         transform="matrix(1.3333333,0,0,-1.3333333,834.13907,439.1852)"
         clip-path="url(#clipPath76)" />
      <path
         id="path77"
         d="m 0,0 c -0.324,-1.01 -0.78,-1.441 -1.507,-1.441 -0.233,0 -0.564,0.041 -0.788,0.107 l 0.042,0.97 c 0.082,-0.05 0.223,-0.1 0.413,-0.1 0.44,0 0.647,0.489 0.647,0.862 l -1.5,4.315 h 1.359 L -0.531,1.79 h 0.017 l 0.762,2.923 h 1.275 z"
         style="fill:#1a1a1a;fill-opacity:1;fill-rule:nonzero;stroke:none"
         transform="matrix(1.3333333,0,0,-1.3333333,838.20293,445.6792)"
         clip-path="url(#clipPath78)" />
      <path
         id="path79"
         d="m 0,0 c 0,0.497 -0.208,0.679 -0.497,0.679 -0.39,0 -0.538,-0.281 -0.538,-0.604 v -2.734 h -1.31 V 0 c 0,0.547 -0.24,0.679 -0.455,0.679 -0.431,0 -0.58,-0.372 -0.58,-0.919 v -2.419 h -1.308 v 3.413 c 0,0.414 -0.01,0.679 -0.034,0.903 h 1.193 c 0.017,-0.191 0.033,-0.431 0.033,-0.721 h 0.017 c 0.198,0.472 0.531,0.787 1.217,0.787 0.622,0 0.937,-0.29 1.119,-0.721 0.19,0.406 0.496,0.721 1.184,0.721 0.953,0 1.268,-0.696 1.268,-1.557 V -2.659 H 0 Z"
         style="fill:#1a1a1a;fill-opacity:1;fill-rule:nonzero;stroke:none"
         transform="matrix(1.3333333,0,0,-1.3333333,847.1476,441.60373)"
         clip-path="url(#clipPath80)" />
      <path
         id="path81"
         d="M 0,0 C 0,0.415 -0.009,0.679 -0.034,0.903 H 1.159 C 1.168,0.646 1.184,0.382 1.193,0.124 H 1.209 C 1.474,0.588 1.656,0.97 2.41,0.97 h 0.191 v -1.21 c -0.14,0.033 -0.257,0.05 -0.439,0.05 -0.762,0 -0.853,-0.663 -0.853,-1.292 v -1.93 H 0 Z"
         style="fill:#1a1a1a;fill-opacity:1;fill-rule:nonzero;stroke:none"
         transform="matrix(1.3333333,0,0,-1.3333333,850.10613,440.59893)"
         clip-path="url(#clipPath82)" />
      <path
         id="path83"
         d="M 0,0 C 0,-0.414 0.008,-0.679 0.032,-0.903 H -1.16 c -0.017,0.191 -0.033,0.431 -0.033,0.721 H -1.21 c -0.199,-0.472 -0.53,-0.787 -1.218,-0.787 -0.953,0 -1.267,0.696 -1.267,1.557 v 2.824 h 1.309 V 0.754 c 0,-0.539 0.24,-0.68 0.505,-0.68 0.423,0 0.572,0.365 0.572,0.92 V 3.412 H 0 Z"
         style="fill:#1a1a1a;fill-opacity:1;fill-rule:nonzero;stroke:none"
         transform="matrix(1.3333333,0,0,-1.3333333,859.32787,443.94493)"
         clip-path="url(#clipPath84)" />
      <path
         id="path85"
         d="M 0,0 H 2.584 V -0.629 H 0.729 v -1.839 h 1.764 v -0.63 H 0.729 V -5.781 H 0 Z"
         style="fill:#1a1a1a;fill-opacity:1;fill-rule:nonzero;stroke:none"
         transform="matrix(1.3333333,0,0,-1.3333333,767.70493,454.5064)"
         clip-path="url(#clipPath86)" />
      <path
         id="path87"
         d="m 0,0 c 0,-0.307 0.024,-0.613 0.033,-0.911 h -0.671 l -0.025,0.629 H -0.68 c -0.224,-0.48 -0.58,-0.687 -1.068,-0.687 -0.738,0 -1.235,0.423 -1.235,1.35 v 2.932 h 0.697 V 0.588 c 0,-0.67 0.248,-0.961 0.695,-0.961 0.547,0 0.895,0.381 0.895,1.144 V 3.313 H 0 Z"
         style="fill:#1a1a1a;fill-opacity:1;fill-rule:nonzero;stroke:none"
         transform="matrix(1.3333333,0,0,-1.3333333,776.2092,461.0004)"
         clip-path="url(#clipPath88)" />
      <path
         id="path89"
         d="M 0,0 C 0,0.307 -0.026,0.613 -0.033,0.911 H 0.638 L 0.663,0.282 h 0.016 c 0.224,0.48 0.579,0.687 1.069,0.687 0.737,0 1.234,-0.422 1.234,-1.35 V -3.313 H 2.287 v 2.725 c 0,0.671 -0.249,0.961 -0.697,0.961 -0.546,0 -0.895,-0.381 -0.895,-1.143 V -3.313 H 0 Z"
         style="fill:#1a1a1a;fill-opacity:1;fill-rule:nonzero;stroke:none"
         transform="matrix(1.3333333,0,0,-1.3333333,777.55533,457.7976)"
         clip-path="url(#clipPath90)" />
      <path
         id="path91"
         d="m 0,0 c -0.638,0 -0.928,-0.546 -0.928,-1.607 0,-1.06 0.29,-1.607 0.928,-1.607 0.638,0 0.928,0.547 0.928,1.607 C 0.928,-0.546 0.638,0 0,0 m 1.623,-2.94 c 0,-0.257 0.026,-0.522 0.033,-0.779 H 0.986 L 0.96,-3.098 H 0.944 c -0.182,-0.331 -0.497,-0.679 -1.11,-0.679 -0.869,0 -1.457,0.712 -1.457,2.17 0,1.458 0.588,2.17 1.457,2.17 0.481,0 0.795,-0.19 1.077,-0.637 h 0.017 v 2.567 h 0.695 z"
         style="fill:#1a1a1a;fill-opacity:1;fill-rule:nonzero;stroke:none"
         transform="matrix(1.3333333,0,0,-1.3333333,784.7664,457.2564)"
         clip-path="url(#clipPath92)" />
      <path
         id="path93"
         d="M 0,0 C 0,0.878 -0.273,1.317 -0.829,1.317 -1.276,1.317 -1.673,0.986 -1.69,0 Z m -1.69,-0.53 c 0,-0.977 0.381,-1.433 1.152,-1.433 0.348,0 0.728,0.174 0.969,0.348 l 0.033,-0.63 c -0.331,-0.157 -0.762,-0.248 -1.185,-0.248 -1.118,0 -1.697,0.844 -1.697,2.17 0,1.325 0.579,2.17 1.631,2.17 0.953,0 1.483,-0.762 1.483,-2.004 V -0.53 Z"
         style="fill:#1a1a1a;fill-opacity:1;fill-rule:nonzero;stroke:none"
         transform="matrix(1.3333333,0,0,-1.3333333,791.13813,458.96813)"
         clip-path="url(#clipPath94)" />
      <path
         id="path95"
         d="m 0,0 c -0.638,0 -0.928,-0.546 -0.928,-1.607 0,-1.06 0.29,-1.607 0.928,-1.607 0.638,0 0.928,0.547 0.928,1.607 C 0.928,-0.546 0.638,0 0,0 m 1.623,-2.94 c 0,-0.257 0.025,-0.522 0.034,-0.779 H 0.986 L 0.961,-3.098 H 0.945 c -0.182,-0.331 -0.497,-0.679 -1.11,-0.679 -0.87,0 -1.458,0.712 -1.458,2.17 0,1.458 0.588,2.17 1.458,2.17 0.48,0 0.795,-0.19 1.077,-0.637 h 0.016 v 2.567 h 0.695 z"
         style="fill:#1a1a1a;fill-opacity:1;fill-rule:nonzero;stroke:none"
         transform="matrix(1.3333333,0,0,-1.3333333,794.98,457.2564)"
         clip-path="url(#clipPath96)" />
      <path
         id="path97"
         d="M 0,0 C 0.638,0 0.928,0.547 0.928,1.607 0.928,2.668 0.638,3.214 0,3.214 -0.638,3.214 -0.928,2.668 -0.928,1.607 -0.928,0.547 -0.638,0 0,0 m -1.623,5.707 h 0.695 V 3.14 h 0.016 c 0.283,0.447 0.597,0.637 1.078,0.637 0.869,0 1.457,-0.712 1.457,-2.17 0,-1.458 -0.588,-2.17 -1.457,-2.17 -0.613,0 -0.929,0.348 -1.11,0.679 h -0.017 l -0.025,-0.621 h -0.671 c 0.009,0.256 0.034,0.522 0.034,0.779 z"
         style="fill:#1a1a1a;fill-opacity:1;fill-rule:nonzero;stroke:none"
         transform="matrix(1.3333333,0,0,-1.3333333,803.13067,461.5416)"
         clip-path="url(#clipPath98)" />
      <path
         id="path99"
         d="m 0,0 c -0.207,-0.721 -0.504,-0.977 -1.035,-0.977 -0.166,0 -0.347,0.017 -0.472,0.05 l 0.033,0.629 c 0.108,-0.05 0.232,-0.083 0.381,-0.083 0.199,0 0.348,0.091 0.464,0.53 l 0.166,0.647 -1.333,4.29 h 0.728 L -0.124,1.64 h 0.017 l 0.878,3.446 h 0.696 z"
         style="fill:#1a1a1a;fill-opacity:1;fill-rule:nonzero;stroke:none"
         transform="matrix(1.3333333,0,0,-1.3333333,808.13213,463.36413)"
         clip-path="url(#clipPath100)" />
      <path
         id="path101"
         d="m 0,0 h -0.016 l -0.721,-4.49 h -1.591 l -1.159,5.782 h 1.308 l 0.697,-4.108 h 0.016 l 0.687,4.108 H 0.812 L 1.516,-2.816 H 1.532 L 2.278,1.292 H 3.471 L 2.336,-4.49 h -1.59 z"
         style="fill:#1a1a1a;fill-opacity:1;fill-rule:nonzero;stroke:none"
         transform="matrix(1.3333333,0,0,-1.3333333,771.57053,469.2796)"
         clip-path="url(#clipPath102)" />
      <path
         id="path103"
         d="M 0,0 C 0,0.547 -0.14,1.06 -0.679,1.06 -1.35,1.06 -1.35,0.232 -1.35,0 Z M 1.193,-0.712 H -1.35 c 0,-0.514 0.331,-0.986 1.069,-0.986 0.447,0 0.895,0.166 1.218,0.339 l 0.024,-0.985 c -0.423,-0.157 -0.92,-0.249 -1.367,-0.249 -1.515,0 -2.186,0.919 -2.186,2.237 0,1.16 0.679,2.212 1.913,2.212 0.389,0 1.872,0 1.872,-2.254 z"
         style="fill:#1a1a1a;fill-opacity:1;fill-rule:nonzero;stroke:none"
         transform="matrix(1.3333333,0,0,-1.3333333,779.90747,471.8972)"
         clip-path="url(#clipPath104)" />
      <path
         id="path105"
         d="m 586.935,245.039 h 1.309 v -6.212 h -1.309 z"
         style="fill:#1a1a1a;fill-opacity:1;fill-rule:nonzero;stroke:none"
         transform="matrix(1.3333333,0,0,-1.3333333,0,793.70133)"
         clip-path="url(#clipPath106)" />
      <path
         id="path107"
         d="m 0,0 c -0.347,0.14 -0.671,0.232 -1.052,0.232 -0.339,0 -0.488,-0.166 -0.488,-0.315 0,-0.266 0.19,-0.356 0.903,-0.621 0.447,-0.166 0.903,-0.447 0.903,-1.259 0,-0.961 -0.721,-1.334 -1.591,-1.334 -0.381,0 -0.961,0.041 -1.416,0.207 l 0.033,1.011 c 0.315,-0.191 0.712,-0.299 1.076,-0.299 0.614,0 0.655,0.216 0.655,0.406 0,0.19 -0.34,0.274 -0.903,0.506 -0.456,0.19 -0.903,0.554 -0.903,1.325 0,0.464 0.332,1.292 1.615,1.292 0.539,0 0.986,-0.1 1.201,-0.174 z"
         style="fill:#1a1a1a;fill-opacity:1;fill-rule:nonzero;stroke:none"
         transform="matrix(1.3333333,0,0,-1.3333333,789.01787,470.95813)"
         clip-path="url(#clipPath108)" />
      <path
         id="path109"
         d="m 0,0 h 1.309 v -2.535 h 0.017 c 0.148,0.481 0.629,0.705 1.101,0.705 0.953,0 1.268,-0.696 1.268,-1.557 V -6.212 H 2.386 v 2.658 c 0,0.539 -0.241,0.68 -0.506,0.68 -0.422,0 -0.571,-0.365 -0.571,-0.919 V -6.212 H 0 Z"
         style="fill:#1a1a1a;fill-opacity:1;fill-rule:nonzero;stroke:none"
         transform="matrix(1.3333333,0,0,-1.3333333,790.2988,466.98267)"
         clip-path="url(#clipPath110)" />
      <path
         id="path111"
         d="M 0,0 H 2.037 V -3.106 C 1.731,-3.247 1.051,-3.412 0.123,-3.412 c -1.076,0 -2.757,0.546 -2.757,3.023 0,1.416 0.794,2.957 2.998,2.957 0.68,0 1.168,-0.133 1.516,-0.232 L 1.797,1.201 c -0.29,0.133 -0.729,0.323 -1.325,0.323 -1.433,0 -1.715,-1.317 -1.715,-1.971 0,-1.077 0.498,-1.922 1.533,-1.922 0.198,0 0.355,0.025 0.472,0.083 v 1.309 H 0 Z"
         style="fill:#1a1a1a;fill-opacity:1;fill-rule:nonzero;stroke:none"
         transform="matrix(1.3333333,0,0,-1.3333333,802.72307,470.84827)"
         clip-path="url(#clipPath112)" />
      <path
         id="path113"
         d="M 0,0 C 0.456,0 0.672,0.496 0.672,1.342 0.672,2.187 0.456,2.659 0,2.659 -0.455,2.659 -0.672,2.187 -0.672,1.342 -0.672,0.496 -0.455,0 0,0 m 0,3.554 c 1.326,0 2.03,-0.92 2.03,-2.212 0,-1.309 -0.704,-2.237 -2.03,-2.237 -1.326,0 -2.029,0.928 -2.029,2.237 0,1.292 0.703,2.212 2.029,2.212"
         style="fill:#1a1a1a;fill-opacity:1;fill-rule:nonzero;stroke:none"
         transform="matrix(1.3333333,0,0,-1.3333333,809.23733,474.16093)"
         clip-path="url(#clipPath114)" />
      <path
         id="path115"
         d="M 0,0 H 1.359 L 2.155,-3.073 H 2.171 L 2.957,0 H 4.234 L 2.883,-4.315 H 1.342 Z"
         style="fill:#1a1a1a;fill-opacity:1;fill-rule:nonzero;stroke:none"
         transform="matrix(1.3333333,0,0,-1.3333333,812.44987,469.512)"
         clip-path="url(#clipPath116)" />
      <path
         id="path117"
         d="M 0,0 C 0,0.547 -0.141,1.06 -0.68,1.06 -1.351,1.06 -1.351,0.232 -1.351,0 Z m 1.193,-0.712 h -2.544 c 0,-0.514 0.332,-0.986 1.069,-0.986 0.447,0 0.894,0.166 1.218,0.339 l 0.025,-0.985 c -0.423,-0.157 -0.92,-0.249 -1.368,-0.249 -1.515,0 -2.187,0.919 -2.187,2.237 0,1.16 0.68,2.212 1.914,2.212 0.389,0 1.873,0 1.873,-2.254 z"
         style="fill:#1a1a1a;fill-opacity:1;fill-rule:nonzero;stroke:none"
         transform="matrix(1.3333333,0,0,-1.3333333,822.0592,471.8972)"
         clip-path="url(#clipPath118)" />
      <path
         id="path119"
         d="M 0,0 C 0,0.415 -0.009,0.679 -0.034,0.903 H 1.16 C 1.168,0.646 1.184,0.382 1.193,0.124 H 1.208 C 1.474,0.588 1.656,0.97 2.41,0.97 h 0.191 v -1.21 c -0.14,0.033 -0.257,0.05 -0.439,0.05 -0.762,0 -0.853,-0.663 -0.853,-1.292 v -1.93 H 0 Z"
         style="fill:#1a1a1a;fill-opacity:1;fill-rule:nonzero;stroke:none"
         transform="matrix(1.3333333,0,0,-1.3333333,824.67533,470.71587)"
         clip-path="url(#clipPath120)" />
      <path
         id="path121"
         d="m 0,0 c 0,0.539 -0.24,0.679 -0.506,0.679 -0.422,0 -0.571,-0.364 -0.571,-0.919 v -2.419 h -1.309 v 3.413 c 0,0.414 -0.008,0.679 -0.033,0.903 h 1.192 c 0.018,-0.191 0.034,-0.431 0.034,-0.721 h 0.017 c 0.198,0.472 0.53,0.787 1.217,0.787 0.954,0 1.268,-0.696 1.268,-1.557 V -2.659 H 0 Z"
         style="fill:#1a1a1a;fill-opacity:1;fill-rule:nonzero;stroke:none"
         transform="matrix(1.3333333,0,0,-1.3333333,832.15133,471.72067)"
         clip-path="url(#clipPath122)" />
      <path
         id="path123"
         d="m 0,0 c 0,0.497 -0.206,0.679 -0.497,0.679 -0.389,0 -0.538,-0.281 -0.538,-0.604 V -2.659 H -2.344 V 0 c 0,0.547 -0.24,0.679 -0.456,0.679 -0.43,0 -0.579,-0.372 -0.579,-0.919 v -2.419 h -1.309 v 3.413 c 0,0.414 -0.008,0.679 -0.033,0.903 h 1.194 c 0.015,-0.191 0.032,-0.431 0.032,-0.721 h 0.016 c 0.2,0.472 0.531,0.787 1.218,0.787 0.621,0 0.936,-0.29 1.119,-0.721 0.19,0.406 0.497,0.721 1.184,0.721 0.952,0 1.267,-0.696 1.267,-1.557 V -2.659 H 0 Z"
         style="fill:#1a1a1a;fill-opacity:1;fill-rule:nonzero;stroke:none"
         transform="matrix(1.3333333,0,0,-1.3333333,841.3612,471.72067)"
         clip-path="url(#clipPath124)" />
      <path
         id="path125"
         d="M 0,0 C 0,0.547 -0.141,1.06 -0.679,1.06 -1.35,1.06 -1.35,0.232 -1.35,0 Z M 1.193,-0.712 H -1.35 c 0,-0.514 0.331,-0.986 1.068,-0.986 0.448,0 0.896,0.166 1.218,0.339 l 0.025,-0.985 c -0.423,-0.157 -0.92,-0.249 -1.367,-0.249 -1.516,0 -2.186,0.919 -2.186,2.237 0,1.16 0.679,2.212 1.913,2.212 0.389,0 1.872,0 1.872,-2.254 z"
         style="fill:#1a1a1a;fill-opacity:1;fill-rule:nonzero;stroke:none"
         transform="matrix(1.3333333,0,0,-1.3333333,847.63347,471.8972)"
         clip-path="url(#clipPath126)" />
      <path
         id="path127"
         d="m 0,0 c 0,0.539 -0.241,0.679 -0.505,0.679 -0.423,0 -0.572,-0.364 -0.572,-0.919 v -2.419 h -1.309 v 3.413 c 0,0.414 -0.008,0.679 -0.032,0.903 h 1.192 C -1.21,1.466 -1.193,1.226 -1.193,0.936 h 0.017 c 0.199,0.472 0.529,0.787 1.217,0.787 0.953,0 1.268,-0.696 1.268,-1.557 V -2.659 H 0 Z"
         style="fill:#1a1a1a;fill-opacity:1;fill-rule:nonzero;stroke:none"
         transform="matrix(1.3333333,0,0,-1.3333333,853.43093,471.72067)"
         clip-path="url(#clipPath128)" />
      <path
         id="path129"
         d="M 0,0 H 0.745 V 0.887 L 2.02,1.293 V 0 H 2.866 V -0.919 H 2.02 v -1.98 c 0,-0.422 0.191,-0.538 0.44,-0.538 0.182,0 0.298,0.033 0.43,0.091 v -0.919 c -0.132,-0.05 -0.489,-0.117 -0.911,-0.117 -0.679,0 -1.268,0.331 -1.268,1.276 v 2.187 H 0 Z"
         style="fill:#1a1a1a;fill-opacity:1;fill-rule:nonzero;stroke:none"
         transform="matrix(1.3333333,0,0,-1.3333333,855.93773,469.512)"
         clip-path="url(#clipPath130)" />
      <path
         id="path131"
         d="M 0,0 C 0,0 0.236,0.587 0.705,0.826 1.176,1.068 1.834,1.109 2.606,1.021 3.264,0.95 4.627,0.347 6.595,-1.288 c 2.74,-2.275 3.719,-3.682 3.739,-3.614 0.172,0.551 0.831,1.62 0.831,1.62 C 9.871,-2.149 5.348,0.809 3.94,1.369 2.356,2.007 0.179,2.176 0,0"
         style="fill:#1a1a1a;fill-opacity:1;fill-rule:nonzero;stroke:none"
         transform="matrix(1.3333333,0,0,-1.3333333,674.50707,443.5816)"
         clip-path="url(#clipPath132)" />
      <path
         id="path133"
         d="M 0,0 C 1.913,0.48 2.125,-0.782 2.529,-1.084 L 3.993,-1.98 C 2.015,2.401 0,0 0,0"
         style="fill:#1a1a1a;fill-opacity:1;fill-rule:nonzero;stroke:none"
         transform="matrix(1.3333333,0,0,-1.3333333,676.69827,439.93373)"
         clip-path="url(#clipPath134)" />
      <path
         id="path135"
         d="m 0,0 c 4.54,-3.327 0.736,-4.868 0.736,-4.868 0.891,-0.379 1.602,-0.123 1.99,0.456 0.14,0.218 0.274,0.486 0.349,0.697 0.128,0.359 0.142,0.651 0.142,0.651 1.609,-1.577 3.362,-4.272 4.507,-5.702 -0.347,1.387 -0.079,2.011 -0.187,2.14 C 6.17,-4.983 5.714,-4.395 4.82,-3.403 2.117,-0.415 0,0 0,0"
         style="fill:#1a1a1a;fill-opacity:1;fill-rule:nonzero;stroke:none"
         transform="matrix(1.3333333,0,0,-1.3333333,677.8188,442.90133)"
         clip-path="url(#clipPath136)" />
      <path
         id="path137"
         d="m 0,0 c -0.214,0.549 -0.145,2.123 -0.083,2.408 0.225,0.604 0.429,1.198 0.552,1.76 L 0.569,4.117 1.282,3.67 C 0.985,4.04 0.703,5.015 0.554,5.605 0.542,5.681 0.528,5.76 0.508,5.834 0.195,7.098 -0.443,7.837 -0.443,7.837 c 0,0 0.467,-1.206 0.309,-2.182 -0.154,-2.04 -3.049,-4.378 -2.395,-7.951 0.362,-1.975 2.338,-3.547 2.338,-3.547 0,0 -0.63,1.3 -1.074,3.753 -0.177,0.966 0.136,1.722 0.564,2.88 l 0.159,-0.148 z"
         style="fill:#1a1a1a;fill-opacity:1;fill-rule:nonzero;stroke:none"
         transform="matrix(1.3333333,0,0,-1.3333333,702.90893,442.4748)"
         clip-path="url(#clipPath138)" />
      <path
         id="path139"
         d="m 0,0 c 0,0 -5.133,-0.829 -7.671,-1.643 -2.543,-0.814 -6.25,-2.416 -7.929,-4.517 -1.68,-2.102 -0.266,-5.433 -0.694,-7.651 -0.43,-2.218 -3.721,-4.47 -3.721,-4.47 0,0 3.83,0.981 5.241,4.067 1.038,2.269 -0.28,3.846 1.313,7.349 C -11.869,-3.367 0,0 0,0"
         style="fill:#1a1a1a;fill-opacity:1;fill-rule:nonzero;stroke:none"
         transform="matrix(1.3333333,0,0,-1.3333333,729.54213,423.86747)"
         clip-path="url(#clipPath140)" />
      <path
         id="path141"
         d="m 0,0 c 0,0 -4.237,-1.312 -5.571,-5.451 l 1.897,0.421 c 0,0 0.026,2.58 3.674,5.03"
         style="fill:#1a1a1a;fill-opacity:1;fill-rule:nonzero;stroke:none"
         transform="matrix(1.3333333,0,0,-1.3333333,729.72107,424.1968)"
         clip-path="url(#clipPath142)" />
      <path
         id="path143"
         d="m 0,0 c 0,0 -6.67,1.333 -13.227,-0.593 -6.558,-1.923 -5.635,-5.35 -5.706,-7.258 -0.067,-1.911 -1.686,-6.148 -7.457,-5.589 0,0 3.421,-1.87 7.231,1.202 3.808,3.072 1.152,6.795 4.216,8.569 C -11.88,-1.896 -9.506,-0.422 0,0"
         style="fill:#1a1a1a;fill-opacity:1;fill-rule:nonzero;stroke:none"
         transform="matrix(1.3333333,0,0,-1.3333333,738.666,431.83293)"
         clip-path="url(#clipPath144)" />
      <path
         id="path145"
         d="m 0,0 c 0,0 2.606,-0.364 4.141,-2.156 0,0 -2.1,1.628 -4.486,1.21 0,0 0.227,0.47 0.345,0.946"
         style="fill:#1a1a1a;fill-opacity:1;fill-rule:nonzero;stroke:none"
         transform="matrix(1.3333333,0,0,-1.3333333,716.5056,444.468)"
         clip-path="url(#clipPath146)" />
      <path
         id="path147"
         d="M 0,0 C 0,0 -6.296,-0.149 -6.359,-5.44 -6.474,-5.243 -9.817,0.591 0,0"
         style="fill:#1a1a1a;fill-opacity:1;fill-rule:nonzero;stroke:none"
         transform="matrix(1.3333333,0,0,-1.3333333,731.53773,440.67587)"
         clip-path="url(#clipPath148)" />
      <path
         id="path149"
         d="M 0,0 V 0 C -6.339,-1.305 -4.889,-6.301 -4.889,-6.301 -8.114,0.111 0,0 0,0"
         style="fill:#1a1a1a;fill-opacity:1;fill-rule:nonzero;stroke:none"
         transform="matrix(1.3333333,0,0,-1.3333333,738.05613,432.27907)"
         clip-path="url(#clipPath150)" />
      <path
         id="path151"
         d="M 0,0 C 1.655,4.46 6.132,4.639 6.296,4.645 1.536,5.58 0.324,3.175 0.045,1.485 -4.025,2.279 -7.506,2.362 -7.506,2.362 -2.614,1.678 0,0 0,0"
         style="fill:#1a1a1a;fill-opacity:1;fill-rule:nonzero;stroke:none"
         transform="matrix(1.3333333,0,0,-1.3333333,714.61253,454.19467)"
         clip-path="url(#clipPath152)" />
      <path
         id="path153"
         d="M 0,0 C 0,0 1.006,0.544 2.181,0.431 2.904,0.362 4.304,0.885 4.304,0.885 3.715,0.89 2.321,1.587 1.095,1.434 -0.13,1.282 0,0 0,0"
         style="fill:#1a1a1a;fill-opacity:1;fill-rule:nonzero;stroke:none"
         transform="matrix(1.3333333,0,0,-1.3333333,680.34027,471.88053)"
         clip-path="url(#clipPath154)" />
      <path
         id="path155"
         d="m 0,0 c 0,0 -0.1,0.965 0.822,1.078 0.92,0.116 1.962,-0.409 2.405,-0.41 0,0 -1.046,-0.394 -1.592,-0.343 C 0.755,0.409 0,0 0,0"
         style="fill:#1a1a1a;fill-opacity:1;fill-rule:nonzero;stroke:none"
         transform="matrix(1.3333333,0,0,-1.3333333,711.5504,467.6768)"
         clip-path="url(#clipPath156)" />
      <path
         id="path157"
         d="M 0,0 C 0,0 0.904,0.494 1.964,0.393 2.616,0.329 3.615,0.418 3.615,0.418 3.083,0.422 2.246,1.507 0.985,1.296 -0.11,1.113 0,0 0,0"
         style="fill:#1a1a1a;fill-opacity:1;fill-rule:nonzero;stroke:none"
         transform="matrix(1.3333333,0,0,-1.3333333,723.52813,472.55307)"
         clip-path="url(#clipPath158)" />
      <path
         id="path159"
         d="m 0,0 c -7.665,1.848 -10.049,0.523 -10.049,0.523 0,0 0.168,0.434 0.276,0.676 0.173,0.383 0.22,0.483 0.268,0.575 C -3.887,1.99 0,0 0,0"
         style="fill:#1a1a1a;fill-opacity:1;fill-rule:nonzero;stroke:none"
         transform="matrix(1.3333333,0,0,-1.3333333,730.84707,440.34933)"
         clip-path="url(#clipPath160)" />
      <path
         id="path161"
         d="m 0,0 c 0,0 -0.863,0.926 -1.875,0.926 -1.462,0 -2.681,-1.561 -3.983,-1.563 -1.301,0 -1.951,0.44 -1.951,0.44 0,0 0.788,-1.063 2.029,-1.063 1.614,0 2.808,1.588 3.879,1.588 C -0.835,0.329 0,0 0,0"
         style="fill:#1a1a1a;fill-opacity:1;fill-rule:nonzero;stroke:none"
         transform="matrix(1.3333333,0,0,-1.3333333,691.714,433.8544)"
         clip-path="url(#clipPath162)" />
      <path
         id="path163"
         d="m 0,0 c 0,0 0.225,-0.816 0.096,-2.305 -0.126,-2.552 -5.119,-6.067 -5.058,-10.296 0.035,-2.528 1.899,-4.037 1.899,-4.037 0,0 -0.837,2.23 -0.463,4.462 0.516,3.1 4.422,6.635 4.3,9.678 C 0.699,-0.704 0,0 0,0"
         style="fill:#1a1a1a;fill-opacity:1;fill-rule:nonzero;stroke:none"
         transform="matrix(1.3333333,0,0,-1.3333333,696.17667,436.08387)"
         clip-path="url(#clipPath164)" />
      <path
         id="path165"
         d="m 0,0 c 0,0 -0.754,1.778 -0.187,3.356 0.37,1.017 1.333,1.885 3.231,2.36 0,0 -3.32,-3.025 -0.885,-5.638 0,0 -1.737,-1.846 -2.401,-3.422 -0.662,-1.575 -2.11,-4.878 -2.587,-5.647 -0.483,-0.763 -1.158,-1.751 -3.055,-2.606 -2.1,-0.182 -4.399,-0.534 -4.55,-2.157 0,0 -0.405,0.406 -0.369,1.431 0.039,1.025 1.739,2.17 3.518,2.11 1.777,-0.066 3.365,0.39 4.198,2.532 C -2.257,-5.534 -0.435,-0.376 0,0"
         style="fill:#1a1a1a;fill-opacity:1;fill-rule:nonzero;stroke:none"
         transform="matrix(1.3333333,0,0,-1.3333333,692.9596,458.2084)"
         clip-path="url(#clipPath166)" />
      <path
         id="path167"
         d="m 0,0 c 0,0 -2.709,-8.303 -7.455,-11.351 0,0 2.892,0.412 3.783,0.048 0.894,-0.366 1.81,-0.973 0.94,-2.36 0,0 1.721,0.944 1.246,2.366 -0.374,1.125 -2.062,1.216 -2.062,1.216 0,0 -0.485,0.211 -0.203,0.928 0.282,0.721 2.096,3.111 2.385,3.543 0.288,0.437 2.642,3.99 2.735,4.194 0,0 2.074,-0.294 3.067,1.682 1.036,2.053 -1.172,4.041 -1.172,4.041 0,0 0.969,-2.207 -0.152,-3.292 C 1.784,-0.268 0,0 0,0"
         style="fill:#1a1a1a;fill-opacity:1;fill-rule:nonzero;stroke:none"
         transform="matrix(1.3333333,0,0,-1.3333333,696.73693,458.43773)"
         clip-path="url(#clipPath168)" />
      <path
         id="path169"
         d="m 0,0 c 0,0 0.999,0.207 1.338,0.46 0,0 0.463,-0.501 2.376,-0.46 0.161,0.001 0.266,0 0.328,0 2.124,0.263 4.711,1.023 8.778,2.719 L 13.26,1.994 C 10.086,0.924 6.255,-2.094 1.45,-1.618 1.109,-1.582 -0.469,-1.266 -0.798,-1.165 -0.597,-0.896 0,0 0,0"
         style="fill:#1a1a1a;fill-opacity:1;fill-rule:nonzero;stroke:none"
         transform="matrix(1.3333333,0,0,-1.3333333,699.81387,461.018)"
         clip-path="url(#clipPath170)" />
      <path
         id="path171"
         d="m 0,0 c -0.413,-0.685 -1.03,-1.6 -2.344,-2.043 -1.428,0.03 -3.144,-0.322 -3.26,-1.539 0,0 -0.303,0.307 -0.278,1.07 0.028,0.772 1.082,1.611 2.639,1.527 1.334,-0.072 2.195,0.481 2.772,1.942 0.393,0.983 -0.025,3.091 0.503,4.428 0,0 0.719,-0.556 1.036,-0.82 0,0 0.026,0.008 -0.126,-0.356 C 0.447,3.026 0.682,1.318 0,0"
         style="fill:#1a1a1a;fill-opacity:1;fill-rule:nonzero;stroke:none"
         transform="matrix(1.3333333,0,0,-1.3333333,718.05227,466.3984)"
         clip-path="url(#clipPath172)" />
      <path
         id="path173"
         d="m 0,0 c 0,0 0.408,-0.278 0.802,-0.491 -0.327,-0.793 -0.433,-1.294 -0.496,-1.46 -0.136,-0.375 -0.587,-1.892 -0.8,-2.431 -0.213,-0.537 0.15,-0.693 0.15,-0.693 0,0 1.268,-0.072 1.548,-0.915 0.357,-1.066 -0.93,-1.772 -0.93,-1.772 0.648,1.037 -0.037,1.495 -0.707,1.768 -0.67,0.272 -2.632,-0.035 -2.632,-0.035 C -1.006,-4.903 -0.331,-0.778 0,0"
         style="fill:#1a1a1a;fill-opacity:1;fill-rule:nonzero;stroke:none"
         transform="matrix(1.3333333,0,0,-1.3333333,720.75267,460.9024)"
         clip-path="url(#clipPath174)" />
      <path
         id="path175"
         d="m 0,0 c 0,0 0.548,-1.144 0.236,-1.565 -1.245,-0.036 -2.092,0.002 -3.93,-0.185 -1.7,-0.173 -2.801,-0.285 -2.935,-1.748 0,0 -0.368,0.367 -0.335,1.291 0.034,0.922 1.568,1.951 3.17,1.892 0,0 2.007,-0.035 2.232,0.084 0.48,0.256 -0.741,2.591 -0.948,3.012 -1.779,3.559 -1.735,4.711 -1.806,4.901 0,0 -4.978,0.933 -6.203,4.324 C -6.566,8.644 -3.294,8.673 -3.294,8.673 -2.88,7.06 -1.18,2.285 0,0"
         style="fill:#1a1a1a;fill-opacity:1;fill-rule:nonzero;stroke:none"
         transform="matrix(1.3333333,0,0,-1.3333333,731.14507,472.106)"
         clip-path="url(#clipPath176)" />
      <path
         id="path177"
         d="m 0,0 c -0.611,-1.816 -0.989,-3.782 -0.914,-5.929 0.068,-1.966 1.341,-4.697 4.438,-4.42 1.611,0.141 2.62,1.186 3.138,2.242 0.609,1.244 0.568,2.522 0.568,2.522 0,0 0.041,2.031 -1.906,3.756 C 4.255,-0.854 2.608,-0.105 0,0 m -1.867,1.513 c 0.518,0.016 0.955,0.01 1.447,-0.022 2.161,4.618 5.843,9.397 5.843,12.216 0,1.821 -1.253,3.044 -1.253,3.044 L 3.956,16.066 c 0,0 -1.015,2.326 -1.765,2.913 l 0.025,-0.015 c 0,0 2.338,-0.931 3.136,-1.579 v 0.013 L 4.76,17.243 H 4.739 C 6.229,15.865 6.146,13.68 6.146,13.68 6.266,10.326 2.634,6.475 0.53,1.41 5.267,0.82 8.575,-2.126 8.575,-5.332 c 0,-4.492 -2.748,-6.072 -5.246,-6.106 -0.882,-0.008 -1.858,0.131 -3.002,0.808 -1.332,0.788 -2.445,2.254 -2.445,5.11 0,2.798 0.651,4.537 1.019,5.517 l -0.01,0.01 c -1.135,-0.041 -2.254,-0.176 -3.229,-0.379 0,0 -0.881,-0.261 -1.28,-0.383 1.058,-0.62 2.095,-1.627 2.458,-3.205 0.23,-1.129 0.122,-2.567 -0.439,-4.397 -0.119,-1.791 0.66,-4.45 1.266,-6.426 l 0.678,-1.806 c 0.362,-0.798 0.922,-1.023 0.922,-1.023 0,0 1.387,-0.203 1.777,-1.045 0.522,-1.119 -0.372,-1.689 -0.372,-1.689 0.321,1.345 -0.844,1.492 -1.531,1.594 l -0.057,0.007 c -0.672,0.099 -1.119,0.04 -1.119,0.04 0.086,0.456 -0.787,2.887 -0.727,2.726 0,0 -1.119,3.216 -1.591,4.63 -0.491,1.457 -0.824,3.523 -0.824,3.523 0,0 3.358,5.596 -4.153,8.12 0,0 0.528,0.055 0.936,0.003 0.847,0.332 1.944,0.562 1.944,0.562 1.336,0.362 2.841,0.597 4.583,0.654"
         style="fill:#1a1a1a;fill-opacity:1;fill-rule:nonzero;stroke:none"
         transform="matrix(1.3333333,0,0,-1.3333333,735.35333,449.1796)"
         clip-path="url(#clipPath178)" />
      <path
         id="path179"
         d="m 0,0 c 0,0 -0.792,-1.363 -2.023,-0.571 0,0 0.028,0.811 0.726,0.733 C -0.599,0.084 -0.69,-0.202 0,0 m -2.895,-0.174 c 0,0 -2.597,0.829 -4.21,-0.487 l 0.848,-1.465 c 0,0 2.464,2.01 4.286,-0.875 0,0 -1.357,-1.775 -4.223,-1.275 0,0 0.781,-1.342 2.682,-1.33 1.902,0.012 3.752,1.924 4.348,1.28 0,0 -0.201,2.724 3.122,3.685 0,0 0.759,-0.619 0.895,-0.967 0,0 1.091,0.859 1.032,2.966 -0.059,2.107 -1.247,3.065 -1.671,3.424 0,0 0.249,-1.258 -0.309,-2.43 C 3.58,1.671 2.863,0.818 1.766,0.787 c 0,0 -0.901,-0.016 -1.501,0.165 -0.599,0.182 -2.977,0.982 -3.16,-1.126"
         style="fill:#1a1a1a;fill-opacity:1;fill-rule:nonzero;stroke:none"
         transform="matrix(1.3333333,0,0,-1.3333333,694.94053,429.6908)"
         clip-path="url(#clipPath180)" />
    </g>
  </g>
</svg>
